<?xml version="1.0" encoding="UTF-8" standalone="no"?>
<!-- Created with Inkscape (http://www.inkscape.org/) -->

<svg
   xmlns:dc="http://purl.org/dc/elements/1.1/"
   xmlns:cc="http://creativecommons.org/ns#"
   xmlns:rdf="http://www.w3.org/1999/02/22-rdf-syntax-ns#"
   xmlns:svg="http://www.w3.org/2000/svg"
   xmlns="http://www.w3.org/2000/svg"
   version="1.1"
   width="311.25"
   height="156.25"
   id="svg2"
   xml:space="preserve"><metadata
     id="metadata8"><rdf:RDF><cc:Work
         rdf:about=""><dc:format>image/svg+xml</dc:format><dc:type
           rdf:resource="http://purl.org/dc/dcmitype/StillImage" /><dc:title></dc:title></cc:Work></rdf:RDF></metadata><defs
     id="defs6"><clipPath
       id="clipPath18"><path
         d="M 0,0 249,0 249,125 0,125 0,0 z"
         id="path20" /></clipPath><clipPath
       id="clipPath64"><path
         d="m 135.633,51.035 -5.396,1.515 -0.098,0.014 -6.828,0 0,0.013 -0.049,-0.013 -9.412,0 -0.115,-0.019 -3.66,-1.192 -19.926,11.49 -0.163,0.094 -81.796,0.803 0,47.945 227.631,0 0,-47.941 -78.431,-0.268 -0.191,0 -21.566,-12.441"
         id="path66" /></clipPath><clipPath
       id="clipPath70"><path
         d="M 0,0 249,0 249,125 0,125 0,0 z"
         id="path72" /></clipPath><clipPath
       id="clipPath80"><path
         d="M 0,0 249,0 249,125 0,125 0,0 z"
         id="path82" /></clipPath></defs><g
     transform="matrix(1.25,0,0,-1.25,0,156.25)"
     id="g10"><g
       id="g12" /><g
       id="g14"><g
         clip-path="url(#clipPath18)"
         id="g16"><path
           d="m 122.941,52.093 17.957,-5.168 -17.957,-4.964 0,10.132"
           id="path22"
           style="fill:#bdbcbc;fill-opacity:1;fill-rule:evenodd;stroke:none" /><path
           d="m 122.941,52.194 7.198,0 18.412,-5.167 -6.573,0 -19.037,5.167"
           id="path24"
           style="fill:#e9e9e9;fill-opacity:1;fill-rule:evenodd;stroke:none" /><path
           d="m 148.551,46.659 -6.573,0 c -0.205,0 -0.37,0.164 -0.37,0.368 0,0.202 0.165,0.369 0.37,0.369 l 3.898,0 -15.788,4.431 -7.147,0 c -0.202,0 -0.367,0.163 -0.367,0.367 0,0.204 0.165,0.37 0.367,0.37 l 7.198,0 0.098,-0.014 18.412,-5.169 c 0.178,-0.049 0.291,-0.223 0.266,-0.404 -0.024,-0.182 -0.18,-0.318 -0.364,-0.318"
           id="path26"
           style="fill:#4f4c4d;fill-opacity:1;fill-rule:nonzero;stroke:none" /><path
           d="m 104.523,47.027 -6.545,0 15.872,5.167 9.091,0 -18.418,-5.167"
           id="path28"
           style="fill:#e9e9e9;fill-opacity:1;fill-rule:evenodd;stroke:none" /><path
           d="m 104.523,46.659 -6.545,0 c -0.182,0 -0.335,0.13 -0.365,0.311 -0.028,0.178 0.077,0.352 0.25,0.408 l 15.872,5.167 0.115,0.019 9.091,0 c 0.205,0 0.37,-0.166 0.37,-0.37 0,-0.204 -0.165,-0.367 -0.37,-0.367 l -9.034,0 -13.609,-4.431 4.225,0 c 0.204,0 0.368,-0.167 0.368,-0.369 0,-0.204 -0.164,-0.368 -0.368,-0.368"
           id="path30"
           style="fill:#4f4c4d;fill-opacity:1;fill-rule:nonzero;stroke:none" /><path
           d="m 104.523,25.487 18.727,-5.219 -0.309,21.796 -18.418,4.963 0,-21.54"
           id="path32"
           style="fill:#bdbcbc;fill-opacity:1;fill-rule:nonzero;stroke:none" /><path
           d="m 141.975,47.027 -19.034,-4.963 0.309,-21.796 18.725,4.913 0,21.846"
           id="path34"
           style="fill:#eaeaea;fill-opacity:1;fill-rule:nonzero;stroke:none" /><path
           d="m 104.891,25.768 18.362,-5.119 18.355,4.816 0,21.279 -18.664,5.07 -18.053,-5.067 0,-20.979 m 18.359,-5.868 -0.099,0.014 -18.728,5.22 c -0.159,0.043 -0.269,0.188 -0.269,0.353 l 0,21.54 c 0,0.164 0.11,0.31 0.269,0.354 l 18.421,5.169 0.195,0 19.033,-5.168 c 0.162,-0.043 0.273,-0.189 0.273,-0.355 l 0,-21.846 c 0,-0.167 -0.114,-0.315 -0.276,-0.357 L 123.344,19.911 123.25,19.9"
           id="path36"
           style="fill:#4f4c4d;fill-opacity:1;fill-rule:nonzero;stroke:none" /><path
           d="m 114.193,30.335 c -1.456,0.445 -3.202,1.331 -3.34,2.368 -0.111,0.79 0.512,1.446 1.116,2.082 0.385,0.407 0.788,0.83 0.881,1.194 0.114,0.45 0.094,0.669 0.058,1.108 -0.009,0.078 -0.016,0.159 -0.022,0.252 -0.014,0.179 0.12,0.29 0.296,0.247 0.177,-0.045 0.336,-0.223 0.346,-0.402 l 0.024,-0.245 c 0.038,-0.458 0.063,-0.76 -0.075,-1.304 -0.122,-0.481 -0.54,-0.925 -0.986,-1.391 -0.501,-0.53 -1.074,-1.13 -1.002,-1.654 0.054,-0.396 1.101,-1.123 2.695,-1.612 1.594,-0.487 2.631,-0.395 2.678,-0.03 0.057,0.483 -0.533,1.438 -1.051,2.281 -0.457,0.745 -0.892,1.446 -1.026,2.006 -0.158,0.649 -0.089,2.17 -0.024,3.258 l 0.006,0.067 c 0.009,0.174 0.159,0.264 0.337,0.194 0.178,-0.068 0.317,-0.261 0.305,-0.435 l -0.006,-0.068 c -0.094,-1.616 -0.094,-2.644 0.006,-3.055 0.103,-0.423 0.518,-1.093 0.914,-1.744 0.623,-1.009 1.267,-2.052 1.177,-2.783 -0.117,-0.958 -1.854,-0.777 -3.307,-0.334"
           id="path38"
           style="fill:#4f4c4d;fill-opacity:1;fill-rule:nonzero;stroke:none" /><path
           d="m 115.944,31.73 c 0.009,-0.815 -3.622,0.226 -3.636,1.165 -0.018,1.578 3.622,0.146 3.636,-1.165"
           id="path40"
           style="fill:#3ca3b1;fill-opacity:1;fill-rule:evenodd;stroke:none" /><path
           d="m 114.297,28.068 c -3.042,0.931 -5.543,4.149 -5.581,7.178 -0.026,2.161 1.228,3.738 3.2,4.017 0.16,0.023 0.354,-0.107 0.428,-0.293 0.072,-0.184 0.005,-0.352 -0.158,-0.373 -1.738,-0.249 -2.847,-1.64 -2.825,-3.547 0.034,-2.675 2.243,-5.519 4.928,-6.339 2.685,-0.822 4.843,0.685 4.813,3.36 -0.029,2.296 -1.78,4.909 -4.076,6.075 -0.172,0.089 -0.291,0.293 -0.256,0.455 0.033,0.163 0.204,0.223 0.376,0.133 2.594,-1.317 4.569,-4.267 4.601,-6.861 0.036,-3.029 -2.409,-4.734 -5.45,-3.805"
           id="path42"
           style="fill:#4f4c4d;fill-opacity:1;fill-rule:nonzero;stroke:none" /><path
           d="m 112.165,39.197 0.631,-0.803 -0.841,0.025 0.21,0.778"
           id="path44"
           style="fill:#4f4c4d;fill-opacity:1;fill-rule:evenodd;stroke:none" /><path
           d="m 111.958,38.099 -0.229,0.162 c -0.082,0.104 -0.115,0.232 -0.087,0.336 l 0.21,0.775 c 0.028,0.102 0.112,0.163 0.223,0.16 0.111,-0.003 0.23,-0.068 0.313,-0.176 l 0.631,-0.801 c 0.082,-0.107 0.116,-0.236 0.089,-0.337 -0.027,-0.1 -0.113,-0.164 -0.225,-0.159 l -0.836,0.024 -0.089,0.016"
           id="path46"
           style="fill:#4f4c4d;fill-opacity:1;fill-rule:nonzero;stroke:none" /><path
           d="m 104.523,47.027 -4.555,-7.495 16.914,-5.072 6.059,7.604 -18.418,4.963"
           id="path48"
           style="fill:#e9e9e9;fill-opacity:1;fill-rule:evenodd;stroke:none" /><path
           d="m 100.529,39.748 16.22,-4.863 5.556,6.97 -17.611,4.745 -4.165,-6.852 m 16.353,-5.655 -0.106,0.014 -16.915,5.074 c -0.108,0.032 -0.196,0.113 -0.237,0.218 -0.042,0.109 -0.03,0.227 0.029,0.325 l 4.555,7.495 c 0.086,0.139 0.253,0.206 0.41,0.163 l 18.42,-4.962 c 0.121,-0.032 0.217,-0.122 0.254,-0.24 0.039,-0.118 0.016,-0.246 -0.062,-0.344 l -6.06,-7.605 c -0.071,-0.089 -0.179,-0.138 -0.288,-0.138"
           id="path50"
           style="fill:#4f4c4d;fill-opacity:1;fill-rule:nonzero;stroke:none" /><path
           d="m 122.941,42.064 4.987,-8.041 18.658,5.247 -4.608,7.757 -19.037,-4.963"
           id="path52"
           style="fill:#e9e9e9;fill-opacity:1;fill-rule:evenodd;stroke:none" /><path
           d="m 123.519,41.834 4.576,-7.383 17.929,5.044 -4.223,7.106 -18.282,-4.767 m 4.409,-8.181 c -0.124,0 -0.243,0.065 -0.314,0.175 l -4.984,8.042 c -0.063,0.1 -0.072,0.223 -0.029,0.331 0.043,0.109 0.136,0.191 0.249,0.22 l 19.034,4.962 c 0.158,0.044 0.325,-0.028 0.409,-0.167 l 4.61,-7.758 c 0.059,-0.098 0.069,-0.218 0.027,-0.324 -0.043,-0.106 -0.134,-0.187 -0.244,-0.218 l -18.658,-5.248 -0.1,-0.015"
           id="path54"
           style="fill:#4f4c4d;fill-opacity:1;fill-rule:nonzero;stroke:none" /><path
           d="m 122.941,52.093 -17.954,-5.066 17.954,-4.963 0,10.029"
           id="path56"
           style="fill:#eaeaea;fill-opacity:1;fill-rule:evenodd;stroke:none" /><path
           d="m 106.356,47.031 16.218,-4.481 0,9.055 -16.218,-4.574 m 16.955,-5.45 -19.693,5.443 19.693,5.553 0,-10.996"
           id="path58"
           style="fill:#4f4c4d;fill-opacity:1;fill-rule:nonzero;stroke:none" /></g></g><g
       id="g60"><g
         clip-path="url(#clipPath64)"
         id="g62"><g
           clip-path="url(#clipPath70)"
           id="g68"><path
             d="m 8.19,111.685 227.631,0 0,-60.649 -227.631,0 0,60.649 z"
             id="path74"
             style="fill:#fcfcfc;fill-opacity:1;fill-rule:nonzero;stroke:none" /></g></g></g><g
       id="g76"><g
         clip-path="url(#clipPath80)"
         id="g78"><path
           d="m 123.311,43.927 0,7.787 9.177,-2.493 -9.177,-5.294"
           id="path84"
           style="fill:#cecdcd;fill-opacity:1;fill-rule:nonzero;stroke:none" /><path
           d="m 133.387,49.74 -7.686,2.087 4.387,0 4.653,-1.306 -1.354,-0.781"
           id="path86"
           style="fill:#ededed;fill-opacity:1;fill-rule:nonzero;stroke:none" /><path
           d="m 134.741,50.521 -4.653,1.306 -4.387,0 -2.39,0.649 0,0.088 6.828,0 0.098,-0.014 5.396,-1.515 -0.892,-0.514 m -11.613,2.005 -0.071,0.019 c -0.036,0.012 -0.075,0.019 -0.116,0.019 l 0.321,0 -0.134,-0.038"
           id="path88"
           style="fill:#817f7f;fill-opacity:1;fill-rule:nonzero;stroke:none" /><path
           d="m 112.859,49.748 -1.926,1.111 2.974,0.968 6.361,0 -7.409,-2.079"
           id="path90"
           style="fill:#ededed;fill-opacity:1;fill-rule:nonzero;stroke:none" /><path
           d="m 110.933,50.859 -0.858,0.494 3.66,1.192 0.115,0.019 9.091,0 c 0.041,0 0.08,-0.007 0.116,-0.019 l -0.018,0.005 -0.195,0 -2.576,-0.723 -6.361,0 -2.974,-0.968"
           id="path92"
           style="fill:#817f7f;fill-opacity:1;fill-rule:nonzero;stroke:none" /><path
           d="m 132.488,49.221 -9.177,2.493 0,0.762 10.076,-2.736 -0.899,-0.519 m -19.492,0.448 -0.137,0.079 7.409,2.079 2.576,0.723 0.195,0 0.018,-0.005 0.071,-0.019 -10.132,-2.857"
           id="path94"
           style="fill:#817f7f;fill-opacity:1;fill-rule:nonzero;stroke:none" /><path
           d="m 122.574,44.146 -8.687,5.009 8.687,2.45 0,-7.459"
           id="path96"
           style="fill:#ededed;fill-opacity:1;fill-rule:nonzero;stroke:none" /><path
           d="m 123.132,43.824 -0.558,0.322 0,7.459 -8.687,-2.45 -0.891,0.514 10.132,2.857 0.134,0.038 0.049,0.013 0,-8.65 -0.179,-0.103"
           id="path98"
           style="fill:#817f7f;fill-opacity:1;fill-rule:nonzero;stroke:none" /><path
           d="m 137.56,50.494 -1.927,0.541 21.566,12.441 0.191,0 78.431,0.268 0,47.941 -227.631,0 0,-47.945 81.796,-0.803 0.163,-0.094 19.926,-11.49 -1.832,-0.596 -18.645,10.752 -82.838,0.814 0,50.792 230.492,0 0,-50.796 -79.667,-0.274 -20.025,-11.551"
           id="path100"
           style="fill:#cac9c9;fill-opacity:1;fill-rule:nonzero;stroke:none" /><path
           d="m 123.311,42.541 0,1.386 9.177,5.294 1.948,-0.529 -10.284,-5.931 -0.841,-0.22"
           id="path102"
           style="fill:#9c9a9a;fill-opacity:1;fill-rule:nonzero;stroke:none" /><path
           d="m 135.335,49.211 -1.948,0.529 1.354,0.781 1.928,-0.541 -1.334,-0.769"
           id="path104"
           style="fill:#bbbaba;fill-opacity:1;fill-rule:nonzero;stroke:none" /><path
           d="m 136.669,49.98 -1.928,0.541 0.892,0.514 1.927,-0.541 -0.891,-0.514"
           id="path106"
           style="fill:#4f4c4d;fill-opacity:1;fill-rule:nonzero;stroke:none" /><path
           d="m 110.931,49.207 -1.83,1.055 1.832,0.597 1.926,-1.111 -1.928,-0.541"
           id="path108"
           style="fill:#bbbaba;fill-opacity:1;fill-rule:nonzero;stroke:none" /><path
           d="m 109.101,50.262 -0.858,0.495 1.832,0.596 0.858,-0.494 -1.832,-0.597"
           id="path110"
           style="fill:#4f4c4d;fill-opacity:1;fill-rule:nonzero;stroke:none" /><path
           d="m 134.436,48.692 -1.948,0.529 0.899,0.519 1.948,-0.529 -0.899,-0.519 m -23.364,0.434 -0.141,0.081 1.928,0.541 0.137,-0.079 -1.924,-0.543"
           id="path112"
           style="fill:#4f4c4d;fill-opacity:1;fill-rule:nonzero;stroke:none" /><path
           d="m 123.311,42.275 0,0.266 0.841,0.22 -0.841,-0.486"
           id="path114"
           style="fill:#4f4c4d;fill-opacity:1;fill-rule:nonzero;stroke:none" /><path
           d="m 122.574,42.55 -0.187,0.052 -10.424,6.01 1.924,0.543 8.687,-5.009 0,-1.596"
           id="path116"
           style="fill:#bebdbd;fill-opacity:1;fill-rule:nonzero;stroke:none" /><path
           d="m 123.132,42.172 -0.745,0.43 0.187,-0.052 0,1.596 0.558,-0.322 0.179,0.103 0,-1.652 -0.179,-0.103 m -11.169,6.44 -0.891,0.514 1.924,0.543 0.891,-0.514 -1.924,-0.543"
           id="path118"
           style="fill:#4f4c4d;fill-opacity:1;fill-rule:nonzero;stroke:none" /><path
           d="m 60.544,66.406 c -18.049,0 -32.732,7.126 -32.732,15.885 l 0.643,0 c 0,-8.404 14.395,-15.242 32.089,-15.242 17.692,0 32.088,6.838 32.088,15.242 l 0.642,0 c 0,-8.759 -14.682,-15.885 -32.73,-15.885"
           id="path120"
           style="fill:#4f4c4d;fill-opacity:1;fill-rule:nonzero;stroke:none" /><path
           d="m 75.62,70.223 c -9.958,0 -18.058,5.414 -18.058,12.068 l 0.642,0 c 0,-6.3 7.814,-11.426 17.416,-11.426 9.604,0 17.417,5.126 17.417,11.426 l 0.643,0 c 0,-6.654 -8.101,-12.068 -18.06,-12.068"
           id="path122"
           style="fill:#4f4c4d;fill-opacity:1;fill-rule:nonzero;stroke:none" /><path
           d="m 108.847,70.223 c -8.938,0 -16.208,5.414 -16.208,12.068 l 0.642,0 c 0,-6.3 6.984,-11.426 15.566,-11.426 8.582,0 15.564,5.126 15.564,11.426 l 0.644,0 c 0,-6.654 -7.271,-12.068 -16.208,-12.068"
           id="path124"
           style="fill:#4f4c4d;fill-opacity:1;fill-rule:nonzero;stroke:none" /><path
           d="m 186.67,70.223 c -17.901,0 -32.464,5.414 -32.464,12.068 l 0.643,0 c 0,-6.3 14.275,-11.426 31.821,-11.426 17.544,0 31.819,5.126 31.819,11.426 l 0.643,0 c 0,-6.654 -14.563,-12.068 -32.462,-12.068"
           id="path126"
           style="fill:#4f4c4d;fill-opacity:1;fill-rule:nonzero;stroke:none" /><path
           d="m 171.394,73.264 c -9.571,0 -17.354,4.05 -17.354,9.027 l 0.643,0 c 0,-4.623 7.497,-8.385 16.711,-8.385 9.212,0 16.71,3.762 16.71,8.385 l 0.642,0 c 0,-4.977 -7.783,-9.027 -17.352,-9.027"
           id="path128"
           style="fill:#4f4c4d;fill-opacity:1;fill-rule:nonzero;stroke:none" /><path
           d="m 139.675,70.223 c -8.191,0 -14.853,5.414 -14.853,12.068 l 0.644,0 c 0,-6.3 6.375,-11.426 14.209,-11.426 7.834,0 14.209,5.126 14.209,11.426 l 0.642,0 c 0,-6.654 -6.662,-12.068 -14.851,-12.068"
           id="path130"
           style="fill:#4f4c4d;fill-opacity:1;fill-rule:nonzero;stroke:none" /><path
           d="m 108.319,70.223 c -8.938,0 -16.209,5.414 -16.209,12.068 l 0.643,0 c 0,-6.3 6.983,-11.426 15.566,-11.426 l 0,-0.642"
           id="path132"
           style="fill:#4f4c4d;fill-opacity:1;fill-rule:nonzero;stroke:none" /><path
           d="m 33.516,106.679 -13.304,0 c -1.47,0 -2.664,-1.191 -2.664,-2.66 l 0,-20.406 c 0,-1.469 1.194,-2.661 2.664,-2.661 l 16.856,0 c 1.466,0 2.661,1.192 2.661,2.661 l 0,16.857 -6.213,6.209"
           id="path134"
           style="fill:#ffffff;fill-opacity:1;fill-rule:nonzero;stroke:none" /><path
           d="m 20.212,106.333 c -1.279,0 -2.318,-1.038 -2.318,-2.314 l 0,-20.406 c 0,-1.275 1.039,-2.313 2.318,-2.313 l 16.856,0 c 1.275,0 2.313,1.038 2.313,2.313 l 0,16.713 -6.004,6.007 -13.165,0 z m 16.856,-25.727 -16.856,0 c -1.66,0 -3.008,1.348 -3.008,3.007 l 0,20.406 c 0,1.656 1.348,3.007 3.008,3.007 l 13.304,0 c 0.095,0 0.182,-0.039 0.247,-0.102 l 6.213,-6.21 c 0.064,-0.065 0.1,-0.152 0.1,-0.244 l 0,-16.857 c 0,-1.659 -1.348,-3.007 -3.008,-3.007"
           id="path136"
           style="fill:#4f4c4d;fill-opacity:1;fill-rule:nonzero;stroke:none" /><path
           d="m 38.064,99.58 -4.548,0 c -0.487,0 -0.886,0.398 -0.886,0.889 l 0,4.826"
           id="path138"
           style="fill:#ffffff;fill-opacity:1;fill-rule:nonzero;stroke:none" /><path
           d="m 38.064,99.234 -4.548,0 c -0.679,0 -1.233,0.554 -1.233,1.235 l 0,4.826 c 0,0.188 0.155,0.344 0.347,0.344 0.192,0 0.347,-0.156 0.347,-0.344 l 0,-4.826 c 0,-0.298 0.245,-0.542 0.539,-0.542 l 4.548,0 c 0.192,0 0.346,-0.156 0.346,-0.347 0,-0.191 -0.154,-0.346 -0.346,-0.346"
           id="path140"
           style="fill:#4f4c4d;fill-opacity:1;fill-rule:nonzero;stroke:none" /><path
           d="m 27.026,102.49 -6.667,0 c -0.194,0 -0.347,0.155 -0.347,0.345 0,0.192 0.153,0.348 0.347,0.348 l 6.667,0 c 0.193,0 0.345,-0.156 0.345,-0.348 0,-0.19 -0.152,-0.345 -0.345,-0.345"
           id="path142"
           style="fill:#918f90;fill-opacity:1;fill-rule:nonzero;stroke:none" /><path
           d="m 27.026,99.827 -6.667,0 c -0.194,0 -0.347,0.155 -0.347,0.346 0,0.192 0.153,0.348 0.347,0.348 l 6.667,0 c 0.193,0 0.345,-0.156 0.345,-0.348 0,-0.191 -0.152,-0.346 -0.345,-0.346"
           id="path144"
           style="fill:#918f90;fill-opacity:1;fill-rule:nonzero;stroke:none" /><path
           d="m 27.026,97.166 -6.667,0 c -0.194,0 -0.347,0.155 -0.347,0.347 0,0.192 0.153,0.345 0.347,0.345 l 6.667,0 c 0.193,0 0.345,-0.153 0.345,-0.345 0,-0.192 -0.152,-0.347 -0.345,-0.347"
           id="path146"
           style="fill:#918f90;fill-opacity:1;fill-rule:nonzero;stroke:none" /><path
           d="m 27.026,94.505 -6.667,0 c -0.194,0 -0.347,0.155 -0.347,0.348 0,0.19 0.153,0.345 0.347,0.345 l 6.667,0 c 0.193,0 0.345,-0.155 0.345,-0.345 0,-0.193 -0.152,-0.348 -0.345,-0.348"
           id="path148"
           style="fill:#918f90;fill-opacity:1;fill-rule:nonzero;stroke:none" /><path
           d="m 27.026,91.843 -6.667,0 c -0.194,0 -0.347,0.154 -0.347,0.346 0,0.192 0.153,0.347 0.347,0.347 l 6.667,0 c 0.193,0 0.345,-0.155 0.345,-0.347 0,-0.192 -0.152,-0.346 -0.345,-0.346"
           id="path150"
           style="fill:#918f90;fill-opacity:1;fill-rule:nonzero;stroke:none" /><path
           d="m 27.026,89.18 -6.667,0 c -0.194,0 -0.347,0.156 -0.347,0.346 0,0.193 0.153,0.348 0.347,0.348 l 6.667,0 c 0.193,0 0.345,-0.155 0.345,-0.348 0,-0.19 -0.152,-0.346 -0.345,-0.346"
           id="path152"
           style="fill:#918f90;fill-opacity:1;fill-rule:nonzero;stroke:none" /><path
           d="m 27.026,86.519 -6.667,0 c -0.194,0 -0.347,0.155 -0.347,0.348 0,0.191 0.153,0.345 0.347,0.345 l 6.667,0 c 0.193,0 0.345,-0.154 0.345,-0.345 0,-0.193 -0.152,-0.348 -0.345,-0.348"
           id="path154"
           style="fill:#918f90;fill-opacity:1;fill-rule:nonzero;stroke:none" /><path
           d="m 27.026,83.857 -6.667,0 c -0.194,0 -0.347,0.155 -0.347,0.348 0,0.19 0.153,0.344 0.347,0.344 l 6.667,0 c 0.193,0 0.345,-0.154 0.345,-0.344 0,-0.193 -0.152,-0.348 -0.345,-0.348"
           id="path156"
           style="fill:#918f90;fill-opacity:1;fill-rule:nonzero;stroke:none" /><path
           d="m 37.176,94.505 -6.665,0 c -0.193,0 -0.347,0.155 -0.347,0.348 0,0.19 0.154,0.345 0.347,0.345 l 6.665,0 c 0.191,0 0.349,-0.155 0.349,-0.345 0,-0.193 -0.158,-0.348 -0.349,-0.348"
           id="path158"
           style="fill:#918f90;fill-opacity:1;fill-rule:nonzero;stroke:none" /><path
           d="m 37.176,91.843 -6.665,0 c -0.193,0 -0.347,0.154 -0.347,0.346 0,0.192 0.154,0.347 0.347,0.347 l 6.665,0 c 0.191,0 0.349,-0.155 0.349,-0.347 0,-0.192 -0.158,-0.346 -0.349,-0.346"
           id="path160"
           style="fill:#918f90;fill-opacity:1;fill-rule:nonzero;stroke:none" /><path
           d="m 37.176,89.18 -6.665,0 c -0.193,0 -0.347,0.156 -0.347,0.346 0,0.193 0.154,0.348 0.347,0.348 l 6.665,0 c 0.191,0 0.349,-0.155 0.349,-0.348 0,-0.19 -0.158,-0.346 -0.349,-0.346"
           id="path162"
           style="fill:#918f90;fill-opacity:1;fill-rule:nonzero;stroke:none" /><path
           d="m 37.176,86.519 -6.665,0 c -0.193,0 -0.347,0.155 -0.347,0.348 0,0.191 0.154,0.345 0.347,0.345 l 6.665,0 c 0.191,0 0.349,-0.154 0.349,-0.345 0,-0.193 -0.158,-0.348 -0.349,-0.348"
           id="path164"
           style="fill:#918f90;fill-opacity:1;fill-rule:nonzero;stroke:none" /><path
           d="m 37.176,83.857 -6.665,0 c -0.193,0 -0.347,0.155 -0.347,0.348 0,0.19 0.154,0.344 0.347,0.344 l 6.665,0 c 0.191,0 0.349,-0.154 0.349,-0.344 0,-0.193 -0.158,-0.348 -0.349,-0.348"
           id="path166"
           style="fill:#918f90;fill-opacity:1;fill-rule:nonzero;stroke:none" /><path
           d="m 64.859,106.683 -13.306,0 c -1.473,0 -2.663,-1.194 -2.663,-2.665 l 0,-20.402 c 0,-1.471 1.19,-2.662 2.663,-2.662 l 16.852,0 c 1.473,0 2.663,1.191 2.663,2.662 l 0,16.856 -6.209,6.211"
           id="path168"
           style="fill:#ffffff;fill-opacity:1;fill-rule:nonzero;stroke:none" /><path
           d="m 51.553,106.334 c -1.277,0 -2.316,-1.039 -2.316,-2.316 l 0,-20.402 c 0,-1.276 1.039,-2.317 2.316,-2.317 l 16.852,0 c 1.278,0 2.318,1.041 2.318,2.317 l 0,16.711 -6.006,6.007 -13.164,0 z m 16.852,-25.728 -16.852,0 c -1.659,0 -3.009,1.352 -3.009,3.01 l 0,20.402 c 0,1.66 1.35,3.008 3.009,3.008 l 13.306,0 c 0.092,0 0.181,-0.036 0.246,-0.1 l 6.211,-6.209 c 0.064,-0.066 0.099,-0.153 0.099,-0.245 l 0,-16.856 c 0,-1.658 -1.349,-3.01 -3.01,-3.01"
           id="path170"
           style="fill:#4f4c4d;fill-opacity:1;fill-rule:nonzero;stroke:none" /><path
           d="m 69.407,99.583 -4.548,0 c -0.49,0 -0.885,0.397 -0.885,0.887 l 0,4.824"
           id="path172"
           style="fill:#ffffff;fill-opacity:1;fill-rule:nonzero;stroke:none" /><path
           d="m 69.407,99.235 -4.548,0 c -0.681,0 -1.233,0.554 -1.233,1.235 l 0,4.824 c 0,0.192 0.156,0.348 0.348,0.348 0.189,0 0.345,-0.156 0.345,-0.348 l 0,-4.824 c 0,-0.298 0.242,-0.54 0.54,-0.54 l 4.548,0 c 0.191,0 0.347,-0.156 0.347,-0.347 0,-0.192 -0.156,-0.348 -0.347,-0.348"
           id="path174"
           style="fill:#4f4c4d;fill-opacity:1;fill-rule:nonzero;stroke:none" /><path
           d="m 64.43,92.642 0.345,0 0,-5.436 -0.345,0 0,5.436 z"
           id="path176"
           style="fill:#4f4c4d;fill-opacity:1;fill-rule:nonzero;stroke:none" /><path
           d="m 64.774,92.478 -0.344,0 c 0,3.412 -1.276,4.931 -4.129,4.931 l 0,0.346 c 3.052,0 4.473,-1.677 4.473,-5.277"
           id="path178"
           style="fill:#4f4c4d;fill-opacity:1;fill-rule:nonzero;stroke:none" /><path
           d="m 55.383,92.478 0.348,0 0,-5.437 -0.348,0 0,5.437 z"
           id="path180"
           style="fill:#4f4c4d;fill-opacity:1;fill-rule:nonzero;stroke:none" /><path
           d="m 55.73,92.478 -0.347,0 c 0,3.6 1.423,5.277 4.474,5.277 l 0,-0.346 c -2.854,0 -4.127,-1.519 -4.127,-4.931"
           id="path182"
           style="fill:#4f4c4d;fill-opacity:1;fill-rule:nonzero;stroke:none" /><path
           d="m 61.565,97.582 c 0,-0.941 -0.763,-1.708 -1.708,-1.708 -0.944,0 -1.709,0.767 -1.709,1.708 0,0.943 0.765,1.708 1.709,1.708 0.945,0 1.708,-0.765 1.708,-1.708"
           id="path184"
           style="fill:#3ca3b1;fill-opacity:1;fill-rule:nonzero;stroke:none" /><path
           d="m 56.922,87.039 c 0,-0.942 -0.762,-1.706 -1.706,-1.706 -0.944,0 -1.707,0.764 -1.707,1.706 0,0.942 0.763,1.709 1.707,1.709 0.944,0 1.706,-0.767 1.706,-1.709"
           id="path186"
           style="fill:#3ca3b1;fill-opacity:1;fill-rule:nonzero;stroke:none" /><path
           d="m 58.011,91.7 c 0,-0.269 -0.223,-0.489 -0.493,-0.489 l -3.923,0 c -0.273,0 -0.493,0.22 -0.493,0.489 l 0,1.554 c 0,0.272 0.22,0.492 0.493,0.492 l 3.923,0 c 0.27,0 0.493,-0.22 0.493,-0.492 l 0,-1.554"
           id="path188"
           style="fill:#4f4c4d;fill-opacity:1;fill-rule:nonzero;stroke:none" /><path
           d="m 67.055,91.7 c 0,-0.269 -0.218,-0.489 -0.49,-0.489 l -3.925,0 c -0.273,0 -0.491,0.22 -0.491,0.489 l 0,1.554 c 0,0.272 0.218,0.492 0.491,0.492 l 3.925,0 c 0.272,0 0.49,-0.22 0.49,-0.492 l 0,-1.554"
           id="path190"
           style="fill:#4f4c4d;fill-opacity:1;fill-rule:nonzero;stroke:none" /><path
           d="m 66.309,87.039 c 0,-0.942 -0.764,-1.706 -1.705,-1.706 -0.945,0 -1.708,0.764 -1.708,1.706 0,0.942 0.763,1.709 1.708,1.709 0.941,0 1.705,-0.767 1.705,-1.709"
           id="path192"
           style="fill:#3ca3b1;fill-opacity:1;fill-rule:nonzero;stroke:none" /><path
           d="m 96.199,106.677 -13.308,0 c -1.469,0 -2.661,-1.19 -2.661,-2.66 l 0,-20.406 c 0,-1.467 1.192,-2.658 2.661,-2.658 l 16.856,0 c 1.468,0 2.663,1.191 2.663,2.658 l 0,16.858 -6.211,6.208"
           id="path194"
           style="fill:#ffffff;fill-opacity:1;fill-rule:nonzero;stroke:none" /><path
           d="m 82.891,106.332 c -1.274,0 -2.315,-1.04 -2.315,-2.315 l 0,-20.406 c 0,-1.277 1.041,-2.314 2.315,-2.314 l 16.856,0 c 1.277,0 2.316,1.037 2.316,2.314 l 0,16.715 -6.004,6.006 -13.168,0 z m 16.856,-25.726 -16.856,0 c -1.658,0 -3.006,1.348 -3.006,3.005 l 0,20.406 c 0,1.66 1.348,3.008 3.006,3.008 l 13.308,0 c 0.092,0 0.179,-0.037 0.244,-0.099 l 6.207,-6.213 c 0.07,-0.065 0.102,-0.152 0.102,-0.244 l 0,-16.858 c 0,-1.657 -1.344,-3.005 -3.005,-3.005"
           id="path196"
           style="fill:#4f4c4d;fill-opacity:1;fill-rule:nonzero;stroke:none" /><path
           d="m 100.744,99.581 -4.547,0 c -0.49,0 -0.888,0.395 -0.888,0.888 l 0,4.823"
           id="path198"
           style="fill:#ffffff;fill-opacity:1;fill-rule:nonzero;stroke:none" /><path
           d="m 100.744,99.235 -4.547,0 c -0.68,0 -1.234,0.552 -1.234,1.234 l 0,4.823 c 0,0.191 0.156,0.348 0.346,0.348 0.193,0 0.347,-0.157 0.347,-0.348 l 0,-4.823 c 0,-0.298 0.242,-0.542 0.541,-0.542 l 4.547,0 c 0.19,0 0.346,-0.154 0.346,-0.346 0,-0.192 -0.156,-0.346 -0.346,-0.346"
           id="path200"
           style="fill:#4f4c4d;fill-opacity:1;fill-rule:nonzero;stroke:none" /><path
           d="m 85.247,97.58 0.346,0 0,-13.379 -0.346,0 0,13.379 z"
           id="path202"
           style="fill:#3ca3b1;fill-opacity:1;fill-rule:nonzero;stroke:none" /><path
           d="m 83.571,86.842 16.227,0 0,-0.347 -16.227,0 0,0.347 z"
           id="path204"
           style="fill:#3ca3b1;fill-opacity:1;fill-rule:nonzero;stroke:none" /><path
           d="m 85.549,86.855 -0.26,0.23 2.225,2.519 2.634,2.415 3.452,3.683 4.231,-2.42 -0.17,-0.297 -3.995,2.28 -3.276,-3.493 -2.629,-2.412 -2.212,-2.505"
           id="path206"
           style="fill:#4f4c4d;fill-opacity:1;fill-rule:nonzero;stroke:none" /><path
           d="m 91.758,92.476 c 0,-0.412 -0.337,-0.747 -0.748,-0.747 -0.411,0 -0.746,0.335 -0.746,0.747 0,0.414 0.335,0.745 0.746,0.745 0.411,0 0.748,-0.331 0.748,-0.745"
           id="path208"
           style="fill:#ffffff;fill-opacity:1;fill-rule:nonzero;stroke:none" /><path
           d="m 91.01,93.048 c -0.312,0 -0.571,-0.256 -0.571,-0.572 0,-0.316 0.259,-0.574 0.571,-0.574 0.317,0 0.572,0.258 0.572,0.574 0,0.316 -0.255,0.572 -0.572,0.572 z m 0,-1.493 c -0.507,0 -0.918,0.415 -0.918,0.921 0,0.509 0.411,0.919 0.918,0.919 0.511,0 0.92,-0.41 0.92,-0.919 0,-0.506 -0.409,-0.921 -0.92,-0.921"
           id="path210"
           style="fill:#4f4c4d;fill-opacity:1;fill-rule:nonzero;stroke:none" /><path
           d="m 88.39,89.491 c 0,-0.413 -0.333,-0.745 -0.744,-0.745 -0.414,0 -0.747,0.332 -0.747,0.745 0,0.411 0.333,0.744 0.747,0.744 0.411,0 0.744,-0.333 0.744,-0.744"
           id="path212"
           style="fill:#ffffff;fill-opacity:1;fill-rule:nonzero;stroke:none" /><path
           d="m 87.646,90.062 c -0.318,0 -0.577,-0.253 -0.577,-0.571 0,-0.318 0.259,-0.576 0.577,-0.576 0.313,0 0.569,0.258 0.569,0.576 0,0.318 -0.256,0.571 -0.569,0.571 z m 0,-1.491 c -0.51,0 -0.918,0.411 -0.918,0.92 0,0.505 0.408,0.916 0.918,0.916 0.506,0 0.917,-0.411 0.917,-0.916 0,-0.509 -0.411,-0.92 -0.917,-0.92"
           id="path214"
           style="fill:#4f4c4d;fill-opacity:1;fill-rule:nonzero;stroke:none" /><path
           d="m 94.379,95.484 c 0,-0.412 -0.334,-0.746 -0.746,-0.746 -0.413,0 -0.746,0.334 -0.746,0.746 0,0.414 0.333,0.745 0.746,0.745 0.412,0 0.746,-0.331 0.746,-0.745"
           id="path216"
           style="fill:#ffffff;fill-opacity:1;fill-rule:nonzero;stroke:none" /><path
           d="m 93.633,96.061 c -0.319,0 -0.574,-0.259 -0.574,-0.577 0,-0.313 0.255,-0.572 0.574,-0.572 0.316,0 0.571,0.259 0.571,0.572 0,0.318 -0.255,0.577 -0.571,0.577 z m 0,-1.497 c -0.505,0 -0.92,0.416 -0.92,0.92 0,0.509 0.415,0.918 0.92,0.918 0.509,0 0.919,-0.409 0.919,-0.918 0,-0.504 -0.41,-0.92 -0.919,-0.92"
           id="path218"
           style="fill:#4f4c4d;fill-opacity:1;fill-rule:nonzero;stroke:none" /><path
           d="m 98.492,93.135 c 0,-0.413 -0.335,-0.747 -0.746,-0.747 -0.411,0 -0.747,0.334 -0.747,0.747 0,0.409 0.336,0.745 0.747,0.745 0.411,0 0.746,-0.336 0.746,-0.745"
           id="path220"
           style="fill:#ffffff;fill-opacity:1;fill-rule:nonzero;stroke:none" /><path
           d="m 97.746,93.706 c -0.317,0 -0.571,-0.259 -0.571,-0.571 0,-0.319 0.254,-0.574 0.571,-0.574 0.318,0 0.572,0.255 0.572,0.574 0,0.312 -0.254,0.571 -0.572,0.571 z m 0,-1.492 c -0.507,0 -0.919,0.41 -0.919,0.921 0,0.507 0.412,0.918 0.919,0.918 0.511,0 0.919,-0.411 0.919,-0.918 0,-0.511 -0.408,-0.921 -0.919,-0.921"
           id="path222"
           style="fill:#4f4c4d;fill-opacity:1;fill-rule:nonzero;stroke:none" /><path
           d="m 127.54,106.681 -13.305,0 c -1.473,0 -2.664,-1.193 -2.664,-2.661 l 0,-20.407 c 0,-1.469 1.191,-2.661 2.664,-2.661 l 16.852,0 c 1.474,0 2.664,1.192 2.664,2.661 l 0,16.857 -6.211,6.211"
           id="path224"
           style="fill:#ffffff;fill-opacity:1;fill-rule:nonzero;stroke:none" /><path
           d="m 114.235,106.334 c -1.277,0 -2.318,-1.039 -2.318,-2.314 l 0,-20.407 c 0,-1.275 1.041,-2.313 2.318,-2.313 l 16.852,0 c 1.278,0 2.316,1.038 2.316,2.313 l 0,16.713 -6.005,6.008 -13.163,0 z m 16.852,-25.728 -16.852,0 c -1.662,0 -3.01,1.349 -3.01,3.007 l 0,20.407 c 0,1.657 1.348,3.006 3.01,3.006 l 13.305,0 c 0.092,0 0.178,-0.036 0.247,-0.102 l 6.203,-6.209 c 0.07,-0.066 0.103,-0.153 0.103,-0.245 l 0,-16.857 c 0,-1.658 -1.344,-3.007 -3.006,-3.007"
           id="path226"
           style="fill:#4f4c4d;fill-opacity:1;fill-rule:nonzero;stroke:none" /><path
           d="m 132.087,99.58 -4.549,0 c -0.487,0 -0.89,0.398 -0.89,0.89 l 0,4.825"
           id="path228"
           style="fill:#ffffff;fill-opacity:1;fill-rule:nonzero;stroke:none" /><path
           d="m 132.087,99.234 -4.549,0 c -0.68,0 -1.235,0.554 -1.235,1.236 l 0,4.825 c 0,0.191 0.157,0.345 0.345,0.345 0.195,0 0.348,-0.154 0.348,-0.345 l 0,-4.825 c 0,-0.299 0.241,-0.542 0.542,-0.542 l 4.549,0 c 0.187,0 0.344,-0.157 0.344,-0.348 0,-0.191 -0.157,-0.346 -0.344,-0.346"
           id="path230"
           style="fill:#4f4c4d;fill-opacity:1;fill-rule:nonzero;stroke:none" /><path
           d="m 119.774,90 -3.705,1.861 0,0.255 3.705,2.076 0,-0.645 -2.766,-1.534 0,-0.017 2.766,-1.354 0,-0.642"
           id="path232"
           style="fill:#3ca3b1;fill-opacity:1;fill-rule:nonzero;stroke:none" /><path
           d="m 124.437,95.634 -2.967,-7.207 -0.657,0 2.957,7.207 0.667,0"
           id="path234"
           style="fill:#3ca3b1;fill-opacity:1;fill-rule:nonzero;stroke:none" /><path
           d="M 129.251,91.861 125.544,90 l 0,0.642 2.776,1.343 0,0.028 -2.776,1.534 0,0.645 3.707,-2.076 0,-0.255"
           id="path236"
           style="fill:#3ca3b1;fill-opacity:1;fill-rule:nonzero;stroke:none" /><path
           d="m 158.878,106.677 -13.305,0 c -1.471,0 -2.661,-1.189 -2.661,-2.66 l 0,-20.406 c 0,-1.47 1.19,-2.662 2.661,-2.662 l 16.854,0 c 1.471,0 2.661,1.192 2.661,2.662 l 0,16.858 -6.21,6.208"
           id="path238"
           style="fill:#ffffff;fill-opacity:1;fill-rule:nonzero;stroke:none" /><path
           d="m 145.573,106.332 c -1.276,0 -2.313,-1.039 -2.313,-2.315 l 0,-20.406 c 0,-1.277 1.037,-2.314 2.313,-2.314 l 16.854,0 c 1.28,0 2.314,1.037 2.314,2.314 l 0,16.711 -6.005,6.01 -13.163,0 z m 16.854,-25.726 -16.854,0 c -1.66,0 -3.009,1.345 -3.009,3.005 l 0,20.406 c 0,1.656 1.349,3.008 3.009,3.008 l 13.305,0 c 0.095,0 0.184,-0.04 0.243,-0.104 l 6.213,-6.208 c 0.067,-0.065 0.102,-0.152 0.102,-0.244 l 0,-16.858 c 0,-1.66 -1.348,-3.005 -3.009,-3.005"
           id="path240"
           style="fill:#4f4c4d;fill-opacity:1;fill-rule:nonzero;stroke:none" /><path
           d="m 163.426,99.581 -4.548,0 c -0.489,0 -0.882,0.395 -0.882,0.885 l 0,4.827"
           id="path242"
           style="fill:#ffffff;fill-opacity:1;fill-rule:nonzero;stroke:none" /><path
           d="m 163.426,99.233 -4.548,0 c -0.681,0 -1.232,0.555 -1.232,1.233 l 0,4.827 c 0,0.19 0.156,0.345 0.35,0.345 0.187,0 0.342,-0.155 0.342,-0.345 l 0,-4.827 c 0,-0.298 0.243,-0.541 0.54,-0.541 l 4.548,0 c 0.194,0 0.346,-0.152 0.346,-0.344 0,-0.192 -0.152,-0.348 -0.346,-0.348"
           id="path244"
           style="fill:#4f4c4d;fill-opacity:1;fill-rule:nonzero;stroke:none" /><path
           d="m 156.645,86.489 c -0.146,0 -0.291,0.073 -0.374,0.207 l -2.212,3.533 c -0.126,0.206 -0.066,0.478 0.141,0.606 0.208,0.131 0.479,0.066 0.609,-0.14 l 2.212,-3.53 c 0.125,-0.206 0.065,-0.478 -0.14,-0.606 l -0.236,-0.07"
           id="path246"
           style="fill:#3ca3b1;fill-opacity:1;fill-rule:nonzero;stroke:none" /><path
           d="m 151.786,86.489 -0.228,0.07 c -0.209,0.128 -0.274,0.4 -0.142,0.606 l 2.212,3.53 c 0.128,0.206 0.398,0.271 0.604,0.14 0.209,-0.128 0.272,-0.4 0.142,-0.606 l -2.209,-3.533 c -0.088,-0.134 -0.228,-0.207 -0.379,-0.207"
           id="path248"
           style="fill:#3ca3b1;fill-opacity:1;fill-rule:nonzero;stroke:none" /><path
           d="m 150.245,90.901 7.943,0 0,5.737 -7.943,0 0,-5.737 z m 7.943,-0.881 -7.943,0 c -0.486,0 -0.881,0.397 -0.881,0.881 l 0,5.738 c 0,0.486 0.395,0.882 0.881,0.882 l 7.943,0 c 0.489,0 0.883,-0.396 0.883,-0.882 l 0,-5.738 c 0,-0.484 -0.394,-0.881 -0.883,-0.881"
           id="path250"
           style="fill:#3ca3b1;fill-opacity:1;fill-rule:nonzero;stroke:none" /><path
           d="m 158.63,96.427 c 0,-0.238 -0.189,-0.42 -0.42,-0.42 l -7.984,0 c -0.232,0 -0.418,0.182 -0.418,0.42 l 0,0.205 c 0,0.234 0.186,0.42 0.418,0.42 l 7.984,0 c 0.231,0 0.42,-0.186 0.42,-0.42 l 0,-0.205"
           id="path252"
           style="fill:#3ca3b1;fill-opacity:1;fill-rule:nonzero;stroke:none" /><path
           d="m 158.188,96.632 -7.962,-0.022 0.019,-0.183 7.943,0.017 0,0.188 z m 0.022,-1.068 -7.984,0 c -0.475,0 -0.862,0.382 -0.862,0.863 l 0,0.205 c 0,0.475 0.387,0.863 0.862,0.863 l 7.984,0 c 0.476,0 0.861,-0.388 0.861,-0.863 l 0,-0.205 c 0,-0.481 -0.385,-0.863 -0.861,-0.863"
           id="path254"
           style="fill:#3ca3b1;fill-opacity:1;fill-rule:nonzero;stroke:none" /><path
           d="m 190.221,106.68 -13.312,0 c -1.468,0 -2.661,-1.191 -2.661,-2.662 l 0,-20.404 c 0,-1.469 1.193,-2.661 2.661,-2.661 l 16.858,0 c 1.467,0 2.664,1.192 2.664,2.661 l 0,16.855 -6.21,6.211"
           id="path256"
           style="fill:#ffffff;fill-opacity:1;fill-rule:nonzero;stroke:none" /><path
           d="m 176.909,106.332 c -1.273,0 -2.313,-1.037 -2.313,-2.314 l 0,-20.404 c 0,-1.277 1.04,-2.315 2.313,-2.315 l 16.858,0 c 1.277,0 2.317,1.038 2.317,2.315 l 0,16.712 -6.006,6.006 -13.169,0 z m 16.858,-25.727 -16.858,0 c -1.654,0 -3.004,1.35 -3.004,3.009 l 0,20.404 c 0,1.659 1.35,3.008 3.004,3.008 l 13.312,0 c 0.091,0 0.179,-0.036 0.244,-0.101 l 6.209,-6.211 c 0.062,-0.066 0.1,-0.154 0.1,-0.245 l 0,-16.855 c 0,-1.659 -1.346,-3.009 -3.007,-3.009"
           id="path258"
           style="fill:#4f4c4d;fill-opacity:1;fill-rule:nonzero;stroke:none" /><path
           d="m 194.766,99.581 -4.545,0 c -0.491,0 -0.889,0.397 -0.889,0.888 l 0,4.824"
           id="path260"
           style="fill:#ffffff;fill-opacity:1;fill-rule:nonzero;stroke:none" /><path
           d="m 194.766,99.235 -4.545,0 c -0.682,0 -1.237,0.554 -1.237,1.234 l 0,4.824 c 0,0.192 0.155,0.348 0.348,0.348 0.19,0 0.347,-0.156 0.347,-0.348 l 0,-4.824 c 0,-0.3 0.241,-0.542 0.542,-0.542 l 4.545,0 c 0.19,0 0.345,-0.154 0.345,-0.346 0,-0.19 -0.155,-0.346 -0.345,-0.346"
           id="path262"
           style="fill:#4f4c4d;fill-opacity:1;fill-rule:nonzero;stroke:none" /><path
           d="m 183.727,102.492 -6.667,0 c -0.192,0 -0.349,0.155 -0.349,0.344 0,0.191 0.157,0.348 0.349,0.348 l 6.667,0 c 0.189,0 0.347,-0.157 0.347,-0.348 0,-0.189 -0.158,-0.344 -0.347,-0.344"
           id="path264"
           style="fill:#918f90;fill-opacity:1;fill-rule:nonzero;stroke:none" /><path
           d="m 183.727,91.844 -6.667,0 c -0.192,0 -0.349,0.154 -0.349,0.346 0,0.192 0.157,0.347 0.349,0.347 l 6.667,0 c 0.189,0 0.347,-0.155 0.347,-0.347 0,-0.192 -0.158,-0.346 -0.347,-0.346"
           id="path266"
           style="fill:#918f90;fill-opacity:1;fill-rule:nonzero;stroke:none" /><path
           d="m 183.727,89.181 -6.667,0 c -0.192,0 -0.349,0.155 -0.349,0.346 0,0.193 0.157,0.347 0.349,0.347 l 6.667,0 c 0.189,0 0.347,-0.154 0.347,-0.347 0,-0.191 -0.158,-0.346 -0.347,-0.346"
           id="path268"
           style="fill:#918f90;fill-opacity:1;fill-rule:nonzero;stroke:none" /><path
           d="m 183.727,86.521 -6.667,0 c -0.192,0 -0.349,0.153 -0.349,0.343 0,0.194 0.157,0.349 0.349,0.349 l 6.667,0 c 0.189,0 0.347,-0.155 0.347,-0.349 0,-0.19 -0.158,-0.343 -0.347,-0.343"
           id="path270"
           style="fill:#918f90;fill-opacity:1;fill-rule:nonzero;stroke:none" /><path
           d="m 183.727,83.856 -6.667,0 c -0.192,0 -0.349,0.156 -0.349,0.348 0,0.192 0.157,0.347 0.349,0.347 l 6.667,0 c 0.189,0 0.347,-0.155 0.347,-0.347 0,-0.192 -0.158,-0.348 -0.347,-0.348"
           id="path272"
           style="fill:#918f90;fill-opacity:1;fill-rule:nonzero;stroke:none" /><path
           d="m 183.727,94.703 c 0,-0.489 -0.398,-0.888 -0.889,-0.888 l -4.893,0 c -0.49,0 -0.885,0.399 -0.885,0.888 l 0,5.804 c 0,0.489 0.395,0.888 0.885,0.888 l 4.893,0 c 0.491,0 0.889,-0.399 0.889,-0.888 l 0,-5.804"
           id="path274"
           style="fill:#3ca3b1;fill-opacity:1;fill-rule:nonzero;stroke:none" /><path
           d="m 193.877,94.505 -6.665,0 c -0.193,0 -0.348,0.154 -0.348,0.347 0,0.191 0.155,0.345 0.348,0.345 l 6.665,0 c 0.193,0 0.348,-0.154 0.348,-0.345 0,-0.193 -0.155,-0.347 -0.348,-0.347"
           id="path276"
           style="fill:#918f90;fill-opacity:1;fill-rule:nonzero;stroke:none" /><path
           d="m 193.877,91.844 -6.665,0 c -0.193,0 -0.348,0.154 -0.348,0.346 0,0.192 0.155,0.347 0.348,0.347 l 6.665,0 c 0.193,0 0.348,-0.155 0.348,-0.347 0,-0.192 -0.155,-0.346 -0.348,-0.346"
           id="path278"
           style="fill:#918f90;fill-opacity:1;fill-rule:nonzero;stroke:none" /><path
           d="m 193.877,89.181 -6.665,0 c -0.193,0 -0.348,0.155 -0.348,0.346 0,0.193 0.155,0.347 0.348,0.347 l 6.665,0 c 0.193,0 0.348,-0.154 0.348,-0.347 0,-0.191 -0.155,-0.346 -0.348,-0.346"
           id="path280"
           style="fill:#918f90;fill-opacity:1;fill-rule:nonzero;stroke:none" /><path
           d="m 193.877,86.521 -6.665,0 c -0.193,0 -0.348,0.153 -0.348,0.343 0,0.194 0.155,0.349 0.348,0.349 l 6.665,0 c 0.193,0 0.348,-0.155 0.348,-0.349 0,-0.19 -0.155,-0.343 -0.348,-0.343"
           id="path282"
           style="fill:#918f90;fill-opacity:1;fill-rule:nonzero;stroke:none" /><path
           d="m 193.877,83.856 -6.665,0 c -0.193,0 -0.348,0.156 -0.348,0.348 0,0.192 0.155,0.347 0.348,0.347 l 6.665,0 c 0.193,0 0.348,-0.155 0.348,-0.347 0,-0.192 -0.155,-0.348 -0.348,-0.348"
           id="path284"
           style="fill:#918f90;fill-opacity:1;fill-rule:nonzero;stroke:none" /><path
           d="m 221.562,106.68 -13.309,0 c -1.472,0 -2.66,-1.192 -2.66,-2.662 l 0,-20.405 c 0,-1.471 1.188,-2.662 2.66,-2.662 l 16.854,0 c 1.472,0 2.663,1.191 2.663,2.662 l 0,16.857 -6.208,6.21"
           id="path286"
           style="fill:#ffffff;fill-opacity:1;fill-rule:nonzero;stroke:none" /><path
           d="m 208.253,106.334 c -1.274,0 -2.316,-1.041 -2.316,-2.316 l 0,-20.405 c 0,-1.274 1.042,-2.314 2.316,-2.314 l 16.854,0 c 1.279,0 2.314,1.04 2.314,2.314 l 0,16.711 -6.004,6.01 -13.164,0 z m 16.854,-25.727 -16.854,0 c -1.659,0 -3.008,1.348 -3.008,3.006 l 0,20.405 c 0,1.66 1.349,3.007 3.008,3.007 l 13.309,0 c 0.09,0 0.178,-0.037 0.246,-0.101 l 6.205,-6.209 c 0.067,-0.067 0.101,-0.153 0.101,-0.245 l 0,-16.857 c 0,-1.658 -1.346,-3.006 -3.007,-3.006"
           id="path288"
           style="fill:#4f4c4d;fill-opacity:1;fill-rule:nonzero;stroke:none" /><path
           d="m 207.888,104.194 c -0.234,0 -0.353,-0.236 -0.353,-0.711 0,-0.446 0.117,-0.669 0.346,-0.669 0.226,0 0.34,0.228 0.34,0.678 0,0.468 -0.114,0.702 -0.333,0.702 z m -0.027,-1.537 c -0.162,0 -0.29,0.071 -0.381,0.21 -0.09,0.137 -0.136,0.34 -0.136,0.605 0,0.292 0.048,0.51 0.143,0.661 0.096,0.146 0.234,0.222 0.412,0.222 0.343,0 0.515,-0.282 0.515,-0.844 0,-0.277 -0.048,-0.49 -0.146,-0.636 -0.098,-0.145 -0.233,-0.218 -0.407,-0.218"
           id="path290"
           style="fill:#3ca3b1;fill-opacity:1;fill-rule:nonzero;stroke:none" /><path
           d="m 209.64,102.685 -0.927,0 0,0.166 0.37,0 0,1.273 -0.38,-0.112 0,0.178 0.568,0.173 0,-1.512 0.369,0 0,-0.166"
           id="path292"
           style="fill:#3ca3b1;fill-opacity:1;fill-rule:nonzero;stroke:none" /><path
           d="m 210.906,102.685 -0.931,0 0,0.166 0.376,0 0,1.273 -0.382,-0.112 0,0.178 0.564,0.173 0,-1.512 0.373,0 0,-0.166"
           id="path294"
           style="fill:#3ca3b1;fill-opacity:1;fill-rule:nonzero;stroke:none" /><path
           d="m 212.171,102.685 -0.931,0 0,0.166 0.371,0 0,1.273 -0.38,-0.112 0,0.178 0.571,0.173 0,-1.512 0.369,0 0,-0.166"
           id="path296"
           style="fill:#3ca3b1;fill-opacity:1;fill-rule:nonzero;stroke:none" /><path
           d="m 212.947,104.194 c -0.236,0 -0.35,-0.236 -0.35,-0.711 0,-0.446 0.113,-0.669 0.342,-0.669 0.23,0 0.341,0.228 0.341,0.678 0,0.468 -0.111,0.702 -0.333,0.702 z m -0.026,-1.537 c -0.162,0 -0.291,0.071 -0.38,0.21 -0.092,0.137 -0.14,0.34 -0.14,0.605 0,0.292 0.05,0.51 0.145,0.661 0.095,0.146 0.232,0.222 0.412,0.222 0.344,0 0.514,-0.282 0.514,-0.844 0,-0.277 -0.046,-0.49 -0.144,-0.636 -0.1,-0.145 -0.231,-0.218 -0.407,-0.218"
           id="path298"
           style="fill:#3ca3b1;fill-opacity:1;fill-rule:nonzero;stroke:none" /><path
           d="m 214.213,104.194 c -0.234,0 -0.353,-0.236 -0.353,-0.711 0,-0.446 0.114,-0.669 0.344,-0.669 0.227,0 0.342,0.228 0.342,0.678 0,0.468 -0.113,0.702 -0.333,0.702 z m -0.027,-1.537 c -0.163,0 -0.289,0.071 -0.381,0.21 -0.092,0.137 -0.134,0.34 -0.134,0.605 0,0.292 0.044,0.51 0.141,0.661 0.092,0.146 0.232,0.222 0.412,0.222 0.341,0 0.513,-0.282 0.513,-0.844 0,-0.277 -0.049,-0.49 -0.145,-0.636 -0.097,-0.145 -0.232,-0.218 -0.406,-0.218"
           id="path300"
           style="fill:#3ca3b1;fill-opacity:1;fill-rule:nonzero;stroke:none" /><path
           d="m 215.964,102.685 -0.927,0 0,0.166 0.371,0 0,1.273 -0.382,-0.112 0,0.178 0.57,0.173 0,-1.512 0.368,0 0,-0.166"
           id="path302"
           style="fill:#3ca3b1;fill-opacity:1;fill-rule:nonzero;stroke:none" /><path
           d="m 216.741,104.194 c -0.234,0 -0.35,-0.236 -0.35,-0.711 0,-0.446 0.114,-0.669 0.344,-0.669 0.226,0 0.339,0.228 0.339,0.678 0,0.468 -0.111,0.702 -0.333,0.702 z m -0.023,-1.537 c -0.165,0 -0.293,0.071 -0.385,0.21 -0.089,0.137 -0.135,0.34 -0.135,0.605 0,0.292 0.048,0.51 0.144,0.661 0.093,0.146 0.23,0.222 0.409,0.222 0.345,0 0.515,-0.282 0.515,-0.844 0,-0.277 -0.045,-0.49 -0.144,-0.636 -0.098,-0.145 -0.231,-0.218 -0.404,-0.218"
           id="path304"
           style="fill:#3ca3b1;fill-opacity:1;fill-rule:nonzero;stroke:none" /><path
           d="m 218.006,104.194 c -0.235,0 -0.351,-0.236 -0.351,-0.711 0,-0.446 0.115,-0.669 0.346,-0.669 0.226,0 0.341,0.228 0.341,0.678 0,0.468 -0.113,0.702 -0.336,0.702 z m -0.025,-1.537 c -0.165,0 -0.291,0.071 -0.382,0.21 -0.09,0.137 -0.138,0.34 -0.138,0.605 0,0.292 0.049,0.51 0.143,0.661 0.095,0.146 0.234,0.222 0.413,0.222 0.342,0 0.514,-0.282 0.514,-0.844 0,-0.277 -0.047,-0.49 -0.143,-0.636 -0.097,-0.145 -0.233,-0.218 -0.407,-0.218"
           id="path306"
           style="fill:#3ca3b1;fill-opacity:1;fill-rule:nonzero;stroke:none" /><path
           d="m 219.76,102.685 -0.928,0 0,0.166 0.369,0 0,1.273 -0.379,-0.112 0,0.178 0.567,0.173 0,-1.512 0.371,0 0,-0.166"
           id="path308"
           style="fill:#3ca3b1;fill-opacity:1;fill-rule:nonzero;stroke:none" /><path
           d="m 221.023,102.685 -0.927,0 0,0.166 0.373,0 0,1.273 -0.383,-0.112 0,0.178 0.569,0.173 0,-1.512 0.368,0 0,-0.166"
           id="path310"
           style="fill:#3ca3b1;fill-opacity:1;fill-rule:nonzero;stroke:none" /><path
           d="m 208.375,99.869 -0.929,0 0,0.165 0.373,0 0,1.278 -0.381,-0.116 0,0.179 0.568,0.173 0,-1.514 0.369,0 0,-0.165"
           id="path312"
           style="fill:#3ca3b1;fill-opacity:1;fill-rule:nonzero;stroke:none" /><path
           d="m 209.152,101.38 c -0.234,0 -0.352,-0.237 -0.352,-0.712 0,-0.445 0.116,-0.666 0.346,-0.666 0.227,0 0.34,0.225 0.34,0.678 0,0.466 -0.113,0.7 -0.334,0.7 z m -0.025,-1.538 c -0.163,0 -0.292,0.07 -0.383,0.21 -0.091,0.137 -0.138,0.34 -0.138,0.604 0,0.292 0.049,0.513 0.144,0.66 0.096,0.151 0.235,0.223 0.413,0.223 0.345,0 0.516,-0.278 0.516,-0.842 0,-0.276 -0.048,-0.489 -0.148,-0.637 -0.095,-0.146 -0.232,-0.218 -0.404,-0.218"
           id="path314"
           style="fill:#3ca3b1;fill-opacity:1;fill-rule:nonzero;stroke:none" /><path
           d="m 210.906,99.869 -0.931,0 0,0.165 0.376,0 0,1.278 -0.382,-0.116 0,0.179 0.564,0.173 0,-1.514 0.373,0 0,-0.165"
           id="path316"
           style="fill:#3ca3b1;fill-opacity:1;fill-rule:nonzero;stroke:none" /><path
           d="m 212.171,99.869 -0.931,0 0,0.165 0.371,0 0,1.278 -0.38,-0.116 0,0.179 0.571,0.173 0,-1.514 0.369,0 0,-0.165"
           id="path318"
           style="fill:#3ca3b1;fill-opacity:1;fill-rule:nonzero;stroke:none" /><path
           d="m 213.435,99.869 -0.93,0 0,0.165 0.372,0 0,1.278 -0.38,-0.116 0,0.179 0.567,0.173 0,-1.514 0.371,0 0,-0.165"
           id="path320"
           style="fill:#3ca3b1;fill-opacity:1;fill-rule:nonzero;stroke:none" /><path
           d="m 214.213,101.38 c -0.234,0 -0.353,-0.237 -0.353,-0.712 0,-0.445 0.114,-0.666 0.344,-0.666 0.227,0 0.342,0.225 0.342,0.678 0,0.466 -0.113,0.7 -0.333,0.7 z m -0.027,-1.538 c -0.163,0 -0.289,0.07 -0.381,0.21 -0.092,0.137 -0.134,0.34 -0.134,0.604 0,0.292 0.044,0.513 0.141,0.66 0.092,0.151 0.232,0.223 0.412,0.223 0.341,0 0.513,-0.278 0.513,-0.842 0,-0.276 -0.049,-0.489 -0.145,-0.637 -0.097,-0.146 -0.232,-0.218 -0.406,-0.218"
           id="path322"
           style="fill:#3ca3b1;fill-opacity:1;fill-rule:nonzero;stroke:none" /><path
           d="m 215.478,101.38 c -0.235,0 -0.352,-0.237 -0.352,-0.712 0,-0.445 0.113,-0.666 0.344,-0.666 0.23,0 0.341,0.225 0.341,0.678 0,0.466 -0.111,0.7 -0.333,0.7 z m -0.028,-1.538 c -0.163,0 -0.289,0.07 -0.38,0.21 -0.091,0.137 -0.139,0.34 -0.139,0.604 0,0.292 0.049,0.513 0.145,0.66 0.093,0.151 0.231,0.223 0.411,0.223 0.343,0 0.516,-0.278 0.516,-0.842 0,-0.276 -0.049,-0.489 -0.146,-0.637 -0.096,-0.146 -0.232,-0.218 -0.407,-0.218"
           id="path324"
           style="fill:#3ca3b1;fill-opacity:1;fill-rule:nonzero;stroke:none" /><path
           d="m 217.229,99.869 -0.928,0 0,0.165 0.372,0 0,1.278 -0.379,-0.116 0,0.179 0.567,0.173 0,-1.514 0.368,0 0,-0.165"
           id="path326"
           style="fill:#3ca3b1;fill-opacity:1;fill-rule:nonzero;stroke:none" /><path
           d="m 218.494,99.869 -0.931,0 0,0.165 0.374,0 0,1.278 -0.38,-0.116 0,0.179 0.566,0.173 0,-1.514 0.371,0 0,-0.165"
           id="path328"
           style="fill:#3ca3b1;fill-opacity:1;fill-rule:nonzero;stroke:none" /><path
           d="m 219.273,101.38 c -0.237,0 -0.35,-0.237 -0.35,-0.712 0,-0.445 0.112,-0.666 0.342,-0.666 0.226,0 0.339,0.225 0.339,0.678 0,0.466 -0.112,0.7 -0.331,0.7 z m -0.028,-1.538 c -0.161,0 -0.289,0.07 -0.379,0.21 -0.094,0.137 -0.137,0.34 -0.137,0.604 0,0.292 0.045,0.513 0.142,0.66 0.096,0.151 0.232,0.223 0.41,0.223 0.344,0 0.516,-0.278 0.516,-0.842 0,-0.276 -0.048,-0.489 -0.148,-0.637 -0.095,-0.146 -0.23,-0.218 -0.404,-0.218"
           id="path330"
           style="fill:#3ca3b1;fill-opacity:1;fill-rule:nonzero;stroke:none" /><path
           d="m 221.023,99.869 -0.927,0 0,0.165 0.373,0 0,1.278 -0.383,-0.116 0,0.179 0.569,0.173 0,-1.514 0.368,0 0,-0.165"
           id="path332"
           style="fill:#3ca3b1;fill-opacity:1;fill-rule:nonzero;stroke:none" /><path
           d="m 207.888,98.566 c -0.234,0 -0.353,-0.24 -0.353,-0.713 0,-0.444 0.117,-0.668 0.346,-0.668 0.226,0 0.34,0.226 0.34,0.678 0,0.466 -0.114,0.703 -0.333,0.703 z m -0.027,-1.541 c -0.162,0 -0.29,0.072 -0.381,0.209 -0.09,0.141 -0.136,0.343 -0.136,0.61 0,0.287 0.048,0.509 0.143,0.657 0.096,0.15 0.234,0.222 0.412,0.222 0.343,0 0.515,-0.279 0.515,-0.843 0,-0.277 -0.048,-0.488 -0.146,-0.636 -0.098,-0.145 -0.233,-0.219 -0.407,-0.219"
           id="path334"
           style="fill:#3ca3b1;fill-opacity:1;fill-rule:nonzero;stroke:none" /><path
           d="m 209.64,97.054 -0.927,0 0,0.164 0.37,0 0,1.277 -0.38,-0.114 0,0.18 0.568,0.172 0,-1.515 0.369,0 0,-0.164"
           id="path336"
           style="fill:#3ca3b1;fill-opacity:1;fill-rule:nonzero;stroke:none" /><path
           d="m 210.419,98.566 c -0.237,0 -0.353,-0.24 -0.353,-0.713 0,-0.444 0.113,-0.668 0.343,-0.668 0.229,0 0.342,0.226 0.342,0.678 0,0.466 -0.11,0.703 -0.332,0.703 z m -0.027,-1.541 c -0.163,0 -0.289,0.072 -0.38,0.209 -0.092,0.141 -0.139,0.343 -0.139,0.61 0,0.287 0.047,0.509 0.141,0.657 0.097,0.15 0.233,0.222 0.414,0.222 0.343,0 0.518,-0.279 0.518,-0.843 0,-0.277 -0.051,-0.488 -0.147,-0.636 -0.098,-0.145 -0.234,-0.219 -0.407,-0.219"
           id="path338"
           style="fill:#3ca3b1;fill-opacity:1;fill-rule:nonzero;stroke:none" /><path
           d="m 212.171,97.054 -0.931,0 0,0.164 0.371,0 0,1.277 -0.38,-0.114 0,0.18 0.571,0.172 0,-1.515 0.369,0 0,-0.164"
           id="path340"
           style="fill:#3ca3b1;fill-opacity:1;fill-rule:nonzero;stroke:none" /><path
           d="m 213.435,97.054 -0.93,0 0,0.164 0.372,0 0,1.277 -0.38,-0.114 0,0.18 0.567,0.172 0,-1.515 0.371,0 0,-0.164"
           id="path342"
           style="fill:#3ca3b1;fill-opacity:1;fill-rule:nonzero;stroke:none" /><path
           d="m 214.213,98.566 c -0.234,0 -0.353,-0.24 -0.353,-0.713 0,-0.444 0.114,-0.668 0.344,-0.668 0.227,0 0.342,0.226 0.342,0.678 0,0.466 -0.113,0.703 -0.333,0.703 z m -0.027,-1.541 c -0.163,0 -0.289,0.072 -0.381,0.209 -0.092,0.141 -0.134,0.343 -0.134,0.61 0,0.287 0.044,0.509 0.141,0.657 0.092,0.15 0.232,0.222 0.412,0.222 0.341,0 0.513,-0.279 0.513,-0.843 0,-0.277 -0.049,-0.488 -0.145,-0.636 -0.097,-0.145 -0.232,-0.219 -0.406,-0.219"
           id="path344"
           style="fill:#3ca3b1;fill-opacity:1;fill-rule:nonzero;stroke:none" /><path
           d="m 215.478,98.566 c -0.235,0 -0.352,-0.24 -0.352,-0.713 0,-0.444 0.113,-0.668 0.344,-0.668 0.23,0 0.341,0.226 0.341,0.678 0,0.466 -0.111,0.703 -0.333,0.703 z m -0.028,-1.541 c -0.163,0 -0.289,0.072 -0.38,0.209 -0.091,0.141 -0.139,0.343 -0.139,0.61 0,0.287 0.049,0.509 0.145,0.657 0.093,0.15 0.231,0.222 0.411,0.222 0.343,0 0.516,-0.279 0.516,-0.843 0,-0.277 -0.049,-0.488 -0.146,-0.636 -0.096,-0.145 -0.232,-0.219 -0.407,-0.219"
           id="path346"
           style="fill:#3ca3b1;fill-opacity:1;fill-rule:nonzero;stroke:none" /><path
           d="m 216.741,98.566 c -0.234,0 -0.35,-0.24 -0.35,-0.713 0,-0.444 0.114,-0.668 0.344,-0.668 0.226,0 0.339,0.226 0.339,0.678 0,0.466 -0.111,0.703 -0.333,0.703 z m -0.023,-1.541 c -0.165,0 -0.293,0.072 -0.385,0.209 -0.089,0.141 -0.135,0.343 -0.135,0.61 0,0.287 0.048,0.509 0.144,0.657 0.093,0.15 0.23,0.222 0.409,0.222 0.345,0 0.515,-0.279 0.515,-0.843 0,-0.277 -0.045,-0.488 -0.144,-0.636 -0.098,-0.145 -0.231,-0.219 -0.404,-0.219"
           id="path348"
           style="fill:#3ca3b1;fill-opacity:1;fill-rule:nonzero;stroke:none" /><path
           d="m 218.006,98.566 c -0.235,0 -0.351,-0.24 -0.351,-0.713 0,-0.444 0.115,-0.668 0.346,-0.668 0.226,0 0.341,0.226 0.341,0.678 0,0.466 -0.113,0.703 -0.336,0.703 z m -0.025,-1.541 c -0.165,0 -0.291,0.072 -0.382,0.209 -0.09,0.141 -0.138,0.343 -0.138,0.61 0,0.287 0.049,0.509 0.143,0.657 0.095,0.15 0.234,0.222 0.413,0.222 0.342,0 0.514,-0.279 0.514,-0.843 0,-0.277 -0.047,-0.488 -0.143,-0.636 -0.097,-0.145 -0.233,-0.219 -0.407,-0.219"
           id="path350"
           style="fill:#3ca3b1;fill-opacity:1;fill-rule:nonzero;stroke:none" /><path
           d="m 219.76,97.054 -0.928,0 0,0.164 0.369,0 0,1.277 -0.379,-0.114 0,0.18 0.567,0.172 0,-1.515 0.371,0 0,-0.164"
           id="path352"
           style="fill:#3ca3b1;fill-opacity:1;fill-rule:nonzero;stroke:none" /><path
           d="m 220.537,98.566 c -0.233,0 -0.35,-0.24 -0.35,-0.713 0,-0.444 0.111,-0.668 0.343,-0.668 0.227,0 0.338,0.226 0.338,0.678 0,0.466 -0.108,0.703 -0.331,0.703 z m -0.028,-1.541 c -0.162,0 -0.286,0.072 -0.379,0.209 -0.092,0.141 -0.139,0.343 -0.139,0.61 0,0.287 0.049,0.509 0.143,0.657 0.094,0.15 0.232,0.222 0.413,0.222 0.344,0 0.516,-0.279 0.516,-0.843 0,-0.277 -0.05,-0.488 -0.146,-0.636 -0.096,-0.145 -0.234,-0.219 -0.408,-0.219"
           id="path354"
           style="fill:#3ca3b1;fill-opacity:1;fill-rule:nonzero;stroke:none" /><path
           d="m 222.289,97.054 -0.929,0 0,0.164 0.369,0 0,1.277 -0.377,-0.114 0,0.18 0.567,0.172 0,-1.515 0.37,0 0,-0.164"
           id="path356"
           style="fill:#3ca3b1;fill-opacity:1;fill-rule:nonzero;stroke:none" /><path
           d="m 223.555,97.054 -0.931,0 0,0.164 0.374,0 0,1.277 -0.383,-0.114 0,0.18 0.569,0.172 0,-1.515 0.371,0 0,-0.164"
           id="path358"
           style="fill:#3ca3b1;fill-opacity:1;fill-rule:nonzero;stroke:none" /><path
           d="m 224.82,97.054 -0.93,0 0,0.164 0.371,0 0,1.277 -0.38,-0.114 0,0.18 0.569,0.172 0,-1.515 0.37,0 0,-0.164"
           id="path360"
           style="fill:#3ca3b1;fill-opacity:1;fill-rule:nonzero;stroke:none" /><path
           d="m 225.595,98.566 c -0.233,0 -0.351,-0.24 -0.351,-0.713 0,-0.444 0.116,-0.668 0.346,-0.668 0.226,0 0.338,0.226 0.338,0.678 0,0.466 -0.108,0.703 -0.333,0.703 z m -0.027,-1.541 c -0.161,0 -0.288,0.072 -0.38,0.209 -0.091,0.141 -0.137,0.343 -0.137,0.61 0,0.287 0.048,0.509 0.142,0.657 0.095,0.15 0.232,0.222 0.414,0.222 0.342,0 0.514,-0.279 0.514,-0.843 0,-0.277 -0.051,-0.488 -0.145,-0.636 -0.097,-0.145 -0.234,-0.219 -0.408,-0.219"
           id="path362"
           style="fill:#3ca3b1;fill-opacity:1;fill-rule:nonzero;stroke:none" /><path
           d="m 207.888,95.749 c -0.234,0 -0.353,-0.238 -0.353,-0.714 0,-0.443 0.117,-0.664 0.346,-0.664 0.226,0 0.34,0.223 0.34,0.677 0,0.467 -0.114,0.701 -0.333,0.701 z m -0.027,-1.54 c -0.162,0 -0.29,0.071 -0.381,0.212 -0.09,0.139 -0.136,0.339 -0.136,0.606 0,0.289 0.048,0.51 0.143,0.658 0.096,0.149 0.234,0.222 0.412,0.222 0.343,0 0.515,-0.278 0.515,-0.841 0,-0.278 -0.048,-0.49 -0.146,-0.635 -0.098,-0.148 -0.233,-0.222 -0.407,-0.222"
           id="path364"
           style="fill:#3ca3b1;fill-opacity:1;fill-rule:nonzero;stroke:none" /><path
           d="m 209.64,94.238 -0.927,0 0,0.164 0.37,0 0,1.279 -0.38,-0.116 0,0.178 0.568,0.174 0,-1.515 0.369,0 0,-0.164"
           id="path366"
           style="fill:#3ca3b1;fill-opacity:1;fill-rule:nonzero;stroke:none" /><path
           d="m 210.419,95.749 c -0.237,0 -0.353,-0.238 -0.353,-0.714 0,-0.443 0.113,-0.664 0.343,-0.664 0.229,0 0.342,0.223 0.342,0.677 0,0.467 -0.11,0.701 -0.332,0.701 z m -0.027,-1.54 c -0.163,0 -0.289,0.071 -0.38,0.212 -0.092,0.139 -0.139,0.339 -0.139,0.606 0,0.289 0.047,0.51 0.141,0.658 0.097,0.149 0.233,0.222 0.414,0.222 0.343,0 0.518,-0.278 0.518,-0.841 0,-0.278 -0.051,-0.49 -0.147,-0.635 -0.098,-0.148 -0.234,-0.222 -0.407,-0.222"
           id="path368"
           style="fill:#3ca3b1;fill-opacity:1;fill-rule:nonzero;stroke:none" /><path
           d="m 211.682,95.749 c -0.233,0 -0.351,-0.238 -0.351,-0.714 0,-0.443 0.116,-0.664 0.344,-0.664 0.23,0 0.342,0.223 0.342,0.677 0,0.467 -0.112,0.701 -0.335,0.701 z m -0.025,-1.54 c -0.164,0 -0.29,0.071 -0.382,0.212 -0.091,0.139 -0.136,0.339 -0.136,0.606 0,0.289 0.048,0.51 0.14,0.658 0.098,0.149 0.234,0.222 0.414,0.222 0.343,0 0.515,-0.278 0.515,-0.841 0,-0.278 -0.05,-0.49 -0.145,-0.635 -0.098,-0.148 -0.232,-0.222 -0.406,-0.222"
           id="path370"
           style="fill:#3ca3b1;fill-opacity:1;fill-rule:nonzero;stroke:none" /><path
           d="m 213.435,94.238 -0.93,0 0,0.164 0.372,0 0,1.279 -0.38,-0.116 0,0.178 0.567,0.174 0,-1.515 0.371,0 0,-0.164"
           id="path372"
           style="fill:#3ca3b1;fill-opacity:1;fill-rule:nonzero;stroke:none" /><path
           d="m 214.7,94.238 -0.929,0 0,0.164 0.372,0 0,1.279 -0.378,-0.116 0,0.178 0.565,0.174 0,-1.515 0.37,0 0,-0.164"
           id="path374"
           style="fill:#3ca3b1;fill-opacity:1;fill-rule:nonzero;stroke:none" /><path
           d="m 215.478,95.749 c -0.235,0 -0.352,-0.238 -0.352,-0.714 0,-0.443 0.113,-0.664 0.344,-0.664 0.23,0 0.341,0.223 0.341,0.677 0,0.467 -0.111,0.701 -0.333,0.701 z m -0.028,-1.54 c -0.163,0 -0.289,0.071 -0.38,0.212 -0.091,0.139 -0.139,0.339 -0.139,0.606 0,0.289 0.049,0.51 0.145,0.658 0.093,0.149 0.231,0.222 0.411,0.222 0.343,0 0.516,-0.278 0.516,-0.841 0,-0.278 -0.049,-0.49 -0.146,-0.635 -0.096,-0.148 -0.232,-0.222 -0.407,-0.222"
           id="path376"
           style="fill:#3ca3b1;fill-opacity:1;fill-rule:nonzero;stroke:none" /><path
           d="m 216.741,95.749 c -0.234,0 -0.35,-0.238 -0.35,-0.714 0,-0.443 0.114,-0.664 0.344,-0.664 0.226,0 0.339,0.223 0.339,0.677 0,0.467 -0.111,0.701 -0.333,0.701 z m -0.023,-1.54 c -0.165,0 -0.293,0.071 -0.385,0.212 -0.089,0.139 -0.135,0.339 -0.135,0.606 0,0.289 0.048,0.51 0.144,0.658 0.093,0.149 0.23,0.222 0.409,0.222 0.345,0 0.515,-0.278 0.515,-0.841 0,-0.278 -0.045,-0.49 -0.144,-0.635 -0.098,-0.148 -0.231,-0.222 -0.404,-0.222"
           id="path378"
           style="fill:#3ca3b1;fill-opacity:1;fill-rule:nonzero;stroke:none" /><path
           d="m 218.006,95.749 c -0.235,0 -0.351,-0.238 -0.351,-0.714 0,-0.443 0.115,-0.664 0.346,-0.664 0.226,0 0.341,0.223 0.341,0.677 0,0.467 -0.113,0.701 -0.336,0.701 z m -0.025,-1.54 c -0.165,0 -0.291,0.071 -0.382,0.212 -0.09,0.139 -0.138,0.339 -0.138,0.606 0,0.289 0.049,0.51 0.143,0.658 0.095,0.149 0.234,0.222 0.413,0.222 0.342,0 0.514,-0.278 0.514,-0.841 0,-0.278 -0.047,-0.49 -0.143,-0.635 -0.097,-0.148 -0.233,-0.222 -0.407,-0.222"
           id="path380"
           style="fill:#3ca3b1;fill-opacity:1;fill-rule:nonzero;stroke:none" /><path
           d="m 219.76,94.238 -0.928,0 0,0.164 0.369,0 0,1.279 -0.379,-0.116 0,0.178 0.567,0.174 0,-1.515 0.371,0 0,-0.164"
           id="path382"
           style="fill:#3ca3b1;fill-opacity:1;fill-rule:nonzero;stroke:none" /><path
           d="m 221.023,94.238 -0.927,0 0,0.164 0.373,0 0,1.279 -0.383,-0.116 0,0.178 0.569,0.174 0,-1.515 0.368,0 0,-0.164"
           id="path384"
           style="fill:#3ca3b1;fill-opacity:1;fill-rule:nonzero;stroke:none" /><path
           d="m 221.802,95.749 c -0.236,0 -0.353,-0.238 -0.353,-0.714 0,-0.443 0.116,-0.664 0.347,-0.664 0.225,0 0.339,0.223 0.339,0.677 0,0.467 -0.113,0.701 -0.333,0.701 z m -0.027,-1.54 c -0.163,0 -0.291,0.071 -0.38,0.212 -0.09,0.139 -0.138,0.339 -0.138,0.606 0,0.289 0.049,0.51 0.144,0.658 0.095,0.149 0.232,0.222 0.41,0.222 0.344,0 0.513,-0.278 0.513,-0.841 0,-0.278 -0.048,-0.49 -0.144,-0.635 -0.097,-0.148 -0.232,-0.222 -0.405,-0.222"
           id="path386"
           style="fill:#3ca3b1;fill-opacity:1;fill-rule:nonzero;stroke:none" /><path
           d="m 223.555,94.238 -0.931,0 0,0.164 0.374,0 0,1.279 -0.383,-0.116 0,0.178 0.569,0.174 0,-1.515 0.371,0 0,-0.164"
           id="path388"
           style="fill:#3ca3b1;fill-opacity:1;fill-rule:nonzero;stroke:none" /><path
           d="m 224.82,94.238 -0.93,0 0,0.164 0.371,0 0,1.279 -0.38,-0.116 0,0.178 0.569,0.174 0,-1.515 0.37,0 0,-0.164"
           id="path390"
           style="fill:#3ca3b1;fill-opacity:1;fill-rule:nonzero;stroke:none" /><path
           d="m 225.595,95.749 c -0.233,0 -0.351,-0.238 -0.351,-0.714 0,-0.443 0.116,-0.664 0.346,-0.664 0.226,0 0.338,0.223 0.338,0.677 0,0.467 -0.108,0.701 -0.333,0.701 z m -0.027,-1.54 c -0.161,0 -0.288,0.071 -0.38,0.212 -0.091,0.139 -0.137,0.339 -0.137,0.606 0,0.289 0.048,0.51 0.142,0.658 0.095,0.149 0.232,0.222 0.414,0.222 0.342,0 0.514,-0.278 0.514,-0.841 0,-0.278 -0.051,-0.49 -0.145,-0.635 -0.097,-0.148 -0.234,-0.222 -0.408,-0.222"
           id="path392"
           style="fill:#3ca3b1;fill-opacity:1;fill-rule:nonzero;stroke:none" /><path
           d="m 208.375,91.423 -0.929,0 0,0.162 0.373,0 0,1.279 -0.381,-0.114 0,0.182 0.568,0.17 0,-1.517 0.369,0 0,-0.162"
           id="path394"
           style="fill:#3ca3b1;fill-opacity:1;fill-rule:nonzero;stroke:none" /><path
           d="m 209.152,92.935 c -0.234,0 -0.352,-0.241 -0.352,-0.715 0,-0.444 0.116,-0.666 0.346,-0.666 0.227,0 0.34,0.225 0.34,0.677 0,0.47 -0.113,0.704 -0.334,0.704 z m -0.025,-1.54 c -0.163,0 -0.292,0.069 -0.383,0.209 -0.091,0.14 -0.138,0.343 -0.138,0.608 0,0.289 0.049,0.508 0.144,0.657 0.096,0.15 0.235,0.225 0.413,0.225 0.345,0 0.516,-0.282 0.516,-0.843 0,-0.279 -0.048,-0.49 -0.148,-0.638 -0.095,-0.147 -0.232,-0.218 -0.404,-0.218"
           id="path396"
           style="fill:#3ca3b1;fill-opacity:1;fill-rule:nonzero;stroke:none" /><path
           d="m 210.419,92.935 c -0.237,0 -0.353,-0.241 -0.353,-0.715 0,-0.444 0.113,-0.666 0.343,-0.666 0.229,0 0.342,0.225 0.342,0.677 0,0.47 -0.11,0.704 -0.332,0.704 z m -0.027,-1.54 c -0.163,0 -0.289,0.069 -0.38,0.209 -0.092,0.14 -0.139,0.343 -0.139,0.608 0,0.289 0.047,0.508 0.141,0.657 0.097,0.15 0.233,0.225 0.414,0.225 0.343,0 0.518,-0.282 0.518,-0.843 0,-0.279 -0.051,-0.49 -0.147,-0.638 -0.098,-0.147 -0.234,-0.218 -0.407,-0.218"
           id="path398"
           style="fill:#3ca3b1;fill-opacity:1;fill-rule:nonzero;stroke:none" /><path
           d="m 211.682,92.935 c -0.233,0 -0.351,-0.241 -0.351,-0.715 0,-0.444 0.116,-0.666 0.344,-0.666 0.23,0 0.342,0.225 0.342,0.677 0,0.47 -0.112,0.704 -0.335,0.704 z m -0.025,-1.54 c -0.164,0 -0.29,0.069 -0.382,0.209 -0.091,0.14 -0.136,0.343 -0.136,0.608 0,0.289 0.048,0.508 0.14,0.657 0.098,0.15 0.234,0.225 0.414,0.225 0.343,0 0.515,-0.282 0.515,-0.843 0,-0.279 -0.05,-0.49 -0.145,-0.638 -0.098,-0.147 -0.232,-0.218 -0.406,-0.218"
           id="path400"
           style="fill:#3ca3b1;fill-opacity:1;fill-rule:nonzero;stroke:none" /><path
           d="m 212.947,92.935 c -0.236,0 -0.35,-0.241 -0.35,-0.715 0,-0.444 0.113,-0.666 0.342,-0.666 0.23,0 0.341,0.225 0.341,0.677 0,0.47 -0.111,0.704 -0.333,0.704 z m -0.026,-1.54 c -0.162,0 -0.291,0.069 -0.38,0.209 -0.092,0.14 -0.14,0.343 -0.14,0.608 0,0.289 0.05,0.508 0.145,0.657 0.095,0.15 0.232,0.225 0.412,0.225 0.344,0 0.514,-0.282 0.514,-0.843 0,-0.279 -0.046,-0.49 -0.144,-0.638 -0.1,-0.147 -0.231,-0.218 -0.407,-0.218"
           id="path402"
           style="fill:#3ca3b1;fill-opacity:1;fill-rule:nonzero;stroke:none" /><path
           d="m 214.213,92.935 c -0.234,0 -0.353,-0.241 -0.353,-0.715 0,-0.444 0.114,-0.666 0.344,-0.666 0.227,0 0.342,0.225 0.342,0.677 0,0.47 -0.113,0.704 -0.333,0.704 z m -0.027,-1.54 c -0.163,0 -0.289,0.069 -0.381,0.209 -0.092,0.14 -0.134,0.343 -0.134,0.608 0,0.289 0.044,0.508 0.141,0.657 0.092,0.15 0.232,0.225 0.412,0.225 0.341,0 0.513,-0.282 0.513,-0.843 0,-0.279 -0.049,-0.49 -0.145,-0.638 -0.097,-0.147 -0.232,-0.218 -0.406,-0.218"
           id="path404"
           style="fill:#3ca3b1;fill-opacity:1;fill-rule:nonzero;stroke:none" /><path
           d="m 215.964,91.423 -0.927,0 0,0.162 0.371,0 0,1.279 -0.382,-0.114 0,0.182 0.57,0.17 0,-1.517 0.368,0 0,-0.162"
           id="path406"
           style="fill:#3ca3b1;fill-opacity:1;fill-rule:nonzero;stroke:none" /><path
           d="m 216.741,92.935 c -0.234,0 -0.35,-0.241 -0.35,-0.715 0,-0.444 0.114,-0.666 0.344,-0.666 0.226,0 0.339,0.225 0.339,0.677 0,0.47 -0.111,0.704 -0.333,0.704 z m -0.023,-1.54 c -0.165,0 -0.293,0.069 -0.385,0.209 -0.089,0.14 -0.135,0.343 -0.135,0.608 0,0.289 0.048,0.508 0.144,0.657 0.093,0.15 0.23,0.225 0.409,0.225 0.345,0 0.515,-0.282 0.515,-0.843 0,-0.279 -0.045,-0.49 -0.144,-0.638 -0.098,-0.147 -0.231,-0.218 -0.404,-0.218"
           id="path408"
           style="fill:#3ca3b1;fill-opacity:1;fill-rule:nonzero;stroke:none" /><path
           d="m 218.006,92.935 c -0.235,0 -0.351,-0.241 -0.351,-0.715 0,-0.444 0.115,-0.666 0.346,-0.666 0.226,0 0.341,0.225 0.341,0.677 0,0.47 -0.113,0.704 -0.336,0.704 z m -0.025,-1.54 c -0.165,0 -0.291,0.069 -0.382,0.209 -0.09,0.14 -0.138,0.343 -0.138,0.608 0,0.289 0.049,0.508 0.143,0.657 0.095,0.15 0.234,0.225 0.413,0.225 0.342,0 0.514,-0.282 0.514,-0.843 0,-0.279 -0.047,-0.49 -0.143,-0.638 -0.097,-0.147 -0.233,-0.218 -0.407,-0.218"
           id="path410"
           style="fill:#3ca3b1;fill-opacity:1;fill-rule:nonzero;stroke:none" /><path
           d="m 219.273,92.935 c -0.237,0 -0.35,-0.241 -0.35,-0.715 0,-0.444 0.112,-0.666 0.342,-0.666 0.226,0 0.339,0.225 0.339,0.677 0,0.47 -0.112,0.704 -0.331,0.704 z m -0.028,-1.54 c -0.161,0 -0.289,0.069 -0.379,0.209 -0.094,0.14 -0.137,0.343 -0.137,0.608 0,0.289 0.045,0.508 0.142,0.657 0.096,0.15 0.232,0.225 0.41,0.225 0.344,0 0.516,-0.282 0.516,-0.843 0,-0.279 -0.048,-0.49 -0.148,-0.638 -0.095,-0.147 -0.23,-0.218 -0.404,-0.218"
           id="path412"
           style="fill:#3ca3b1;fill-opacity:1;fill-rule:nonzero;stroke:none" /><path
           d="m 220.537,92.935 c -0.233,0 -0.35,-0.241 -0.35,-0.715 0,-0.444 0.111,-0.666 0.343,-0.666 0.227,0 0.338,0.225 0.338,0.677 0,0.47 -0.108,0.704 -0.331,0.704 z m -0.028,-1.54 c -0.162,0 -0.286,0.069 -0.379,0.209 -0.092,0.14 -0.139,0.343 -0.139,0.608 0,0.289 0.049,0.508 0.143,0.657 0.094,0.15 0.232,0.225 0.413,0.225 0.344,0 0.516,-0.282 0.516,-0.843 0,-0.279 -0.05,-0.49 -0.146,-0.638 -0.096,-0.147 -0.234,-0.218 -0.408,-0.218"
           id="path414"
           style="fill:#3ca3b1;fill-opacity:1;fill-rule:nonzero;stroke:none" /><path
           d="m 221.802,92.935 c -0.236,0 -0.353,-0.241 -0.353,-0.715 0,-0.444 0.116,-0.666 0.347,-0.666 0.225,0 0.339,0.225 0.339,0.677 0,0.47 -0.113,0.704 -0.333,0.704 z m -0.027,-1.54 c -0.163,0 -0.291,0.069 -0.38,0.209 -0.09,0.14 -0.138,0.343 -0.138,0.608 0,0.289 0.049,0.508 0.144,0.657 0.095,0.15 0.232,0.225 0.41,0.225 0.344,0 0.513,-0.282 0.513,-0.843 0,-0.279 -0.048,-0.49 -0.144,-0.638 -0.097,-0.147 -0.232,-0.218 -0.405,-0.218"
           id="path416"
           style="fill:#3ca3b1;fill-opacity:1;fill-rule:nonzero;stroke:none" /><path
           d="m 223.067,92.935 c -0.236,0 -0.354,-0.241 -0.354,-0.715 0,-0.444 0.116,-0.666 0.346,-0.666 0.228,0 0.339,0.225 0.339,0.677 0,0.47 -0.11,0.704 -0.331,0.704 z m -0.028,-1.54 c -0.162,0 -0.291,0.069 -0.382,0.209 -0.089,0.14 -0.136,0.343 -0.136,0.608 0,0.289 0.049,0.508 0.144,0.657 0.094,0.15 0.233,0.225 0.411,0.225 0.346,0 0.516,-0.282 0.516,-0.843 0,-0.279 -0.048,-0.49 -0.145,-0.638 -0.096,-0.147 -0.232,-0.218 -0.408,-0.218"
           id="path418"
           style="fill:#3ca3b1;fill-opacity:1;fill-rule:nonzero;stroke:none" /><path
           d="m 224.82,91.423 -0.93,0 0,0.162 0.371,0 0,1.279 -0.38,-0.114 0,0.182 0.569,0.17 0,-1.517 0.37,0 0,-0.162"
           id="path420"
           style="fill:#3ca3b1;fill-opacity:1;fill-rule:nonzero;stroke:none" /><path
           d="m 226.082,91.423 -0.928,0 0,0.162 0.372,0 0,1.279 -0.381,-0.114 0,0.182 0.57,0.17 0,-1.517 0.367,0 0,-0.162"
           id="path422"
           style="fill:#3ca3b1;fill-opacity:1;fill-rule:nonzero;stroke:none" /><path
           d="m 207.888,90.118 c -0.234,0 -0.353,-0.236 -0.353,-0.714 0,-0.443 0.117,-0.666 0.346,-0.666 0.226,0 0.34,0.226 0.34,0.678 0,0.47 -0.114,0.702 -0.333,0.702 z m -0.027,-1.536 c -0.162,0 -0.29,0.066 -0.381,0.206 -0.09,0.141 -0.136,0.344 -0.136,0.609 0,0.289 0.048,0.507 0.143,0.655 0.096,0.151 0.234,0.225 0.412,0.225 0.343,0 0.515,-0.281 0.515,-0.841 0,-0.28 -0.048,-0.491 -0.146,-0.637 -0.098,-0.147 -0.233,-0.217 -0.407,-0.217"
           id="path424"
           style="fill:#3ca3b1;fill-opacity:1;fill-rule:nonzero;stroke:none" /><path
           d="m 209.64,88.607 -0.927,0 0,0.164 0.37,0 0,1.278 -0.38,-0.114 0,0.181 0.568,0.17 0,-1.515 0.369,0 0,-0.164"
           id="path426"
           style="fill:#3ca3b1;fill-opacity:1;fill-rule:nonzero;stroke:none" /><path
           d="m 210.906,88.607 -0.931,0 0,0.164 0.376,0 0,1.278 -0.382,-0.114 0,0.181 0.564,0.17 0,-1.515 0.373,0 0,-0.164"
           id="path428"
           style="fill:#3ca3b1;fill-opacity:1;fill-rule:nonzero;stroke:none" /><path
           d="m 212.171,88.607 -0.931,0 0,0.164 0.371,0 0,1.278 -0.38,-0.114 0,0.181 0.571,0.17 0,-1.515 0.369,0 0,-0.164"
           id="path430"
           style="fill:#3ca3b1;fill-opacity:1;fill-rule:nonzero;stroke:none" /><path
           d="m 213.435,88.607 -0.93,0 0,0.164 0.372,0 0,1.278 -0.38,-0.114 0,0.181 0.567,0.17 0,-1.515 0.371,0 0,-0.164"
           id="path432"
           style="fill:#3ca3b1;fill-opacity:1;fill-rule:nonzero;stroke:none" /><path
           d="m 214.213,90.118 c -0.234,0 -0.353,-0.236 -0.353,-0.714 0,-0.443 0.114,-0.666 0.344,-0.666 0.227,0 0.342,0.226 0.342,0.678 0,0.47 -0.113,0.702 -0.333,0.702 z m -0.027,-1.536 c -0.163,0 -0.289,0.066 -0.381,0.206 -0.092,0.141 -0.134,0.344 -0.134,0.609 0,0.289 0.044,0.507 0.141,0.655 0.092,0.151 0.232,0.225 0.412,0.225 0.341,0 0.513,-0.281 0.513,-0.841 0,-0.28 -0.049,-0.491 -0.145,-0.637 -0.097,-0.147 -0.232,-0.217 -0.406,-0.217"
           id="path434"
           style="fill:#3ca3b1;fill-opacity:1;fill-rule:nonzero;stroke:none" /><path
           d="m 215.964,88.607 -0.927,0 0,0.164 0.371,0 0,1.278 -0.382,-0.114 0,0.181 0.57,0.17 0,-1.515 0.368,0 0,-0.164"
           id="path436"
           style="fill:#3ca3b1;fill-opacity:1;fill-rule:nonzero;stroke:none" /><path
           d="m 217.229,88.607 -0.928,0 0,0.164 0.372,0 0,1.278 -0.379,-0.114 0,0.181 0.567,0.17 0,-1.515 0.368,0 0,-0.164"
           id="path438"
           style="fill:#3ca3b1;fill-opacity:1;fill-rule:nonzero;stroke:none" /><path
           d="m 218.006,90.118 c -0.235,0 -0.351,-0.236 -0.351,-0.714 0,-0.443 0.115,-0.666 0.346,-0.666 0.226,0 0.341,0.226 0.341,0.678 0,0.47 -0.113,0.702 -0.336,0.702 z m -0.025,-1.536 c -0.165,0 -0.291,0.066 -0.382,0.206 -0.09,0.141 -0.138,0.344 -0.138,0.609 0,0.289 0.049,0.507 0.143,0.655 0.095,0.151 0.234,0.225 0.413,0.225 0.342,0 0.514,-0.281 0.514,-0.841 0,-0.28 -0.047,-0.491 -0.143,-0.637 -0.097,-0.147 -0.233,-0.217 -0.407,-0.217"
           id="path440"
           style="fill:#3ca3b1;fill-opacity:1;fill-rule:nonzero;stroke:none" /><path
           d="m 219.273,90.118 c -0.237,0 -0.35,-0.236 -0.35,-0.714 0,-0.443 0.112,-0.666 0.342,-0.666 0.226,0 0.339,0.226 0.339,0.678 0,0.47 -0.112,0.702 -0.331,0.702 z m -0.028,-1.536 c -0.161,0 -0.289,0.066 -0.379,0.206 -0.094,0.141 -0.137,0.344 -0.137,0.609 0,0.289 0.045,0.507 0.142,0.655 0.096,0.151 0.232,0.225 0.41,0.225 0.344,0 0.516,-0.281 0.516,-0.841 0,-0.28 -0.048,-0.491 -0.148,-0.637 -0.095,-0.147 -0.23,-0.217 -0.404,-0.217"
           id="path442"
           style="fill:#3ca3b1;fill-opacity:1;fill-rule:nonzero;stroke:none" /><path
           d="m 220.537,90.118 c -0.233,0 -0.35,-0.236 -0.35,-0.714 0,-0.443 0.111,-0.666 0.343,-0.666 0.227,0 0.338,0.226 0.338,0.678 0,0.47 -0.108,0.702 -0.331,0.702 z m -0.028,-1.536 c -0.162,0 -0.286,0.066 -0.379,0.206 -0.092,0.141 -0.139,0.344 -0.139,0.609 0,0.289 0.049,0.507 0.143,0.655 0.094,0.151 0.232,0.225 0.413,0.225 0.344,0 0.516,-0.281 0.516,-0.841 0,-0.28 -0.05,-0.491 -0.146,-0.637 -0.096,-0.147 -0.234,-0.217 -0.408,-0.217"
           id="path444"
           style="fill:#3ca3b1;fill-opacity:1;fill-rule:nonzero;stroke:none" /><path
           d="m 222.289,88.607 -0.929,0 0,0.164 0.369,0 0,1.278 -0.377,-0.114 0,0.181 0.567,0.17 0,-1.515 0.37,0 0,-0.164"
           id="path446"
           style="fill:#3ca3b1;fill-opacity:1;fill-rule:nonzero;stroke:none" /><path
           d="m 223.067,90.118 c -0.236,0 -0.354,-0.236 -0.354,-0.714 0,-0.443 0.116,-0.666 0.346,-0.666 0.228,0 0.339,0.226 0.339,0.678 0,0.47 -0.11,0.702 -0.331,0.702 z m -0.028,-1.536 c -0.162,0 -0.291,0.066 -0.382,0.206 -0.089,0.141 -0.136,0.344 -0.136,0.609 0,0.289 0.049,0.507 0.144,0.655 0.094,0.151 0.233,0.225 0.411,0.225 0.346,0 0.516,-0.281 0.516,-0.841 0,-0.28 -0.048,-0.491 -0.145,-0.637 -0.096,-0.147 -0.232,-0.217 -0.408,-0.217"
           id="path448"
           style="fill:#3ca3b1;fill-opacity:1;fill-rule:nonzero;stroke:none" /><path
           d="m 224.333,90.118 c -0.236,0 -0.354,-0.236 -0.354,-0.714 0,-0.443 0.115,-0.666 0.343,-0.666 0.227,0 0.344,0.226 0.344,0.678 0,0.47 -0.113,0.702 -0.333,0.702 z m -0.028,-1.536 c -0.163,0 -0.289,0.066 -0.379,0.206 -0.093,0.141 -0.139,0.344 -0.139,0.609 0,0.289 0.046,0.507 0.142,0.655 0.093,0.151 0.232,0.225 0.412,0.225 0.345,0 0.514,-0.281 0.514,-0.841 0,-0.28 -0.045,-0.491 -0.145,-0.637 -0.096,-0.147 -0.231,-0.217 -0.405,-0.217"
           id="path450"
           style="fill:#3ca3b1;fill-opacity:1;fill-rule:nonzero;stroke:none" /><path
           d="m 226.082,88.607 -0.928,0 0,0.164 0.372,0 0,1.278 -0.381,-0.114 0,0.181 0.57,0.17 0,-1.515 0.367,0 0,-0.164"
           id="path452"
           style="fill:#3ca3b1;fill-opacity:1;fill-rule:nonzero;stroke:none" /><path
           d="m 208.375,85.792 -0.929,0 0,0.164 0.373,0 0,1.277 -0.381,-0.114 0,0.181 0.568,0.17 0,-1.514 0.369,0 0,-0.164"
           id="path454"
           style="fill:#3ca3b1;fill-opacity:1;fill-rule:nonzero;stroke:none" /><path
           d="m 209.152,87.303 c -0.234,0 -0.352,-0.24 -0.352,-0.711 0,-0.446 0.116,-0.669 0.346,-0.669 0.227,0 0.34,0.225 0.34,0.678 0,0.469 -0.113,0.702 -0.334,0.702 z m -0.025,-1.541 c -0.163,0 -0.292,0.073 -0.383,0.211 -0.091,0.14 -0.138,0.343 -0.138,0.607 0,0.29 0.049,0.511 0.144,0.658 0.096,0.15 0.235,0.224 0.413,0.224 0.345,0 0.516,-0.281 0.516,-0.842 0,-0.281 -0.048,-0.49 -0.148,-0.636 -0.095,-0.146 -0.232,-0.222 -0.404,-0.222"
           id="path456"
           style="fill:#3ca3b1;fill-opacity:1;fill-rule:nonzero;stroke:none" /><path
           d="m 210.906,85.792 -0.931,0 0,0.164 0.376,0 0,1.277 -0.382,-0.114 0,0.181 0.564,0.17 0,-1.514 0.373,0 0,-0.164"
           id="path458"
           style="fill:#3ca3b1;fill-opacity:1;fill-rule:nonzero;stroke:none" /><path
           d="m 211.682,87.303 c -0.233,0 -0.351,-0.24 -0.351,-0.711 0,-0.446 0.116,-0.669 0.344,-0.669 0.23,0 0.342,0.225 0.342,0.678 0,0.469 -0.112,0.702 -0.335,0.702 z m -0.025,-1.541 c -0.164,0 -0.29,0.073 -0.382,0.211 -0.091,0.14 -0.136,0.343 -0.136,0.607 0,0.29 0.048,0.511 0.14,0.658 0.098,0.15 0.234,0.224 0.414,0.224 0.343,0 0.515,-0.281 0.515,-0.842 0,-0.281 -0.05,-0.49 -0.145,-0.636 -0.098,-0.146 -0.232,-0.222 -0.406,-0.222"
           id="path460"
           style="fill:#3ca3b1;fill-opacity:1;fill-rule:nonzero;stroke:none" /><path
           d="m 213.435,85.792 -0.93,0 0,0.164 0.372,0 0,1.277 -0.38,-0.114 0,0.181 0.567,0.17 0,-1.514 0.371,0 0,-0.164"
           id="path462"
           style="fill:#3ca3b1;fill-opacity:1;fill-rule:nonzero;stroke:none" /><path
           d="m 214.213,87.303 c -0.234,0 -0.353,-0.24 -0.353,-0.711 0,-0.446 0.114,-0.669 0.344,-0.669 0.227,0 0.342,0.225 0.342,0.678 0,0.469 -0.113,0.702 -0.333,0.702 z m -0.027,-1.541 c -0.163,0 -0.289,0.073 -0.381,0.211 -0.092,0.14 -0.134,0.343 -0.134,0.607 0,0.29 0.044,0.511 0.141,0.658 0.092,0.15 0.232,0.224 0.412,0.224 0.341,0 0.513,-0.281 0.513,-0.842 0,-0.281 -0.049,-0.49 -0.145,-0.636 -0.097,-0.146 -0.232,-0.222 -0.406,-0.222"
           id="path464"
           style="fill:#3ca3b1;fill-opacity:1;fill-rule:nonzero;stroke:none" /><path
           d="m 215.478,87.303 c -0.235,0 -0.352,-0.24 -0.352,-0.711 0,-0.446 0.113,-0.669 0.344,-0.669 0.23,0 0.341,0.225 0.341,0.678 0,0.469 -0.111,0.702 -0.333,0.702 z m -0.028,-1.541 c -0.163,0 -0.289,0.073 -0.38,0.211 -0.091,0.14 -0.139,0.343 -0.139,0.607 0,0.29 0.049,0.511 0.145,0.658 0.093,0.15 0.231,0.224 0.411,0.224 0.343,0 0.516,-0.281 0.516,-0.842 0,-0.281 -0.049,-0.49 -0.146,-0.636 -0.096,-0.146 -0.232,-0.222 -0.407,-0.222"
           id="path466"
           style="fill:#3ca3b1;fill-opacity:1;fill-rule:nonzero;stroke:none" /><path
           d="m 217.229,85.792 -0.928,0 0,0.164 0.372,0 0,1.277 -0.379,-0.114 0,0.181 0.567,0.17 0,-1.514 0.368,0 0,-0.164"
           id="path468"
           style="fill:#3ca3b1;fill-opacity:1;fill-rule:nonzero;stroke:none" /><path
           d="m 218.494,85.792 -0.931,0 0,0.164 0.374,0 0,1.277 -0.38,-0.114 0,0.181 0.566,0.17 0,-1.514 0.371,0 0,-0.164"
           id="path470"
           style="fill:#3ca3b1;fill-opacity:1;fill-rule:nonzero;stroke:none" /><path
           d="m 219.273,87.303 c -0.237,0 -0.35,-0.24 -0.35,-0.711 0,-0.446 0.112,-0.669 0.342,-0.669 0.226,0 0.339,0.225 0.339,0.678 0,0.469 -0.112,0.702 -0.331,0.702 z m -0.028,-1.541 c -0.161,0 -0.289,0.073 -0.379,0.211 -0.094,0.14 -0.137,0.343 -0.137,0.607 0,0.29 0.045,0.511 0.142,0.658 0.096,0.15 0.232,0.224 0.41,0.224 0.344,0 0.516,-0.281 0.516,-0.842 0,-0.281 -0.048,-0.49 -0.148,-0.636 -0.095,-0.146 -0.23,-0.222 -0.404,-0.222"
           id="path472"
           style="fill:#3ca3b1;fill-opacity:1;fill-rule:nonzero;stroke:none" /><path
           d="m 220.537,87.303 c -0.233,0 -0.35,-0.24 -0.35,-0.711 0,-0.446 0.111,-0.669 0.343,-0.669 0.227,0 0.338,0.225 0.338,0.678 0,0.469 -0.108,0.702 -0.331,0.702 z m -0.028,-1.541 c -0.162,0 -0.286,0.073 -0.379,0.211 -0.092,0.14 -0.139,0.343 -0.139,0.607 0,0.29 0.049,0.511 0.143,0.658 0.094,0.15 0.232,0.224 0.413,0.224 0.344,0 0.516,-0.281 0.516,-0.842 0,-0.281 -0.05,-0.49 -0.146,-0.636 -0.096,-0.146 -0.234,-0.222 -0.408,-0.222"
           id="path474"
           style="fill:#3ca3b1;fill-opacity:1;fill-rule:nonzero;stroke:none" /><path
           d="m 222.289,85.792 -0.929,0 0,0.164 0.369,0 0,1.277 -0.377,-0.114 0,0.181 0.567,0.17 0,-1.514 0.37,0 0,-0.164"
           id="path476"
           style="fill:#3ca3b1;fill-opacity:1;fill-rule:nonzero;stroke:none" /><path
           d="m 223.067,87.303 c -0.236,0 -0.354,-0.24 -0.354,-0.711 0,-0.446 0.116,-0.669 0.346,-0.669 0.228,0 0.339,0.225 0.339,0.678 0,0.469 -0.11,0.702 -0.331,0.702 z m -0.028,-1.541 c -0.162,0 -0.291,0.073 -0.382,0.211 -0.089,0.14 -0.136,0.343 -0.136,0.607 0,0.29 0.049,0.511 0.144,0.658 0.094,0.15 0.233,0.224 0.411,0.224 0.346,0 0.516,-0.281 0.516,-0.842 0,-0.281 -0.048,-0.49 -0.145,-0.636 -0.096,-0.146 -0.232,-0.222 -0.408,-0.222"
           id="path478"
           style="fill:#3ca3b1;fill-opacity:1;fill-rule:nonzero;stroke:none" /><path
           d="m 224.82,85.792 -0.93,0 0,0.164 0.371,0 0,1.277 -0.38,-0.114 0,0.181 0.569,0.17 0,-1.514 0.37,0 0,-0.164"
           id="path480"
           style="fill:#3ca3b1;fill-opacity:1;fill-rule:nonzero;stroke:none" /><path
           d="m 225.595,87.303 c -0.233,0 -0.351,-0.24 -0.351,-0.711 0,-0.446 0.116,-0.669 0.346,-0.669 0.226,0 0.338,0.225 0.338,0.678 0,0.469 -0.108,0.702 -0.333,0.702 z m -0.027,-1.541 c -0.161,0 -0.288,0.073 -0.38,0.211 -0.091,0.14 -0.137,0.343 -0.137,0.607 0,0.29 0.048,0.511 0.142,0.658 0.095,0.15 0.232,0.224 0.414,0.224 0.342,0 0.514,-0.281 0.514,-0.842 0,-0.281 -0.051,-0.49 -0.145,-0.636 -0.097,-0.146 -0.234,-0.222 -0.408,-0.222"
           id="path482"
           style="fill:#3ca3b1;fill-opacity:1;fill-rule:nonzero;stroke:none" /><path
           d="m 208.375,82.977 -0.929,0 0,0.163 0.373,0 0,1.277 -0.381,-0.113 0,0.179 0.568,0.174 0,-1.517 0.369,0 0,-0.163"
           id="path484"
           style="fill:#3ca3b1;fill-opacity:1;fill-rule:nonzero;stroke:none" /><path
           d="m 209.64,82.977 -0.927,0 0,0.163 0.37,0 0,1.277 -0.38,-0.113 0,0.179 0.568,0.174 0,-1.517 0.369,0 0,-0.163"
           id="path486"
           style="fill:#3ca3b1;fill-opacity:1;fill-rule:nonzero;stroke:none" /><path
           d="m 210.419,84.486 c -0.237,0 -0.353,-0.237 -0.353,-0.711 0,-0.446 0.113,-0.67 0.343,-0.67 0.229,0 0.342,0.227 0.342,0.679 0,0.469 -0.11,0.702 -0.332,0.702 z m -0.027,-1.538 c -0.163,0 -0.289,0.069 -0.38,0.209 -0.092,0.139 -0.139,0.342 -0.139,0.607 0,0.291 0.047,0.51 0.141,0.66 0.097,0.148 0.233,0.222 0.414,0.222 0.343,0 0.518,-0.279 0.518,-0.842 0,-0.279 -0.051,-0.49 -0.147,-0.636 -0.098,-0.147 -0.234,-0.22 -0.407,-0.22"
           id="path488"
           style="fill:#3ca3b1;fill-opacity:1;fill-rule:nonzero;stroke:none" /><path
           d="m 211.682,84.486 c -0.233,0 -0.351,-0.237 -0.351,-0.711 0,-0.446 0.116,-0.67 0.344,-0.67 0.23,0 0.342,0.227 0.342,0.679 0,0.469 -0.112,0.702 -0.335,0.702 z m -0.025,-1.538 c -0.164,0 -0.29,0.069 -0.382,0.209 -0.091,0.139 -0.136,0.342 -0.136,0.607 0,0.291 0.048,0.51 0.14,0.66 0.098,0.148 0.234,0.222 0.414,0.222 0.343,0 0.515,-0.279 0.515,-0.842 0,-0.279 -0.05,-0.49 -0.145,-0.636 -0.098,-0.147 -0.232,-0.22 -0.406,-0.22"
           id="path490"
           style="fill:#3ca3b1;fill-opacity:1;fill-rule:nonzero;stroke:none" /><path
           d="m 212.947,84.486 c -0.236,0 -0.35,-0.237 -0.35,-0.711 0,-0.446 0.113,-0.67 0.342,-0.67 0.23,0 0.341,0.227 0.341,0.679 0,0.469 -0.111,0.702 -0.333,0.702 z m -0.026,-1.538 c -0.162,0 -0.291,0.069 -0.38,0.209 -0.092,0.139 -0.14,0.342 -0.14,0.607 0,0.291 0.05,0.51 0.145,0.66 0.095,0.148 0.232,0.222 0.412,0.222 0.344,0 0.514,-0.279 0.514,-0.842 0,-0.279 -0.046,-0.49 -0.144,-0.636 -0.1,-0.147 -0.231,-0.22 -0.407,-0.22"
           id="path492"
           style="fill:#3ca3b1;fill-opacity:1;fill-rule:nonzero;stroke:none" /><path
           d="m 214.7,82.977 -0.929,0 0,0.163 0.372,0 0,1.277 -0.378,-0.113 0,0.179 0.565,0.174 0,-1.517 0.37,0 0,-0.163"
           id="path494"
           style="fill:#3ca3b1;fill-opacity:1;fill-rule:nonzero;stroke:none" /><path
           d="m 215.964,82.977 -0.927,0 0,0.163 0.371,0 0,1.277 -0.382,-0.113 0,0.179 0.57,0.174 0,-1.517 0.368,0 0,-0.163"
           id="path496"
           style="fill:#3ca3b1;fill-opacity:1;fill-rule:nonzero;stroke:none" /><path
           d="m 216.741,84.486 c -0.234,0 -0.35,-0.237 -0.35,-0.711 0,-0.446 0.114,-0.67 0.344,-0.67 0.226,0 0.339,0.227 0.339,0.679 0,0.469 -0.111,0.702 -0.333,0.702 z m -0.023,-1.538 c -0.165,0 -0.293,0.069 -0.385,0.209 -0.089,0.139 -0.135,0.342 -0.135,0.607 0,0.291 0.048,0.51 0.144,0.66 0.093,0.148 0.23,0.222 0.409,0.222 0.345,0 0.515,-0.279 0.515,-0.842 0,-0.279 -0.045,-0.49 -0.144,-0.636 -0.098,-0.147 -0.231,-0.22 -0.404,-0.22"
           id="path498"
           style="fill:#3ca3b1;fill-opacity:1;fill-rule:nonzero;stroke:none" /><path
           d="m 218.494,82.977 -0.931,0 0,0.163 0.374,0 0,1.277 -0.38,-0.113 0,0.179 0.566,0.174 0,-1.517 0.371,0 0,-0.163"
           id="path500"
           style="fill:#3ca3b1;fill-opacity:1;fill-rule:nonzero;stroke:none" /><path
           d="m 219.76,82.977 -0.928,0 0,0.163 0.369,0 0,1.277 -0.379,-0.113 0,0.179 0.567,0.174 0,-1.517 0.371,0 0,-0.163"
           id="path502"
           style="fill:#3ca3b1;fill-opacity:1;fill-rule:nonzero;stroke:none" /><path
           d="m 221.023,82.977 -0.927,0 0,0.163 0.373,0 0,1.277 -0.383,-0.113 0,0.179 0.569,0.174 0,-1.517 0.368,0 0,-0.163"
           id="path504"
           style="fill:#3ca3b1;fill-opacity:1;fill-rule:nonzero;stroke:none" /><path
           d="m 221.802,84.486 c -0.236,0 -0.353,-0.237 -0.353,-0.711 0,-0.446 0.116,-0.67 0.347,-0.67 0.225,0 0.339,0.227 0.339,0.679 0,0.469 -0.113,0.702 -0.333,0.702 z m -0.027,-1.538 c -0.163,0 -0.291,0.069 -0.38,0.209 -0.09,0.139 -0.138,0.342 -0.138,0.607 0,0.291 0.049,0.51 0.144,0.66 0.095,0.148 0.232,0.222 0.41,0.222 0.344,0 0.513,-0.279 0.513,-0.842 0,-0.279 -0.048,-0.49 -0.144,-0.636 -0.097,-0.147 -0.232,-0.22 -0.405,-0.22"
           id="path506"
           style="fill:#3ca3b1;fill-opacity:1;fill-rule:nonzero;stroke:none" /><path
           d="m 223.555,82.977 -0.931,0 0,0.163 0.374,0 0,1.277 -0.383,-0.113 0,0.179 0.569,0.174 0,-1.517 0.371,0 0,-0.163"
           id="path508"
           style="fill:#3ca3b1;fill-opacity:1;fill-rule:nonzero;stroke:none" /><path
           d="m 224.333,84.486 c -0.236,0 -0.354,-0.237 -0.354,-0.711 0,-0.446 0.115,-0.67 0.343,-0.67 0.227,0 0.344,0.227 0.344,0.679 0,0.469 -0.113,0.702 -0.333,0.702 z m -0.028,-1.538 c -0.163,0 -0.289,0.069 -0.379,0.209 -0.093,0.139 -0.139,0.342 -0.139,0.607 0,0.291 0.046,0.51 0.142,0.66 0.093,0.148 0.232,0.222 0.412,0.222 0.345,0 0.514,-0.279 0.514,-0.842 0,-0.279 -0.045,-0.49 -0.145,-0.636 -0.096,-0.147 -0.231,-0.22 -0.405,-0.22"
           id="path510"
           style="fill:#3ca3b1;fill-opacity:1;fill-rule:nonzero;stroke:none" /><path
           d="m 225.595,84.486 c -0.233,0 -0.351,-0.237 -0.351,-0.711 0,-0.446 0.116,-0.67 0.346,-0.67 0.226,0 0.338,0.227 0.338,0.679 0,0.469 -0.108,0.702 -0.333,0.702 z m -0.027,-1.538 c -0.161,0 -0.288,0.069 -0.38,0.209 -0.091,0.139 -0.137,0.342 -0.137,0.607 0,0.291 0.048,0.51 0.142,0.66 0.095,0.148 0.232,0.222 0.414,0.222 0.342,0 0.514,-0.279 0.514,-0.842 0,-0.279 -0.051,-0.49 -0.145,-0.636 -0.097,-0.147 -0.234,-0.22 -0.408,-0.22"
           id="path512"
           style="fill:#3ca3b1;fill-opacity:1;fill-rule:nonzero;stroke:none" /><path
           d="m 226.106,99.581 -4.549,0 c -0.488,0 -0.885,0.398 -0.885,0.889 l 0,4.823"
           id="path514"
           style="fill:#ffffff;fill-opacity:1;fill-rule:nonzero;stroke:none" /><path
           d="m 226.106,99.235 -4.549,0 c -0.677,0 -1.234,0.554 -1.234,1.235 l 0,4.823 c 0,0.191 0.156,0.348 0.349,0.348 0.191,0 0.349,-0.157 0.349,-0.348 l 0,-4.823 c 0,-0.301 0.238,-0.542 0.536,-0.542 l 4.549,0 c 0.189,0 0.345,-0.155 0.345,-0.347 0,-0.192 -0.156,-0.346 -0.345,-0.346"
           id="path516"
           style="fill:#4f4c4d;fill-opacity:1;fill-rule:nonzero;stroke:none" /></g></g></g></svg>