<?xml version="1.0" encoding="UTF-8" standalone="no"?>
<!-- Created with Inkscape (http://www.inkscape.org/) -->

<svg
   xmlns:dc="http://purl.org/dc/elements/1.1/"
   xmlns:cc="http://creativecommons.org/ns#"
   xmlns:rdf="http://www.w3.org/1999/02/22-rdf-syntax-ns#"
   xmlns:svg="http://www.w3.org/2000/svg"
   xmlns="http://www.w3.org/2000/svg"
   version="1.1"
   width="341.25"
   height="221.25"
   id="svg2"
   xml:space="preserve"><metadata
     id="metadata8"><rdf:RDF><cc:Work
         rdf:about=""><dc:format>image/svg+xml</dc:format><dc:type
           rdf:resource="http://purl.org/dc/dcmitype/StillImage" /><dc:title></dc:title></cc:Work></rdf:RDF></metadata><defs
     id="defs6"><clipPath
       id="clipPath18"><path
         d="M 0,0 273,0 273,177 0,177 0,0 z"
         id="path20" /></clipPath></defs><g
     transform="matrix(1.25,0,0,-1.25,0,221.25)"
     id="g10"><g
       id="g12" /><g
       id="g14"><g
         clip-path="url(#clipPath18)"
         id="g16"><path
           d="m 173.485,112.193 0,-14.693 c 0,-0.132 0.054,-0.261 0.147,-0.354 0.093,-0.093 0.222,-0.146 0.353,-0.146 l 49.708,0 0.278,-25.121 c 0.003,-0.276 0.229,-0.497 0.505,-0.494 0.276,0.003 0.498,0.229 0.495,0.505 l -0.284,25.615 C 224.684,97.78 224.462,98 224.188,98 l -49.703,0 0,14.193 c 0,0.276 -0.224,0.5 -0.5,0.5 -0.276,0 -0.499,-0.224 -0.499,-0.5"
           id="path22"
           style="fill:#bdbcbc;fill-opacity:1;fill-rule:nonzero;stroke:none" /><path
           d="m 143.667,106.835 -0.111,-9.767 c -0.002,-0.133 0.05,-0.262 0.144,-0.357 0.094,-0.095 0.222,-0.149 0.356,-0.149 l 10.692,0 0,-24.677 c 0,-0.277 0.224,-0.501 0.5,-0.501 0.276,0 0.5,0.224 0.5,0.501 l 0,25.177 c 0,0.132 -0.053,0.261 -0.146,0.354 -0.093,0.093 -0.222,0.146 -0.354,0.146 l -10.687,0 0.106,9.261 c 0.003,0.276 -0.219,0.503 -0.494,0.506 -0.277,0.003 -0.503,-0.218 -0.506,-0.494"
           id="path24"
           style="fill:#bdbcbc;fill-opacity:1;fill-rule:nonzero;stroke:none" /><path
           d="m 129.079,109.851 0,-12.392 -38.903,0 c -0.132,0 -0.261,-0.053 -0.354,-0.146 -0.093,-0.094 -0.146,-0.222 -0.146,-0.354 l 0,-25.074 c 0,-0.277 0.224,-0.501 0.5,-0.501 0.276,0 0.5,0.224 0.5,0.501 l 0,24.574 38.903,0 c 0.132,0 0.26,0.053 0.354,0.146 0.093,0.094 0.146,0.222 0.146,0.354 l 0,12.892 c 0,0.277 -0.224,0.5 -0.5,0.5 -0.276,0 -0.5,-0.223 -0.5,-0.5"
           id="path26"
           style="fill:#bdbcbc;fill-opacity:1;fill-rule:nonzero;stroke:none" /><path
           d="m 111.803,112.959 0,-10.796 -75.818,0 c -0.131,0 -0.26,-0.053 -0.353,-0.147 -0.093,-0.093 -0.147,-0.221 -0.147,-0.353 l 0,-29.778 c 0,-0.277 0.224,-0.5 0.5,-0.5 0.276,0 0.5,0.223 0.5,0.5 l 0,29.278 75.818,0 c 0.131,0 0.26,0.053 0.353,0.146 0.093,0.094 0.147,0.222 0.147,0.354 l 0,11.296 c 0,0.276 -0.224,0.5 -0.5,0.5 -0.276,0 -0.5,-0.224 -0.5,-0.5"
           id="path28"
           style="fill:#bdbcbc;fill-opacity:1;fill-rule:nonzero;stroke:none" /><path
           d="m 155.814,37.215 c -4.006,0 -8.808,0.979 -9.167,3.742 -0.271,2.104 1.47,4.461 3.16,6.734 1.089,1.466 2.212,2.98 2.478,4.072 0.331,1.346 0.288,1.94 0.198,3.125 -0.02,0.208 -0.033,0.428 -0.052,0.677 -0.034,0.489 0.34,0.91 0.835,0.946 0.481,0.027 0.909,-0.338 0.942,-0.829 0.021,-0.237 0.031,-0.456 0.052,-0.66 0.091,-1.242 0.154,-2.062 -0.245,-3.688 -0.356,-1.439 -1.532,-3.024 -2.775,-4.704 -1.41,-1.9 -3.011,-4.05 -2.833,-5.444 0.145,-1.054 3.011,-2.193 7.407,-2.193 4.402,0 7.273,1.139 7.407,2.193 0.182,1.394 -1.417,3.544 -2.827,5.444 -1.248,1.68 -2.42,3.265 -2.776,4.704 -0.41,1.673 -0.173,5.956 0.039,9.034 l 0.016,0.192 c 0.035,0.494 0.459,0.866 0.951,0.828 0.49,-0.036 0.859,-0.46 0.824,-0.951 l -0.013,-0.19 c -0.317,-4.576 -0.347,-7.43 -0.093,-8.484 0.272,-1.092 1.393,-2.606 2.481,-4.072 1.688,-2.273 3.436,-4.63 3.164,-6.734 -0.361,-2.763 -5.162,-3.742 -9.173,-3.742"
           id="path30"
           style="fill:#4f4c4d;fill-opacity:1;fill-rule:nonzero;stroke:none" /><path
           d="m 160.714,42.577 c 0,-2.26 -10.022,-2.445 -10.022,0.155 0,4.366 10.022,3.477 10.022,-0.155"
           id="path32"
           style="fill:#3ca3b1;fill-opacity:1;fill-rule:evenodd;stroke:none" /><path
           d="m 151.136,63.257 c -1.137,0 -2.065,-0.922 -2.065,-2.061 0,-1.138 0.928,-2.064 2.065,-2.064 1.139,0 2.06,0.926 2.06,2.064 0,1.139 -0.921,2.061 -2.06,2.061 z m 0,-5.658 c -1.985,0 -3.6,1.613 -3.6,3.597 0,1.984 1.615,3.598 3.6,3.598 1.984,0 3.596,-1.614 3.596,-3.598 0,-1.984 -1.612,-3.597 -3.596,-3.597"
           id="path34"
           style="fill:#3ca3b1;fill-opacity:1;fill-rule:nonzero;stroke:none" /><path
           d="m 146.183,55.649 c -0.196,0 -0.393,0.075 -0.547,0.225 -0.295,0.299 -0.295,0.784 0,1.085 l 2.877,2.874 c 0.3,0.299 0.784,0.299 1.086,0 0.297,-0.301 0.297,-0.787 0,-1.086 l -2.873,-2.873 c -0.15,-0.15 -0.346,-0.225 -0.543,-0.225"
           id="path36"
           style="fill:#3ca3b1;fill-opacity:1;fill-rule:nonzero;stroke:none" /><path
           d="m 125.508,27.949 0,-6.148 1.164,0 c 1.022,0 1.819,0.273 2.39,0.821 0.569,0.548 0.853,1.323 0.853,2.329 0,1.999 -1.062,2.998 -3.189,2.998 l -1.218,0 z m -0.915,-6.977 0,7.804 2.155,0 c 2.75,0 4.125,-1.267 4.125,-3.804 0,-1.205 -0.382,-2.171 -1.145,-2.903 -0.764,-0.731 -1.787,-1.097 -3.067,-1.097 l -2.068,0"
           id="path38"
           style="fill:#4f4c4d;fill-opacity:1;fill-rule:nonzero;stroke:none" /><path
           d="m 132.288,26.546 0.892,0 0,-5.574 -0.892,0 0,5.574 z m 0.457,1.414 c -0.159,0 -0.296,0.055 -0.408,0.164 -0.112,0.108 -0.168,0.246 -0.168,0.413 0,0.167 0.056,0.306 0.168,0.416 0.112,0.111 0.249,0.166 0.408,0.166 0.163,0 0.303,-0.055 0.416,-0.166 0.114,-0.11 0.171,-0.249 0.171,-0.416 0,-0.159 -0.057,-0.296 -0.171,-0.408 -0.113,-0.113 -0.253,-0.169 -0.416,-0.169"
           id="path40"
           style="fill:#4f4c4d;fill-opacity:1;fill-rule:nonzero;stroke:none" /><path
           d="m 134.649,21.175 0,0.957 c 0.487,-0.359 1.022,-0.539 1.606,-0.539 0.784,0 1.176,0.261 1.176,0.784 0,0.149 -0.035,0.274 -0.101,0.378 -0.067,0.104 -0.158,0.195 -0.272,0.275 -0.115,0.079 -0.249,0.151 -0.404,0.215 -0.153,0.063 -0.32,0.13 -0.497,0.198 -0.247,0.098 -0.464,0.197 -0.65,0.297 -0.187,0.1 -0.343,0.212 -0.469,0.338 -0.125,0.124 -0.219,0.268 -0.282,0.427 -0.064,0.16 -0.096,0.346 -0.096,0.56 0,0.261 0.061,0.492 0.181,0.694 0.119,0.201 0.279,0.37 0.478,0.506 0.2,0.136 0.428,0.239 0.683,0.307 0.256,0.069 0.519,0.104 0.792,0.104 0.482,0 0.914,-0.083 1.295,-0.25 l 0,-0.904 c -0.41,0.269 -0.882,0.403 -1.415,0.403 -0.167,0 -0.318,-0.019 -0.451,-0.057 -0.135,-0.038 -0.25,-0.092 -0.346,-0.161 -0.097,-0.069 -0.171,-0.152 -0.224,-0.247 -0.052,-0.097 -0.078,-0.203 -0.078,-0.319 0,-0.145 0.026,-0.266 0.078,-0.364 0.053,-0.098 0.13,-0.185 0.232,-0.262 0.1,-0.076 0.224,-0.145 0.37,-0.207 0.144,-0.061 0.31,-0.128 0.495,-0.201 0.247,-0.094 0.468,-0.19 0.664,-0.291 0.195,-0.099 0.362,-0.213 0.501,-0.337 0.138,-0.125 0.243,-0.27 0.318,-0.432 0.075,-0.164 0.112,-0.359 0.112,-0.583 0,-0.276 -0.061,-0.515 -0.183,-0.718 -0.121,-0.203 -0.283,-0.373 -0.487,-0.506 -0.203,-0.135 -0.438,-0.234 -0.701,-0.301 -0.265,-0.064 -0.543,-0.096 -0.833,-0.096 -0.574,0 -1.071,0.11 -1.492,0.332"
           id="path42"
           style="fill:#4f4c4d;fill-opacity:1;fill-rule:nonzero;stroke:none" /><path
           d="m 143.515,21.228 c -0.429,-0.257 -0.936,-0.385 -1.524,-0.385 -0.795,0 -1.435,0.258 -1.924,0.775 -0.488,0.517 -0.732,1.187 -0.732,2.011 0,0.918 0.264,1.654 0.789,2.212 0.526,0.556 1.229,0.835 2.106,0.835 0.49,0 0.921,-0.09 1.295,-0.273 l 0,-0.913 c -0.413,0.289 -0.856,0.435 -1.327,0.435 -0.57,0 -1.037,-0.204 -1.402,-0.613 -0.364,-0.408 -0.547,-0.943 -0.547,-1.607 0,-0.653 0.172,-1.169 0.515,-1.546 0.343,-0.378 0.802,-0.566 1.38,-0.566 0.486,0 0.942,0.162 1.371,0.485 l 0,-0.85"
           id="path44"
           style="fill:#4f4c4d;fill-opacity:1;fill-rule:nonzero;stroke:none" /><path
           d="m 147.26,25.925 c -0.573,0 -1.028,-0.196 -1.362,-0.585 -0.334,-0.39 -0.501,-0.928 -0.501,-1.614 0,-0.66 0.169,-1.18 0.506,-1.561 0.338,-0.382 0.789,-0.572 1.357,-0.572 0.575,0 1.018,0.187 1.329,0.56 0.31,0.374 0.466,0.905 0.466,1.595 0,0.697 -0.156,1.233 -0.466,1.611 -0.311,0.377 -0.754,0.566 -1.329,0.566 z m -0.067,-5.082 c -0.823,0 -1.481,0.259 -1.972,0.78 -0.492,0.52 -0.738,1.211 -0.738,2.071 0,0.936 0.256,1.667 0.768,2.193 0.512,0.526 1.202,0.789 2.073,0.789 0.83,0 1.48,-0.256 1.946,-0.768 0.466,-0.511 0.699,-1.22 0.699,-2.127 0,-0.89 -0.251,-1.601 -0.754,-2.136 -0.502,-0.535 -1.176,-0.802 -2.022,-0.802"
           id="path46"
           style="fill:#4f4c4d;fill-opacity:1;fill-rule:nonzero;stroke:none" /><path
           d="m 155.775,26.546 -2.22,-5.574 -0.876,0 -2.112,5.574 0.98,0 1.415,-4.049 c 0.105,-0.298 0.17,-0.558 0.196,-0.779 l 0.022,0 c 0.036,0.28 0.093,0.532 0.174,0.756 l 1.48,4.072 0.941,0"
           id="path48"
           style="fill:#4f4c4d;fill-opacity:1;fill-rule:nonzero;stroke:none" /><path
           d="m 160.297,24.292 c -0.004,0.515 -0.127,0.917 -0.372,1.203 -0.245,0.286 -0.585,0.43 -1.021,0.43 -0.421,0 -0.778,-0.151 -1.072,-0.452 -0.294,-0.301 -0.476,-0.694 -0.544,-1.181 l 3.009,0 z m 0.914,-0.756 -3.934,0 c 0.014,-0.62 0.181,-1.099 0.5,-1.437 0.321,-0.337 0.758,-0.506 1.318,-0.506 0.628,0 1.204,0.208 1.73,0.62 l 0,-0.838 c -0.49,-0.355 -1.137,-0.532 -1.942,-0.532 -0.788,0 -1.406,0.253 -1.857,0.758 -0.449,0.506 -0.673,1.218 -0.673,2.137 0,0.867 0.245,1.572 0.737,2.119 0.491,0.546 1.101,0.819 1.831,0.819 0.728,0 1.293,-0.236 1.692,-0.708 0.4,-0.471 0.598,-1.126 0.598,-1.964 l 0,-0.468"
           id="path50"
           style="fill:#4f4c4d;fill-opacity:1;fill-rule:nonzero;stroke:none" /><path
           d="m 165.468,25.642 c -0.157,0.12 -0.382,0.179 -0.676,0.179 -0.381,0 -0.699,-0.179 -0.954,-0.538 -0.257,-0.359 -0.385,-0.85 -0.385,-1.47 l 0,-2.841 -0.892,0 0,5.574 0.892,0 0,-1.149 0.022,0 c 0.128,0.392 0.322,0.698 0.583,0.917 0.26,0.22 0.553,0.329 0.876,0.329 0.232,0 0.41,-0.026 0.534,-0.076 l 0,-0.925"
           id="path52"
           style="fill:#4f4c4d;fill-opacity:1;fill-rule:nonzero;stroke:none" /><path
           d="m 169.532,23.792 -1.344,-0.185 c -0.414,-0.058 -0.726,-0.161 -0.936,-0.307 -0.21,-0.148 -0.314,-0.409 -0.314,-0.782 0,-0.272 0.095,-0.494 0.29,-0.667 0.194,-0.171 0.453,-0.258 0.775,-0.258 0.443,0 0.809,0.155 1.097,0.465 0.288,0.311 0.432,0.704 0.432,1.178 l 0,0.556 z m 0.893,-2.82 -0.893,0 0,0.872 -0.022,0 c -0.387,-0.667 -0.959,-1.001 -1.713,-1.001 -0.556,0 -0.989,0.146 -1.304,0.441 -0.314,0.293 -0.472,0.683 -0.472,1.169 0,1.041 0.615,1.647 1.84,1.817 l 1.671,0.235 c 0,0.946 -0.383,1.42 -1.148,1.42 -0.671,0 -1.277,-0.229 -1.818,-0.686 l 0,0.914 c 0.548,0.349 1.18,0.523 1.894,0.523 1.311,0 1.965,-0.693 1.965,-2.079 l 0,-3.625"
           id="path54"
           style="fill:#4f4c4d;fill-opacity:1;fill-rule:nonzero;stroke:none" /><path
           d="m 172.998,24.025 0,-0.777 c 0,-0.461 0.15,-0.852 0.449,-1.173 0.3,-0.321 0.68,-0.482 1.141,-0.482 0.54,0 0.964,0.208 1.27,0.62 0.307,0.414 0.46,0.99 0.46,1.726 0,0.62 -0.143,1.106 -0.429,1.458 -0.287,0.352 -0.675,0.528 -1.165,0.528 -0.519,0 -0.936,-0.181 -1.251,-0.541 -0.316,-0.362 -0.475,-0.814 -0.475,-1.359 z m 0.023,-2.247 -0.023,0 0,-0.806 -0.892,0 0,8.25 0.892,0 0,-3.657 0.023,0 c 0.439,0.741 1.081,1.111 1.926,1.111 0.715,0 1.275,-0.249 1.679,-0.748 0.404,-0.499 0.607,-1.167 0.607,-2.006 0,-0.933 -0.227,-1.678 -0.68,-2.24 -0.454,-0.559 -1.074,-0.839 -1.862,-0.839 -0.736,0 -1.294,0.311 -1.67,0.935"
           id="path56"
           style="fill:#4f4c4d;fill-opacity:1;fill-rule:nonzero;stroke:none" /><path
           d="m 178.658,29.222 0.893,0 0,-8.25 -0.893,0 0,8.25 z"
           id="path58"
           style="fill:#4f4c4d;fill-opacity:1;fill-rule:nonzero;stroke:none" /><path
           d="m 184.922,24.292 c -0.004,0.515 -0.129,0.917 -0.373,1.203 -0.244,0.286 -0.585,0.43 -1.021,0.43 -0.42,0 -0.777,-0.151 -1.071,-0.452 -0.294,-0.301 -0.476,-0.694 -0.545,-1.181 l 3.01,0 z m 0.914,-0.756 -3.935,0 c 0.015,-0.62 0.182,-1.099 0.501,-1.437 0.32,-0.337 0.758,-0.506 1.318,-0.506 0.627,0 1.203,0.208 1.73,0.62 l 0,-0.838 c -0.49,-0.355 -1.137,-0.532 -1.943,-0.532 -0.787,0 -1.406,0.253 -1.856,0.758 -0.45,0.506 -0.675,1.218 -0.675,2.137 0,0.867 0.246,1.572 0.738,2.119 0.491,0.546 1.101,0.819 1.831,0.819 0.729,0 1.293,-0.236 1.692,-0.708 0.4,-0.471 0.599,-1.126 0.599,-1.964 l 0,-0.468"
           id="path60"
           style="fill:#4f4c4d;fill-opacity:1;fill-rule:nonzero;stroke:none" /><path
           d="m 26.716,28.395 c -0.821,0 -1.487,-0.296 -1.998,-0.886 -0.512,-0.593 -0.768,-1.37 -0.768,-2.329 0,-0.962 0.248,-1.737 0.748,-2.322 0.5,-0.586 1.151,-0.88 1.951,-0.88 0.856,0 1.532,0.281 2.026,0.838 0.492,0.56 0.74,1.341 0.74,2.347 0,1.03 -0.24,1.826 -0.719,2.389 -0.48,0.562 -1.14,0.843 -1.98,0.843 z m -0.067,-7.238 c -1.107,0 -1.992,0.364 -2.658,1.094 -0.666,0.729 -0.998,1.678 -0.998,2.846 0,1.255 0.338,2.256 1.018,3.004 0.677,0.747 1.601,1.121 2.769,1.121 1.078,0 1.946,-0.363 2.604,-1.088 0.658,-0.726 0.988,-1.674 0.988,-2.846 0,-1.274 -0.338,-2.28 -1.012,-3.021 -0.675,-0.74 -1.58,-1.11 -2.711,-1.11"
           id="path62"
           style="fill:#4f4c4d;fill-opacity:1;fill-rule:nonzero;stroke:none" /><path
           d="m 32.679,24.342 0,-0.779 c 0,-0.462 0.15,-0.852 0.449,-1.174 0.299,-0.321 0.68,-0.481 1.141,-0.481 0.539,0 0.962,0.207 1.271,0.621 0.305,0.414 0.459,0.988 0.459,1.725 0,0.62 -0.145,1.106 -0.43,1.458 -0.287,0.352 -0.675,0.528 -1.166,0.528 -0.517,0 -0.935,-0.181 -1.25,-0.542 -0.316,-0.36 -0.474,-0.812 -0.474,-1.356 z m 0.021,-2.248 -0.021,0 0,-3.37 -0.893,0 0,8.136 0.893,0 0,-0.979 0.021,0 c 0.44,0.74 1.082,1.11 1.928,1.11 0.717,0 1.277,-0.249 1.682,-0.748 0.402,-0.499 0.603,-1.167 0.603,-2.005 0,-0.933 -0.227,-1.68 -0.68,-2.24 -0.455,-0.561 -1.074,-0.841 -1.861,-0.841 -0.723,0 -1.279,0.312 -1.672,0.937"
           id="path64"
           style="fill:#4f4c4d;fill-opacity:1;fill-rule:nonzero;stroke:none" /><path
           d="m 41.903,24.607 c -0.004,0.516 -0.129,0.916 -0.373,1.203 -0.244,0.286 -0.586,0.43 -1.021,0.43 -0.42,0 -0.778,-0.15 -1.071,-0.451 -0.294,-0.302 -0.476,-0.695 -0.544,-1.182 l 3.009,0 z m 0.914,-0.756 -3.933,0 c 0.013,-0.621 0.179,-1.099 0.5,-1.437 0.318,-0.337 0.758,-0.506 1.316,-0.506 0.627,0 1.205,0.207 1.731,0.621 l 0,-0.838 c -0.491,-0.356 -1.137,-0.534 -1.944,-0.534 -0.787,0 -1.406,0.254 -1.855,0.759 -0.449,0.507 -0.674,1.219 -0.674,2.137 0,0.867 0.244,1.573 0.736,2.12 0.493,0.546 1.104,0.818 1.832,0.818 0.729,0 1.293,-0.235 1.692,-0.708 0.4,-0.471 0.599,-1.126 0.599,-1.964 l 0,-0.468"
           id="path66"
           style="fill:#4f4c4d;fill-opacity:1;fill-rule:nonzero;stroke:none" /><path
           d="m 48.792,21.288 -0.893,0 0,3.178 c 0,1.182 -0.431,1.774 -1.295,1.774 -0.445,0 -0.814,-0.168 -1.107,-0.503 -0.293,-0.336 -0.437,-0.76 -0.437,-1.271 l 0,-3.178 -0.893,0 0,5.572 0.893,0 0,-0.925 0.021,0 c 0.422,0.704 1.029,1.056 1.828,1.056 0.61,0 1.076,-0.197 1.399,-0.591 0.324,-0.392 0.484,-0.962 0.484,-1.706 l 0,-3.406"
           id="path68"
           style="fill:#4f4c4d;fill-opacity:1;fill-rule:nonzero;stroke:none" /><path
           d="m 68.166,20.972 -4.136,0 0,7.803 3.962,0 0,-0.826 -3.047,0 0,-2.596 2.819,0 0,-0.822 -2.819,0 0,-2.731 3.221,0 0,-0.828"
           id="path70"
           style="fill:#4f4c4d;fill-opacity:1;fill-rule:nonzero;stroke:none" /><path
           d="m 73.62,26.545 -1.873,-2.82 1.84,-2.753 -1.04,0 -1.093,1.806 c -0.069,0.113 -0.151,0.254 -0.245,0.426 l -0.023,0 c -0.017,-0.033 -0.103,-0.175 -0.254,-0.426 l -1.116,-1.806 -1.029,0 1.899,2.732 -1.817,2.841 1.039,0 1.077,-1.906 c 0.08,-0.14 0.159,-0.286 0.235,-0.435 l 0.021,0 1.394,2.341 0.985,0"
           id="path72"
           style="fill:#4f4c4d;fill-opacity:1;fill-rule:nonzero;stroke:none" /><path
           d="m 78.229,24.291 c -0.003,0.515 -0.128,0.917 -0.374,1.203 -0.245,0.287 -0.584,0.43 -1.019,0.43 -0.422,0 -0.779,-0.151 -1.073,-0.452 -0.292,-0.301 -0.475,-0.694 -0.544,-1.181 l 3.01,0 z m 0.914,-0.756 -3.934,0 c 0.014,-0.62 0.18,-1.099 0.5,-1.437 0.319,-0.337 0.758,-0.505 1.317,-0.505 0.627,0 1.204,0.207 1.731,0.62 l 0,-0.838 c -0.489,-0.356 -1.138,-0.533 -1.943,-0.533 -0.787,0 -1.406,0.253 -1.857,0.758 -0.449,0.506 -0.673,1.218 -0.673,2.137 0,0.867 0.244,1.573 0.736,2.119 0.492,0.546 1.103,0.82 1.832,0.82 0.73,0 1.294,-0.237 1.693,-0.708 0.398,-0.472 0.598,-1.126 0.598,-1.965 l 0,-0.468"
           id="path74"
           style="fill:#4f4c4d;fill-opacity:1;fill-rule:nonzero;stroke:none" /><path
           d="m 84.291,21.227 c -0.428,-0.256 -0.937,-0.385 -1.523,-0.385 -0.795,0 -1.436,0.258 -1.923,0.775 -0.49,0.517 -0.733,1.187 -0.733,2.011 0,0.918 0.263,1.655 0.789,2.212 0.526,0.557 1.228,0.836 2.107,0.836 0.49,0 0.922,-0.091 1.295,-0.273 l 0,-0.914 c -0.414,0.29 -0.858,0.435 -1.328,0.435 -0.571,0 -1.038,-0.203 -1.403,-0.612 -0.364,-0.408 -0.546,-0.944 -0.546,-1.608 0,-0.653 0.171,-1.169 0.513,-1.546 0.344,-0.377 0.804,-0.565 1.381,-0.565 0.486,0 0.943,0.161 1.371,0.484 l 0,-0.85"
           id="path76"
           style="fill:#4f4c4d;fill-opacity:1;fill-rule:nonzero;stroke:none" /><path
           d="m 90.147,20.972 -0.893,0 0,0.881 -0.022,0 c -0.37,-0.674 -0.943,-1.011 -1.718,-1.011 -1.329,0 -1.993,0.79 -1.993,2.372 l 0,3.331 0.887,0 0,-3.19 c 0,-1.175 0.45,-1.762 1.35,-1.762 0.435,0 0.794,0.16 1.074,0.481 0.281,0.321 0.422,0.741 0.422,1.26 l 0,3.211 0.893,0 0,-5.573"
           id="path78"
           style="fill:#4f4c4d;fill-opacity:1;fill-rule:nonzero;stroke:none" /><path
           d="M 94.533,21.026 C 94.322,20.91 94.045,20.851 93.7,20.851 c -0.975,0 -1.462,0.545 -1.462,1.633 l 0,3.299 -0.959,0 0,0.762 0.959,0 0,1.36 0.892,0.288 0,-1.648 1.403,0 0,-0.762 -1.403,0 0,-3.141 c 0,-0.373 0.063,-0.639 0.19,-0.798 0.126,-0.161 0.337,-0.241 0.631,-0.241 0.226,0 0.42,0.062 0.582,0.186 l 0,-0.763"
           id="path80"
           style="fill:#4f4c4d;fill-opacity:1;fill-rule:nonzero;stroke:none" /><path
           d="m 98.822,23.791 -1.344,-0.185 c -0.414,-0.057 -0.726,-0.161 -0.937,-0.307 -0.209,-0.147 -0.314,-0.408 -0.314,-0.782 0,-0.271 0.096,-0.494 0.291,-0.666 0.194,-0.172 0.451,-0.258 0.774,-0.258 0.443,0 0.81,0.155 1.097,0.464 0.289,0.311 0.433,0.704 0.433,1.178 l 0,0.556 z m 0.893,-2.819 -0.893,0 0,0.872 -0.021,0 c -0.389,-0.668 -0.961,-1.002 -1.715,-1.002 -0.555,0 -0.99,0.146 -1.303,0.441 -0.314,0.293 -0.471,0.683 -0.471,1.169 0,1.041 0.614,1.647 1.839,1.817 l 1.671,0.235 c 0,0.946 -0.383,1.42 -1.148,1.42 -0.672,0 -1.278,-0.229 -1.818,-0.686 l 0,0.914 c 0.547,0.349 1.179,0.524 1.893,0.524 1.31,0 1.966,-0.694 1.966,-2.08 l 0,-3.624"
           id="path82"
           style="fill:#4f4c4d;fill-opacity:1;fill-rule:nonzero;stroke:none" /><path
           d="m 102.289,24.025 0,-0.778 c 0,-0.461 0.149,-0.852 0.448,-1.173 0.299,-0.321 0.68,-0.481 1.141,-0.481 0.54,0 0.963,0.207 1.269,0.62 0.308,0.414 0.461,0.989 0.461,1.725 0,0.62 -0.143,1.106 -0.43,1.458 -0.286,0.352 -0.675,0.528 -1.164,0.528 -0.52,0 -0.936,-0.18 -1.251,-0.541 -0.317,-0.362 -0.474,-0.814 -0.474,-1.358 z m 0.022,-2.248 -0.022,0 0,-0.805 -0.893,0 0,8.25 0.893,0 0,-3.658 0.022,0 c 0.439,0.741 1.08,1.112 1.925,1.112 0.715,0 1.275,-0.25 1.679,-0.749 0.405,-0.499 0.607,-1.167 0.607,-2.005 0,-0.934 -0.227,-1.679 -0.68,-2.241 -0.453,-0.559 -1.074,-0.839 -1.861,-0.839 -0.737,0 -1.293,0.311 -1.67,0.935"
           id="path84"
           style="fill:#4f4c4d;fill-opacity:1;fill-rule:nonzero;stroke:none" /><path
           d="m 107.948,29.222 0.893,0 0,-8.25 -0.893,0 0,8.25 z"
           id="path86"
           style="fill:#4f4c4d;fill-opacity:1;fill-rule:nonzero;stroke:none" /><path
           d="m 114.213,24.291 c -0.004,0.515 -0.129,0.917 -0.374,1.203 -0.245,0.287 -0.584,0.43 -1.02,0.43 -0.422,0 -0.779,-0.151 -1.073,-0.452 -0.293,-0.301 -0.475,-0.694 -0.544,-1.181 l 3.011,0 z m 0.913,-0.756 -3.934,0 c 0.014,-0.62 0.181,-1.099 0.499,-1.437 0.321,-0.337 0.76,-0.505 1.319,-0.505 0.627,0 1.204,0.207 1.73,0.62 l 0,-0.838 c -0.49,-0.356 -1.137,-0.533 -1.942,-0.533 -0.788,0 -1.406,0.253 -1.857,0.758 -0.449,0.506 -0.673,1.218 -0.673,2.137 0,0.867 0.244,1.573 0.736,2.119 0.491,0.546 1.102,0.82 1.832,0.82 0.728,0 1.293,-0.237 1.691,-0.708 0.4,-0.472 0.599,-1.126 0.599,-1.965 l 0,-0.468"
           id="path88"
           style="fill:#4f4c4d;fill-opacity:1;fill-rule:nonzero;stroke:none" /><path
           d="m 193.771,27.949 0,-2.83 1.241,0 c 0.226,0 0.439,0.035 0.633,0.103 0.195,0.07 0.363,0.168 0.503,0.296 0.141,0.129 0.252,0.287 0.332,0.474 0.079,0.188 0.12,0.396 0.12,0.629 0,0.418 -0.135,0.743 -0.405,0.976 -0.271,0.236 -0.662,0.352 -1.174,0.352 l -1.25,0 z m 4.68,-6.977 -1.09,0 -1.304,2.188 c -0.121,0.203 -0.237,0.376 -0.35,0.52 -0.111,0.143 -0.228,0.259 -0.346,0.351 -0.119,0.091 -0.244,0.156 -0.381,0.198 -0.136,0.041 -0.289,0.063 -0.459,0.063 l -0.75,0 0,-3.32 -0.916,0 0,7.804 2.331,0 c 0.339,0 0.654,-0.043 0.943,-0.129 0.289,-0.084 0.539,-0.214 0.752,-0.388 0.211,-0.174 0.379,-0.392 0.496,-0.65 0.121,-0.261 0.182,-0.563 0.182,-0.911 0,-0.273 -0.043,-0.522 -0.123,-0.749 -0.082,-0.227 -0.198,-0.429 -0.348,-0.607 -0.152,-0.177 -0.332,-0.329 -0.545,-0.454 -0.213,-0.125 -0.451,-0.222 -0.715,-0.292 l 0,-0.021 c 0.129,-0.058 0.242,-0.124 0.338,-0.198 0.098,-0.074 0.189,-0.163 0.277,-0.264 0.086,-0.102 0.172,-0.218 0.258,-0.347 0.084,-0.128 0.18,-0.278 0.285,-0.448 l 1.465,-2.346"
           id="path90"
           style="fill:#4f4c4d;fill-opacity:1;fill-rule:nonzero;stroke:none" /><path
           d="m 202.967,24.292 c -0.004,0.514 -0.129,0.917 -0.373,1.203 -0.244,0.286 -0.584,0.429 -1.02,0.429 -0.422,0 -0.779,-0.151 -1.072,-0.451 -0.293,-0.301 -0.475,-0.695 -0.545,-1.181 l 3.01,0 z m 0.914,-0.756 -3.934,0 c 0.014,-0.621 0.18,-1.099 0.5,-1.438 0.319,-0.336 0.758,-0.505 1.317,-0.505 0.629,0 1.205,0.207 1.73,0.62 l 0,-0.838 c -0.488,-0.356 -1.137,-0.533 -1.941,-0.533 -0.787,0 -1.407,0.254 -1.858,0.759 -0.449,0.506 -0.674,1.218 -0.674,2.136 0,0.867 0.247,1.573 0.739,2.12 0.49,0.545 1.101,0.819 1.83,0.819 0.73,0 1.295,-0.236 1.693,-0.708 0.399,-0.472 0.598,-1.126 0.598,-1.965 l 0,-0.467"
           id="path92"
           style="fill:#4f4c4d;fill-opacity:1;fill-rule:nonzero;stroke:none" /><path
           d="m 206.123,24.025 0,-0.778 c 0,-0.46 0.15,-0.852 0.449,-1.172 0.299,-0.322 0.68,-0.482 1.141,-0.482 0.541,0 0.963,0.207 1.269,0.62 0.307,0.414 0.461,0.989 0.461,1.725 0,0.62 -0.144,1.107 -0.429,1.458 -0.287,0.353 -0.676,0.528 -1.166,0.528 -0.518,0 -0.936,-0.18 -1.25,-0.541 -0.317,-0.362 -0.475,-0.813 -0.475,-1.358 z m 0.022,-2.247 -0.022,0 0,-3.368 -0.893,0 0,8.135 0.893,0 0,-0.98 0.022,0 c 0.439,0.74 1.082,1.111 1.927,1.111 0.717,0 1.278,-0.249 1.682,-0.748 0.402,-0.5 0.603,-1.167 0.603,-2.006 0,-0.933 -0.228,-1.678 -0.681,-2.24 -0.453,-0.56 -1.072,-0.84 -1.86,-0.84 -0.722,0 -1.279,0.311 -1.671,0.936"
           id="path94"
           style="fill:#4f4c4d;fill-opacity:1;fill-rule:nonzero;stroke:none" /><path
           d="m 214.689,25.641 c -0.156,0.121 -0.38,0.179 -0.675,0.179 -0.381,0 -0.698,-0.179 -0.953,-0.537 -0.258,-0.359 -0.385,-0.85 -0.385,-1.471 l 0,-2.84 -0.893,0 0,5.573 0.893,0 0,-1.149 0.021,0 c 0.127,0.393 0.323,0.699 0.582,0.918 0.262,0.22 0.555,0.329 0.877,0.329 0.233,0 0.41,-0.026 0.533,-0.077 l 0,-0.925"
           id="path96"
           style="fill:#4f4c4d;fill-opacity:1;fill-rule:nonzero;stroke:none" /><path
           d="m 218.053,25.924 c -0.574,0 -1.028,-0.195 -1.362,-0.584 -0.332,-0.39 -0.5,-0.928 -0.5,-1.615 0,-0.66 0.168,-1.179 0.506,-1.56 0.338,-0.382 0.789,-0.572 1.356,-0.572 0.576,0 1.021,0.186 1.33,0.56 0.31,0.373 0.465,0.905 0.465,1.595 0,0.697 -0.155,1.233 -0.465,1.611 -0.309,0.377 -0.754,0.565 -1.33,0.565 z m -0.067,-5.082 c -0.822,0 -1.48,0.259 -1.972,0.781 -0.491,0.52 -0.737,1.211 -0.737,2.071 0,0.935 0.256,1.666 0.768,2.193 0.512,0.526 1.203,0.789 2.072,0.789 0.832,0 1.481,-0.256 1.946,-0.768 0.466,-0.512 0.699,-1.221 0.699,-2.127 0,-0.89 -0.25,-1.601 -0.752,-2.137 -0.504,-0.535 -1.178,-0.802 -2.024,-0.802"
           id="path98"
           style="fill:#4f4c4d;fill-opacity:1;fill-rule:nonzero;stroke:none" /><path
           d="m 226.051,23.492 0,0.821 c 0,0.451 -0.149,0.831 -0.446,1.144 -0.296,0.312 -0.675,0.467 -1.13,0.467 -0.545,0 -0.973,-0.2 -1.286,-0.598 -0.312,-0.398 -0.466,-0.951 -0.466,-1.654 0,-0.642 0.148,-1.15 0.447,-1.522 0.299,-0.371 0.701,-0.557 1.205,-0.557 0.498,0 0.902,0.18 1.213,0.539 0.308,0.359 0.463,0.812 0.463,1.36 z m 0.892,-2.52 -0.892,0 0,0.948 -0.022,0 c -0.412,-0.719 -1.052,-1.078 -1.916,-1.078 -0.697,0 -1.258,0.25 -1.677,0.748 -0.42,0.499 -0.629,1.179 -0.629,2.039 0,0.921 0.232,1.659 0.697,2.215 0.465,0.554 1.082,0.832 1.855,0.832 0.766,0 1.323,-0.301 1.67,-0.904 l 0.022,0 0,3.45 0.892,0 0,-8.25"
           id="path100"
           style="fill:#4f4c4d;fill-opacity:1;fill-rule:nonzero;stroke:none" /><path
           d="m 233.258,20.972 -0.893,0 0,0.881 -0.021,0 c -0.371,-0.673 -0.944,-1.011 -1.721,-1.011 -1.328,0 -1.992,0.791 -1.992,2.373 l 0,3.33 0.889,0 0,-3.19 c 0,-1.175 0.449,-1.762 1.347,-1.762 0.436,0 0.795,0.16 1.076,0.482 0.282,0.32 0.422,0.741 0.422,1.259 l 0,3.211 0.893,0 0,-5.573"
           id="path102"
           style="fill:#4f4c4d;fill-opacity:1;fill-rule:nonzero;stroke:none" /><path
           d="m 238.857,21.227 c -0.427,-0.256 -0.937,-0.385 -1.523,-0.385 -0.795,0 -1.438,0.258 -1.924,0.776 -0.488,0.516 -0.732,1.187 -0.732,2.011 0,0.917 0.263,1.654 0.789,2.212 0.527,0.556 1.228,0.835 2.107,0.835 0.489,0 0.92,-0.09 1.295,-0.273 l 0,-0.914 c -0.414,0.29 -0.857,0.435 -1.328,0.435 -0.57,0 -1.037,-0.203 -1.402,-0.612 -0.366,-0.408 -0.547,-0.944 -0.547,-1.608 0,-0.652 0.172,-1.168 0.513,-1.545 0.344,-0.378 0.803,-0.566 1.381,-0.566 0.487,0 0.944,0.161 1.371,0.484 l 0,-0.85"
           id="path104"
           style="fill:#4f4c4d;fill-opacity:1;fill-rule:nonzero;stroke:none" /><path
           d="m 240.205,26.545 0.895,0 0,-5.573 -0.895,0 0,5.573 z m 0.459,1.415 c -0.16,0 -0.297,0.054 -0.408,0.163 -0.113,0.109 -0.168,0.247 -0.168,0.414 0,0.167 0.055,0.305 0.168,0.416 0.111,0.111 0.248,0.165 0.408,0.165 0.164,0 0.303,-0.054 0.416,-0.165 0.115,-0.111 0.172,-0.249 0.172,-0.416 0,-0.159 -0.057,-0.296 -0.172,-0.408 -0.113,-0.113 -0.252,-0.169 -0.416,-0.169"
           id="path106"
           style="fill:#4f4c4d;fill-opacity:1;fill-rule:nonzero;stroke:none" /><path
           d="m 243.799,24.025 0,-0.778 c 0,-0.46 0.15,-0.852 0.449,-1.172 0.299,-0.322 0.68,-0.482 1.139,-0.482 0.541,0 0.965,0.207 1.271,0.62 0.307,0.414 0.459,0.989 0.459,1.725 0,0.62 -0.142,1.107 -0.428,1.458 -0.287,0.353 -0.675,0.528 -1.166,0.528 -0.517,0 -0.937,-0.18 -1.252,-0.541 -0.314,-0.362 -0.472,-0.813 -0.472,-1.358 z m 0.021,-2.247 -0.021,0 0,-0.806 -0.893,0 0,8.25 0.893,0 0,-3.657 0.021,0 c 0.44,0.74 1.082,1.111 1.928,1.111 0.713,0 1.273,-0.249 1.678,-0.748 0.404,-0.5 0.607,-1.167 0.607,-2.006 0,-0.933 -0.228,-1.678 -0.681,-2.24 -0.454,-0.56 -1.073,-0.84 -1.862,-0.84 -0.736,0 -1.293,0.311 -1.67,0.936"
           id="path108"
           style="fill:#4f4c4d;fill-opacity:1;fill-rule:nonzero;stroke:none" /><path
           d="m 249.457,29.222 0.895,0 0,-8.25 -0.895,0 0,8.25 z"
           id="path110"
           style="fill:#4f4c4d;fill-opacity:1;fill-rule:nonzero;stroke:none" /><path
           d="m 255.721,24.292 c -0.002,0.514 -0.127,0.917 -0.371,1.203 -0.246,0.286 -0.586,0.429 -1.022,0.429 -0.42,0 -0.777,-0.151 -1.07,-0.451 -0.295,-0.301 -0.477,-0.695 -0.545,-1.181 l 3.008,0 z m 0.916,-0.756 -3.936,0 c 0.016,-0.621 0.182,-1.099 0.502,-1.438 0.318,-0.336 0.758,-0.505 1.317,-0.505 0.626,0 1.205,0.207 1.73,0.62 l 0,-0.838 c -0.49,-0.356 -1.139,-0.533 -1.943,-0.533 -0.787,0 -1.407,0.254 -1.856,0.759 -0.449,0.506 -0.676,1.218 -0.676,2.136 0,0.867 0.246,1.573 0.739,2.12 0.492,0.545 1.103,0.819 1.83,0.819 0.73,0 1.295,-0.236 1.693,-0.708 0.399,-0.472 0.6,-1.126 0.6,-1.965 l 0,-0.467"
           id="path112"
           style="fill:#4f4c4d;fill-opacity:1;fill-rule:nonzero;stroke:none" /><path
           d="m 33.935,60.462 0.485,0.425 -5.399,6.284 -0.494,-0.426 5.408,-6.283"
           id="path114"
           style="fill:#4f4c4d;fill-opacity:1;fill-rule:nonzero;stroke:none" /><path
           d="m 34.164,60.348 0.033,0.649 -8.187,0.41 -0.032,-0.646 8.186,-0.413"
           id="path116"
           style="fill:#4f4c4d;fill-opacity:1;fill-rule:nonzero;stroke:none" /><path
           d="m 26.291,60.939 2.769,5.883 -0.58,0.276 -2.781,-5.879 0.592,-0.28"
           id="path118"
           style="fill:#4f4c4d;fill-opacity:1;fill-rule:nonzero;stroke:none" /><path
           d="m 30.152,66.11 c 0.463,0.762 0.233,1.756 -0.527,2.225 -0.76,0.468 -1.758,0.232 -2.227,-0.528 -0.466,-0.759 -0.228,-1.754 0.528,-2.223 0.758,-0.471 1.761,-0.235 2.226,0.526"
           id="path120"
           style="fill:#3ca3b1;fill-opacity:1;fill-rule:nonzero;stroke:none" /><path
           d="m 36.316,59.356 c 0.733,1.179 0.362,2.728 -0.818,3.457 -1.188,0.728 -2.73,0.359 -3.461,-0.818 -0.723,-1.186 -0.359,-2.73 0.82,-3.462 1.184,-0.727 2.731,-0.362 3.459,0.823"
           id="path122"
           style="fill:#3ca3b1;fill-opacity:1;fill-rule:nonzero;stroke:none" /><path
           d="m 27.898,59.903 c 0.657,1.059 0.33,2.44 -0.726,3.097 -1.059,0.645 -2.444,0.322 -3.084,-0.737 -0.664,-1.057 -0.328,-2.44 0.726,-3.092 1.057,-0.651 2.44,-0.327 3.084,0.732"
           id="path124"
           style="fill:#3ca3b1;fill-opacity:1;fill-rule:nonzero;stroke:none" /><path
           d="m 38.842,37.215 c -4.006,0 -8.809,0.98 -9.166,3.741 -0.274,2.104 1.476,4.456 3.164,6.733 1.082,1.463 2.207,2.978 2.472,4.072 0.331,1.345 0.29,1.937 0.196,3.124 -0.01,0.207 -0.031,0.432 -0.053,0.674 -0.029,0.493 0.344,0.917 0.838,0.951 0.486,0.024 0.908,-0.339 0.941,-0.83 0.02,-0.236 0.032,-0.458 0.047,-0.661 0.098,-1.241 0.16,-2.061 -0.238,-3.687 -0.357,-1.437 -1.535,-3.023 -2.777,-4.701 -1.409,-1.901 -3.008,-4.052 -2.823,-5.446 0.133,-1.055 3.002,-2.192 7.399,-2.192 4.402,0 7.269,1.137 7.406,2.192 0.176,1.394 -1.416,3.545 -2.832,5.446 -1.242,1.678 -2.418,3.264 -2.775,4.701 -0.407,1.671 -0.172,5.955 0.044,9.033 l 0.008,0.192 c 0.043,0.492 0.463,0.867 0.953,0.827 0.493,-0.034 0.864,-0.457 0.831,-0.946 l -0.016,-0.196 c -0.318,-4.572 -0.35,-7.426 -0.092,-8.481 0.272,-1.094 1.395,-2.609 2.477,-4.072 1.693,-2.277 3.437,-4.629 3.164,-6.733 -0.356,-2.761 -5.158,-3.741 -9.168,-3.741"
           id="path126"
           style="fill:#4f4c4d;fill-opacity:1;fill-rule:nonzero;stroke:none" /><path
           d="m 43.734,42.577 c 0,-2.262 -10.013,-2.447 -10.013,0.154 0,4.367 10.013,3.478 10.013,-0.154"
           id="path128"
           style="fill:#3ca3b1;fill-opacity:1;fill-rule:evenodd;stroke:none" /><path
           d="m 224.536,38.252 c -3.914,0 -8.609,0.955 -8.947,3.653 -0.27,2.055 1.432,4.351 3.086,6.573 1.056,1.427 2.152,2.908 2.412,3.973 0.33,1.313 0.287,1.897 0.197,3.053 -0.017,0.204 -0.033,0.418 -0.045,0.656 -0.041,0.481 0.323,0.896 0.801,0.93 0.479,0.026 0.891,-0.332 0.928,-0.813 0.015,-0.229 0.025,-0.442 0.043,-0.641 0.097,-1.21 0.158,-2.013 -0.231,-3.601 -0.345,-1.402 -1.496,-2.955 -2.715,-4.592 -1.375,-1.853 -2.933,-3.957 -2.761,-5.321 0.14,-1.025 2.933,-2.134 7.232,-2.134 4.297,0 7.094,1.109 7.227,2.134 0.181,1.364 -1.385,3.468 -2.762,5.321 -1.211,1.637 -2.359,3.19 -2.705,4.592 -0.406,1.63 -0.168,5.811 0.043,8.814 l 0.012,0.195 c 0.031,0.477 0.447,0.844 0.925,0.804 0.477,-0.029 0.834,-0.448 0.803,-0.925 l -0.012,-0.191 c -0.314,-4.462 -0.339,-7.253 -0.088,-8.281 0.268,-1.065 1.358,-2.546 2.418,-3.973 1.649,-2.222 3.358,-4.518 3.09,-6.573 -0.351,-2.698 -5.041,-3.653 -8.951,-3.653"
           id="path130"
           style="fill:#4f4c4d;fill-opacity:1;fill-rule:nonzero;stroke:none" /><path
           d="m 229.312,43.484 c 0,-2.21 -9.778,-2.387 -9.778,0.154 0,4.263 9.778,3.394 9.778,-0.154"
           id="path132"
           style="fill:#3ca3b1;fill-opacity:1;fill-rule:evenodd;stroke:none" /><path
           d="m 224.745,32.185 c -8.189,0 -14.849,6.661 -14.849,14.847 0,5.842 3.447,11.156 8.779,13.552 0.429,0.199 0.949,0 1.14,-0.438 0.204,-0.436 0,-0.949 -0.433,-1.148 -4.707,-2.114 -7.748,-6.806 -7.748,-11.966 0,-7.232 5.881,-13.111 13.111,-13.111 7.225,0 13.111,5.879 13.111,13.111 0,6.205 -4.652,11.84 -10.812,13.101 -0.467,0.098 -0.777,0.554 -0.68,1.021 0.094,0.472 0.553,0.777 1.024,0.68 6.959,-1.424 12.207,-7.789 12.207,-14.802 0,-8.186 -6.66,-14.847 -14.85,-14.847"
           id="path134"
           style="fill:#4f4c4d;fill-opacity:1;fill-rule:nonzero;stroke:none" /><path
           d="m 219.198,60.664 1.963,-1.66 -2.416,-0.867 0.453,2.527"
           id="path136"
           style="fill:#4f4c4d;fill-opacity:1;fill-rule:evenodd;stroke:none" /><path
           d="m 218.813,57.189 c -0.246,-0.016 -0.488,0.064 -0.679,0.223 -0.262,0.219 -0.379,0.56 -0.324,0.893 l 0.455,2.529 c 0.062,0.332 0.297,0.605 0.609,0.719 0.324,0.117 0.68,0.054 0.934,-0.166 l 1.968,-1.659 c 0.252,-0.217 0.379,-0.557 0.315,-0.892 -0.053,-0.332 -0.293,-0.609 -0.61,-0.723 l -2.414,-0.867 -0.254,-0.057"
           id="path138"
           style="fill:#4f4c4d;fill-opacity:1;fill-rule:nonzero;stroke:none" /><path
           d="m 90.449,37.215 c -4.002,0 -8.806,0.976 -9.17,3.738 -0.263,2.108 1.483,4.457 3.166,6.734 1.088,1.463 2.207,2.977 2.479,4.072 0.326,1.342 0.287,1.937 0.195,3.123 -0.015,0.206 -0.031,0.429 -0.047,0.673 -0.031,0.495 0.334,0.916 0.828,0.949 0.481,0.026 0.91,-0.339 0.942,-0.826 0.021,-0.243 0.035,-0.457 0.053,-0.663 0.091,-1.241 0.156,-2.059 -0.247,-3.687 -0.355,-1.438 -1.529,-3.022 -2.773,-4.701 -1.408,-1.901 -3.004,-4.052 -2.824,-5.441 0.136,-1.058 3,-2.195 7.398,-2.195 4.403,0 7.272,1.137 7.404,2.195 0.184,1.389 -1.414,3.54 -2.826,5.441 -1.246,1.679 -2.42,3.263 -2.779,4.701 -0.404,1.672 -0.17,5.958 0.045,9.032 l 0.018,0.195 c 0.031,0.489 0.457,0.865 0.951,0.827 0.486,-0.037 0.851,-0.459 0.82,-0.949 L 94.07,60.239 c -0.318,-4.574 -0.345,-7.425 -0.093,-8.48 0.271,-1.095 1.396,-2.609 2.474,-4.072 1.695,-2.277 3.44,-4.626 3.164,-6.734 -0.351,-2.762 -5.156,-3.738 -9.166,-3.738"
           id="path140"
           style="fill:#4f4c4d;fill-opacity:1;fill-rule:nonzero;stroke:none" /><path
           d="m 95.348,42.574 c 0,-2.263 -10.02,-2.446 -10.02,0.157 0,4.364 10.02,3.477 10.02,-0.157"
           id="path142"
           style="fill:#3ca3b1;fill-opacity:1;fill-rule:evenodd;stroke:none" /><path
           d="m 85.512,62.603 c -0.453,0.553 -1.262,0.64 -1.817,0.198 -0.551,-0.448 -0.64,-1.261 -0.199,-1.812 0.447,-0.553 1.262,-0.643 1.816,-0.196 0.555,0.443 0.637,1.256 0.2,1.81 z m -2.299,-1.844 c -0.57,0.71 -0.463,1.754 0.254,2.325 0.713,0.574 1.752,0.46 2.324,-0.252 0.578,-0.71 0.459,-1.752 -0.248,-2.328 -0.713,-0.569 -1.756,-0.456 -2.33,0.255"
           id="path144"
           style="fill:#3ca3b1;fill-opacity:1;fill-rule:nonzero;stroke:none" /><path
           d="m 86.652,63.3 -0.009,0.008 -0.096,0.127 0.029,0.265 0.252,-0.023 0.008,-0.009 0.117,-0.147 -0.049,-0.257 -0.252,0.036 z m -1.998,1.171 -0.041,0.134 c 0.01,0.102 0.102,0.175 0.203,0.161 l 0.196,-0.026 c 0.101,-0.016 0.17,-0.109 0.152,-0.213 -0.023,-0.099 -0.115,-0.164 -0.217,-0.148 l -0.168,0.022 -0.125,0.07 z m 2.469,-3.261 -0.031,0.143 0.023,0.168 c 0.004,0.103 0.094,0.176 0.197,0.166 0.102,-0.01 0.176,-0.103 0.163,-0.205 L 87.451,61.29 C 87.436,61.189 87.34,61.123 87.24,61.139 l -0.117,0.071 z m -4.519,2.654 0.021,0.256 0.117,-0.144 -0.117,0.145 0.158,0.118 0.256,-0.043 -0.043,-0.259 -0.133,-0.101 -0.259,0.028 z m 3.367,-4.478 -0.002,0.008 0.041,0.252 0.134,0.107 0.266,-0.024 -0.021,-0.256 -0.018,-0.012 -0.15,-0.112 -0.25,0.037 z m -4.399,2.593 -0.041,0.136 0.03,0.19 c 0.017,0.101 0.109,0.168 0.208,0.148 0.102,-0.016 0.174,-0.108 0.155,-0.21 l -0.029,-0.168 c -0.01,-0.103 -0.104,-0.178 -0.2,-0.166 l -0.123,0.07 z m 2.305,-3.063 -0.029,0.146 c 0.009,0.102 0.101,0.169 0.207,0.149 l 0.166,-0.023 c 0.103,-0.01 0.173,-0.097 0.17,-0.199 -0.018,-0.103 -0.11,-0.177 -0.207,-0.164 l -0.194,0.023 -0.113,0.068 z m -1.697,1.006 0,0 -0.123,0.153 0.043,0.255 0.263,-0.042 0.096,-0.136 -0.025,-0.261 -0.254,0.031"
           id="path146"
           style="fill:#3ca3b1;fill-opacity:1;fill-rule:nonzero;stroke:none" /><path
           d="m 81.014,59.683 -0.338,-0.276 c 0,-0.021 0.023,-0.199 0.181,-0.408 l 0.018,-0.017 c 0.146,-0.183 0.281,-0.243 0.326,-0.249 l 0.326,0.265 0,0.012 0.116,0.159 0.199,-0.04 c 0.463,-0.465 1.043,-0.798 1.687,-0.969 l 0.133,-0.166 -0.105,-0.183 -0.041,-0.023 -0.041,-0.435 c 0.043,-0.04 0.187,-0.123 0.418,-0.149 0.244,-0.03 0.39,0.026 0.431,0.057 l 0.041,0.418 -0.029,0.023 -0.047,0.204 0.172,0.121 c 0.707,-0.011 1.402,0.181 2.006,0.549 l 0.201,-0.009 0.068,-0.199 -0.011,-0.026 0.285,-0.336 c 0.025,-0.003 0.199,0.026 0.404,0.187 0.188,0.149 0.26,0.299 0.266,0.345 l -0.272,0.325 -0.043,0 -0.187,0.103 0.031,0.209 c 0.445,0.46 0.769,1.027 0.934,1.65 l 0.171,0.137 0.182,-0.123 0.027,-0.061 0.436,-0.05 c 0.02,0.018 0.125,0.16 0.158,0.418 0.031,0.231 -0.015,0.385 -0.056,0.431 l -0.413,0.047 -0.044,-0.049 -0.213,-0.067 -0.121,0.179 c 0.023,0.757 -0.182,1.49 -0.583,2.126 l 0.02,0.222 0.217,0.041 0.064,-0.022 0.342,0.274 c 0.006,0.025 -0.025,0.199 -0.187,0.407 l -0.012,0.023 c -0.145,0.18 -0.281,0.241 -0.322,0.245 l -0.334,-0.263 0.017,-0.113 -0.086,-0.208 -0.224,0.029 c -0.479,0.484 -1.086,0.829 -1.758,0.999 l -0.141,0.185 0.149,0.173 0.131,0.051 0.041,0.437 c -0.041,0.04 -0.192,0.123 -0.42,0.152 -0.237,0.026 -0.395,-0.029 -0.436,-0.059 l -0.033,-0.418 0,-0.002 0.086,-0.065 0.082,-0.213 -0.18,-0.131 c -0.754,0.039 -1.484,-0.143 -2.129,-0.525 l -0.219,0.022 -0.039,0.209 0.016,0.061 -0.275,0.335 c -0.026,0.004 -0.202,-0.025 -0.405,-0.189 -0.185,-0.146 -0.261,-0.295 -0.261,-0.341 l 0.261,-0.325 0.055,0 0.195,-0.1 -0.033,-0.213 c -0.465,-0.455 -0.805,-1.029 -0.984,-1.659 l -0.186,-0.131 -0.174,0.143 -0.048,0.118 -0.434,0.048 c -0.012,-0.019 -0.125,-0.159 -0.154,-0.422 -0.032,-0.228 0.015,-0.383 0.049,-0.43 l 0.423,-0.044 0.051,0.061 0.211,0.07 0.123,-0.19 c -0.047,-0.733 0.111,-1.462 0.475,-2.105 l -0.012,-0.197 -0.188,-0.073 -0.007,0.003 z m -0.424,-0.932 -0.026,0.026 c -0.277,0.364 -0.328,0.753 -0.125,0.919 l 0.348,0.279 c -0.269,0.554 -0.414,1.158 -0.42,1.772 l -0.033,0 -0.447,0.047 c -0.262,0.029 -0.42,0.395 -0.366,0.843 0.063,0.454 0.301,0.765 0.567,0.736 l 0.451,-0.05 0.104,-0.033 c 0.181,0.457 0.439,0.877 0.761,1.242 l -0.021,0.023 -0.291,0.348 c -0.037,0.053 -0.082,0.135 -0.071,0.266 0.02,0.187 0.17,0.414 0.399,0.59 0.314,0.246 0.726,0.368 0.916,0.135 l 0.291,-0.351 0.037,-0.046 c 0.523,0.262 1.098,0.408 1.682,0.431 l 0,0.063 0.045,0.447 c 0.003,0.061 0.029,0.153 0.136,0.235 0.145,0.121 0.411,0.171 0.702,0.139 0.291,-0.038 0.539,-0.147 0.658,-0.3 0.082,-0.096 0.092,-0.193 0.084,-0.255 l -0.045,-0.449 -0.031,-0.12 c 0.474,-0.166 0.904,-0.414 1.285,-0.732 l 0.062,0.059 0.342,0.283 c 0.209,0.166 0.555,0.037 0.836,-0.309 l 0.017,-0.032 c 0.284,-0.361 0.332,-0.75 0.125,-0.917 l -0.347,-0.286 -0.053,-0.028 c 0.287,-0.539 0.443,-1.123 0.475,-1.737 l 0.037,0 0.443,-0.047 c 0.264,-0.027 0.422,-0.398 0.361,-0.845 -0.052,-0.452 -0.293,-0.762 -0.56,-0.734 l -0.449,0.048 -0.061,0.016 c -0.166,-0.475 -0.42,-0.916 -0.744,-1.298 l 0.016,-0.022 0.289,-0.345 c 0.045,-0.053 0.088,-0.136 0.066,-0.264 -0.012,-0.193 -0.164,-0.415 -0.394,-0.592 -0.36,-0.288 -0.743,-0.341 -0.918,-0.135 l -0.287,0.349 -0.01,0.016 C 85.896,57.854 85.32,57.697 84.73,57.665 l 0,-0.008 -0.046,-0.448 c -0.002,-0.062 -0.03,-0.154 -0.133,-0.235 -0.145,-0.122 -0.408,-0.171 -0.698,-0.136 -0.294,0.034 -0.54,0.143 -0.664,0.3 -0.074,0.099 -0.087,0.188 -0.082,0.252 l 0.039,0.452 0.012,0.042 c -0.519,0.179 -1,0.462 -1.41,0.823 l -0.332,-0.269 c -0.205,-0.166 -0.543,-0.04 -0.826,0.313"
           id="path148"
           style="fill:#3ca3b1;fill-opacity:1;fill-rule:nonzero;stroke:none" /><path
           d="m 138.075,143.289 -9.342,-2.227 c -1.031,-0.246 -1.82,-1.478 -1.76,-2.752 l 0.827,-17.684 c 0.059,-1.275 0.944,-2.108 1.976,-1.861 l 11.833,2.82 c 1.031,0.246 1.821,1.478 1.76,2.752 l -0.682,14.61 -4.612,4.342"
           id="path150"
           style="fill:#ffffff;fill-opacity:1;fill-rule:nonzero;stroke:none" /><path
           d="m 128.747,140.762 c -0.896,-0.215 -1.583,-1.287 -1.531,-2.394 l 0.825,-17.685 c 0.053,-1.105 0.825,-1.832 1.722,-1.617 l 11.832,2.82 c 0.896,0.212 1.584,1.287 1.531,2.393 l -0.678,14.485 -4.46,4.201 -9.241,-2.203 m 12.876,-19.477 -11.833,-2.821 c -1.165,-0.277 -2.166,0.666 -2.232,2.103 l -0.829,17.686 c -0.067,1.437 0.826,2.833 1.99,3.109 l 9.342,2.228 0.175,-0.047 4.613,-4.343 0.08,-0.196 0.683,-14.609 c 0.069,-1.438 -0.825,-2.834 -1.989,-3.11"
           id="path152"
           style="fill:#4f4c4d;fill-opacity:1;fill-rule:nonzero;stroke:none" /><path
           d="m 141.554,137.896 -3.191,-0.758 c -0.345,-0.084 -0.637,0.195 -0.66,0.62 l -0.195,4.183 4.046,-4.045"
           id="path154"
           style="fill:#ffffff;fill-opacity:1;fill-rule:nonzero;stroke:none" /><path
           d="m 141.568,137.596 -3.19,-0.759 c -0.48,-0.114 -0.89,0.272 -0.917,0.863 l -0.196,4.182 c -0.008,0.165 0.095,0.324 0.228,0.358 0.136,0.031 0.251,-0.076 0.259,-0.242 l 0.194,-4.182 c 0.013,-0.259 0.194,-0.428 0.403,-0.378 l 3.19,0.76 c 0.136,0.031 0.251,-0.077 0.259,-0.242 0.008,-0.166 -0.095,-0.326 -0.23,-0.36"
           id="path156"
           style="fill:#4f4c4d;fill-opacity:1;fill-rule:nonzero;stroke:none" /><path
           d="m 137.326,125.419 c -0.104,-0.025 -0.208,0.013 -0.272,0.117 l -1.696,2.689 c -0.098,0.158 -0.066,0.404 0.074,0.55 0.139,0.148 0.335,0.138 0.433,-0.019 l 1.695,-2.691 c 0.098,-0.156 0.066,-0.402 -0.074,-0.55 l -0.16,-0.096"
           id="path158"
           style="fill:#918f90;fill-opacity:1;fill-rule:nonzero;stroke:none" /><path
           d="m 133.915,124.604 -0.166,0.022 c -0.151,0.076 -0.205,0.301 -0.124,0.503 l 1.41,3.429 c 0.081,0.201 0.27,0.301 0.421,0.224 0.15,-0.078 0.205,-0.303 0.122,-0.506 l -1.408,-3.428 c -0.054,-0.129 -0.151,-0.218 -0.255,-0.244"
           id="path160"
           style="fill:#918f90;fill-opacity:1;fill-rule:nonzero;stroke:none" /><path
           d="m 132.421,133.143 0.232,-4.969 5.576,1.327 -0.232,4.972 -5.576,-1.33 m 5.843,-4.407 -5.576,-1.329 c -0.34,-0.082 -0.634,0.196 -0.655,0.617 l -0.232,4.971 c -0.021,0.423 0.242,0.833 0.585,0.913 l 5.575,1.328 c 0.343,0.083 0.637,-0.194 0.655,-0.617 l 0.233,-4.971 c 0.02,-0.421 -0.243,-0.83 -0.585,-0.912"
           id="path162"
           style="fill:#918f90;fill-opacity:1;fill-rule:nonzero;stroke:none" /><path
           d="m 138.315,134.361 c 0.01,-0.203 -0.115,-0.397 -0.277,-0.435 l -5.605,-1.337 c -0.165,-0.039 -0.303,0.093 -0.313,0.295 l -0.009,0.18 c -0.008,0.203 0.116,0.396 0.279,0.435 l 5.604,1.337 c 0.163,0.038 0.304,-0.093 0.313,-0.293 l 0.008,-0.182"
           id="path164"
           style="fill:#918f90;fill-opacity:1;fill-rule:nonzero;stroke:none" /><path
           d="m 137.997,134.469 -5.59,-1.35 0.022,-0.161 5.576,1.346 -0.008,0.165 m 0.059,-0.925 -5.607,-1.336 c -0.333,-0.08 -0.619,0.19 -0.64,0.602 l -0.008,0.18 c -0.019,0.415 0.236,0.813 0.57,0.893 l 5.606,1.336 c 0.334,0.08 0.621,-0.192 0.639,-0.605 l 0.009,-0.181 c 0.02,-0.411 -0.236,-0.809 -0.569,-0.889"
           id="path166"
           style="fill:#918f90;fill-opacity:1;fill-rule:nonzero;stroke:none" /><path
           d="m 142.003,142.325 -9.344,-2.227 c -1.031,-0.245 -1.821,-1.476 -1.76,-2.752 l 0.827,-17.682 c 0.059,-1.276 0.944,-2.107 1.976,-1.861 l 11.832,2.818 c 1.033,0.247 1.82,1.479 1.76,2.752 l -0.68,14.61 -4.611,4.342"
           id="path168"
           style="fill:#ffffff;fill-opacity:1;fill-rule:nonzero;stroke:none" /><path
           d="m 132.674,139.799 c -0.897,-0.213 -1.585,-1.286 -1.53,-2.394 l 0.826,-17.684 c 0.05,-1.105 0.822,-1.833 1.717,-1.619 l 11.834,2.821 c 0.896,0.212 1.583,1.287 1.532,2.394 l -0.678,14.485 -4.461,4.2 -9.24,-2.203 m 12.875,-19.476 -11.833,-2.822 c -1.165,-0.277 -2.168,0.667 -2.235,2.103 l -0.826,17.686 c -0.067,1.438 0.825,2.832 1.991,3.11 l 9.341,2.227 0.177,-0.048 4.609,-4.344 0.084,-0.193 0.682,-14.61 c 0.067,-1.437 -0.826,-2.832 -1.99,-3.109"
           id="path170"
           style="fill:#4f4c4d;fill-opacity:1;fill-rule:nonzero;stroke:none" /><path
           d="m 145.481,136.936 -3.192,-0.761 c -0.344,-0.083 -0.64,0.194 -0.658,0.619 l -0.195,4.181 4.045,-4.039"
           id="path172"
           style="fill:#ffffff;fill-opacity:1;fill-rule:nonzero;stroke:none" /><path
           d="m 145.496,136.635 -3.193,-0.761 c -0.478,-0.114 -0.889,0.273 -0.916,0.864 l -0.196,4.181 c -0.006,0.167 0.096,0.325 0.23,0.358 0.134,0.031 0.248,-0.077 0.258,-0.244 l 0.193,-4.18 c 0.014,-0.259 0.194,-0.429 0.402,-0.377 l 3.192,0.759 c 0.135,0.032 0.25,-0.076 0.259,-0.242 0.006,-0.166 -0.096,-0.327 -0.229,-0.358"
           id="path174"
           style="fill:#4f4c4d;fill-opacity:1;fill-rule:nonzero;stroke:none" /><path
           d="m 137.613,137.609 -4.68,-1.114 c -0.133,-0.033 -0.249,0.076 -0.256,0.242 -0.009,0.166 0.093,0.326 0.228,0.358 l 4.681,1.115 c 0.135,0.033 0.249,-0.075 0.258,-0.242 0.008,-0.165 -0.095,-0.327 -0.231,-0.359"
           id="path176"
           style="fill:#918f90;fill-opacity:1;fill-rule:nonzero;stroke:none" /><path
           d="m 137.723,135.303 -4.681,-1.118 c -0.135,-0.031 -0.25,0.079 -0.259,0.243 -0.008,0.167 0.096,0.328 0.231,0.36 l 4.679,1.114 c 0.134,0.033 0.25,-0.076 0.258,-0.242 0.007,-0.165 -0.095,-0.327 -0.228,-0.357"
           id="path178"
           style="fill:#918f90;fill-opacity:1;fill-rule:nonzero;stroke:none" /><path
           d="m 137.83,132.995 -4.682,-1.115 c -0.134,-0.031 -0.25,0.077 -0.256,0.242 -0.008,0.167 0.092,0.325 0.228,0.358 l 4.683,1.116 c 0.133,0.033 0.249,-0.076 0.257,-0.243 0.006,-0.166 -0.096,-0.324 -0.23,-0.358"
           id="path180"
           style="fill:#918f90;fill-opacity:1;fill-rule:nonzero;stroke:none" /><path
           d="m 137.938,130.689 -4.681,-1.118 c -0.134,-0.03 -0.25,0.079 -0.258,0.243 -0.006,0.168 0.095,0.327 0.23,0.359 l 4.68,1.115 c 0.135,0.033 0.249,-0.075 0.257,-0.241 0.01,-0.166 -0.094,-0.327 -0.228,-0.358"
           id="path182"
           style="fill:#918f90;fill-opacity:1;fill-rule:nonzero;stroke:none" /><path
           d="m 138.045,128.382 -4.681,-1.117 c -0.135,-0.031 -0.248,0.076 -0.257,0.244 -0.008,0.164 0.094,0.326 0.23,0.357 l 4.68,1.115 c 0.134,0.034 0.25,-0.076 0.258,-0.241 0.007,-0.168 -0.094,-0.326 -0.23,-0.358"
           id="path184"
           style="fill:#918f90;fill-opacity:1;fill-rule:nonzero;stroke:none" /><path
           d="m 138.153,126.072 -4.68,-1.114 c -0.135,-0.033 -0.25,0.075 -0.257,0.243 -0.009,0.165 0.094,0.326 0.229,0.357 l 4.681,1.117 c 0.135,0.03 0.248,-0.077 0.257,-0.243 0.007,-0.167 -0.096,-0.327 -0.23,-0.36"
           id="path186"
           style="fill:#918f90;fill-opacity:1;fill-rule:nonzero;stroke:none" /><path
           d="m 138.261,123.766 -4.68,-1.115 c -0.134,-0.032 -0.249,0.078 -0.258,0.243 -0.008,0.165 0.095,0.325 0.231,0.358 l 4.677,1.116 c 0.137,0.033 0.251,-0.076 0.259,-0.244 0.008,-0.164 -0.095,-0.326 -0.229,-0.358"
           id="path188"
           style="fill:#918f90;fill-opacity:1;fill-rule:nonzero;stroke:none" /><path
           d="m 138.37,121.459 -4.683,-1.114 c -0.133,-0.031 -0.249,0.075 -0.255,0.241 -0.009,0.166 0.094,0.327 0.227,0.359 l 4.682,1.115 c 0.135,0.032 0.249,-0.078 0.258,-0.243 0.006,-0.166 -0.095,-0.325 -0.229,-0.358"
           id="path190"
           style="fill:#918f90;fill-opacity:1;fill-rule:nonzero;stroke:none" /><path
           d="m 145.064,132.387 -4.681,-1.118 c -0.134,-0.029 -0.249,0.079 -0.256,0.243 -0.01,0.168 0.094,0.327 0.228,0.36 l 4.68,1.115 c 0.136,0.032 0.251,-0.075 0.258,-0.243 0.008,-0.166 -0.095,-0.326 -0.229,-0.357"
           id="path192"
           style="fill:#918f90;fill-opacity:1;fill-rule:nonzero;stroke:none" /><path
           d="m 145.172,130.079 -4.682,-1.115 c -0.134,-0.032 -0.249,0.077 -0.257,0.243 -0.007,0.166 0.095,0.326 0.23,0.357 l 4.681,1.116 c 0.133,0.033 0.25,-0.077 0.256,-0.243 0.008,-0.165 -0.094,-0.325 -0.228,-0.358"
           id="path194"
           style="fill:#918f90;fill-opacity:1;fill-rule:nonzero;stroke:none" /><path
           d="m 145.278,127.773 -4.679,-1.118 c -0.134,-0.031 -0.249,0.079 -0.258,0.245 -0.007,0.165 0.097,0.325 0.228,0.357 l 4.683,1.117 c 0.134,0.031 0.25,-0.078 0.257,-0.243 0.009,-0.166 -0.096,-0.326 -0.231,-0.358"
           id="path196"
           style="fill:#918f90;fill-opacity:1;fill-rule:nonzero;stroke:none" /><path
           d="m 145.388,125.467 -4.681,-1.118 c -0.135,-0.032 -0.249,0.078 -0.257,0.243 -0.008,0.167 0.094,0.326 0.229,0.358 l 4.68,1.115 c 0.135,0.034 0.249,-0.073 0.257,-0.242 0.008,-0.165 -0.095,-0.324 -0.228,-0.356"
           id="path198"
           style="fill:#918f90;fill-opacity:1;fill-rule:nonzero;stroke:none" /><path
           d="m 145.496,123.159 -4.682,-1.116 c -0.134,-0.032 -0.25,0.077 -0.257,0.241 -0.007,0.168 0.094,0.326 0.23,0.36 l 4.682,1.116 c 0.132,0.031 0.247,-0.078 0.256,-0.244 0.007,-0.167 -0.095,-0.326 -0.229,-0.357"
           id="path200"
           style="fill:#918f90;fill-opacity:1;fill-rule:nonzero;stroke:none" /><path
           d="m 145.928,141.211 -9.343,-2.226 c -1.03,-0.247 -1.819,-1.48 -1.76,-2.754 l 0.828,-17.684 c 0.059,-1.275 0.944,-2.108 1.974,-1.862 l 11.836,2.82 c 1.031,0.247 1.819,1.479 1.76,2.753 l -0.684,14.609 -4.611,4.344"
           id="path202"
           style="fill:#ffffff;fill-opacity:1;fill-rule:nonzero;stroke:none" /><path
           d="m 136.6,138.684 c -0.896,-0.213 -1.583,-1.288 -1.531,-2.395 l 0.826,-17.685 c 0.053,-1.105 0.823,-1.833 1.719,-1.62 l 11.834,2.822 c 0.896,0.213 1.584,1.287 1.531,2.395 l -0.677,14.483 -4.46,4.201 -9.242,-2.201 m 12.876,-19.48 -11.834,-2.819 c -1.164,-0.278 -2.166,0.666 -2.233,2.103 l -0.827,17.684 c -0.067,1.44 0.825,2.834 1.991,3.111 l 9.342,2.228 0.177,-0.046 4.609,-4.344 0.081,-0.196 0.684,-14.611 c 0.067,-1.437 -0.826,-2.83 -1.99,-3.11"
           id="path204"
           style="fill:#4f4c4d;fill-opacity:1;fill-rule:nonzero;stroke:none" /><path
           d="m 149.407,135.819 -3.191,-0.761 c -0.345,-0.082 -0.639,0.195 -0.66,0.622 l -0.195,4.179 4.046,-4.04"
           id="path206"
           style="fill:#ffffff;fill-opacity:1;fill-rule:nonzero;stroke:none" /><path
           d="m 149.421,135.519 -3.191,-0.762 c -0.477,-0.114 -0.889,0.275 -0.916,0.864 l -0.195,4.182 c -0.009,0.166 0.093,0.325 0.229,0.358 0.134,0.031 0.249,-0.076 0.256,-0.243 l 0.196,-4.181 c 0.012,-0.259 0.192,-0.428 0.401,-0.38 l 3.193,0.761 c 0.134,0.033 0.248,-0.076 0.257,-0.242 0.008,-0.165 -0.095,-0.326 -0.23,-0.357"
           id="path208"
           style="fill:#4f4c4d;fill-opacity:1;fill-rule:nonzero;stroke:none" /><path
           d="m 146.658,124.316 -0.242,-0.057 -0.222,4.712 0.243,0.059 0.221,-4.714"
           id="path210"
           style="fill:#4f4c4d;fill-opacity:1;fill-rule:nonzero;stroke:none" /><path
           d="m 146.445,128.887 -0.243,-0.06 c -0.139,2.957 -1.094,4.062 -3.097,3.584 l -0.015,0.3 c 2.143,0.512 3.21,-0.704 3.355,-3.824"
           id="path212"
           style="fill:#4f4c4d;fill-opacity:1;fill-rule:nonzero;stroke:none" /><path
           d="m 140.314,122.661 -0.242,-0.06 -0.22,4.714 0.243,0.058 0.219,-4.712"
           id="path214"
           style="fill:#4f4c4d;fill-opacity:1;fill-rule:nonzero;stroke:none" /><path
           d="m 140.095,127.373 -0.243,-0.058 c -0.148,3.119 0.783,4.81 2.926,5.323 l 0.014,-0.3 c -2.004,-0.478 -2.836,-2.009 -2.697,-4.965"
           id="path216"
           style="fill:#4f4c4d;fill-opacity:1;fill-rule:nonzero;stroke:none" /><path
           d="m 143.983,132.773 c 0.039,-0.818 -0.466,-1.607 -1.129,-1.766 -0.663,-0.158 -1.229,0.379 -1.267,1.194 -0.039,0.818 0.467,1.607 1.129,1.765 0.662,0.158 1.229,-0.377 1.267,-1.193"
           id="path218"
           style="fill:#bdbcbc;fill-opacity:1;fill-rule:nonzero;stroke:none" /><path
           d="m 141.153,122.857 c 0.038,-0.816 -0.468,-1.606 -1.131,-1.763 -0.66,-0.158 -1.228,0.375 -1.267,1.193 -0.038,0.817 0.469,1.609 1.13,1.766 0.661,0.158 1.23,-0.377 1.268,-1.196"
           id="path220"
           style="fill:#bdbcbc;fill-opacity:1;fill-rule:nonzero;stroke:none" /><path
           d="m 141.727,127.08 c 0.012,-0.234 -0.135,-0.463 -0.326,-0.507 l -2.756,-0.657 c -0.19,-0.046 -0.353,0.109 -0.363,0.344 l -0.064,1.345 c -0.01,0.236 0.135,0.463 0.324,0.507 l 2.759,0.657 c 0.189,0.046 0.352,-0.108 0.363,-0.342 l 0.063,-1.347"
           id="path222"
           style="fill:#bdbcbc;fill-opacity:1;fill-rule:nonzero;stroke:none" /><path
           d="m 148.076,128.594 c 0.013,-0.235 -0.134,-0.463 -0.324,-0.507 l -2.755,-0.659 c -0.191,-0.044 -0.353,0.111 -0.366,0.345 l -0.063,1.345 c -0.01,0.235 0.134,0.464 0.327,0.508 l 2.754,0.658 c 0.192,0.047 0.355,-0.109 0.365,-0.344 l 0.062,-1.346"
           id="path224"
           style="fill:#bdbcbc;fill-opacity:1;fill-rule:nonzero;stroke:none" /><path
           d="m 147.742,124.43 c 0.038,-0.819 -0.468,-1.608 -1.128,-1.766 -0.663,-0.158 -1.23,0.376 -1.269,1.193 -0.037,0.817 0.467,1.608 1.13,1.765 0.66,0.158 1.229,-0.377 1.267,-1.192"
           id="path226"
           style="fill:#bdbcbc;fill-opacity:1;fill-rule:nonzero;stroke:none" /><path
           d="m 149.854,140.211 -9.341,-2.23 c -1.033,-0.245 -1.821,-1.478 -1.76,-2.751 l 0.827,-17.684 c 0.058,-1.276 0.942,-2.108 1.975,-1.863 l 11.834,2.822 c 1.032,0.245 1.82,1.476 1.761,2.752 l -0.684,14.609 -4.612,4.345"
           id="path228"
           style="fill:#ffffff;fill-opacity:1;fill-rule:nonzero;stroke:none" /><path
           d="m 140.526,137.683 c -0.894,-0.216 -1.582,-1.288 -1.531,-2.394 l 0.828,-17.686 c 0.051,-1.106 0.822,-1.833 1.718,-1.619 l 11.833,2.821 c 0.897,0.212 1.584,1.288 1.531,2.394 l -0.677,14.485 -4.459,4.203 -9.243,-2.204 m 12.877,-19.479 -11.834,-2.819 c -1.164,-0.279 -2.166,0.666 -2.232,2.103 l -0.828,17.684 c -0.067,1.439 0.826,2.834 1.99,3.11 l 9.343,2.227 0.175,-0.046 4.611,-4.344 0.082,-0.193 0.682,-14.611 c 0.066,-1.437 -0.825,-2.834 -1.989,-3.111"
           id="path230"
           style="fill:#4f4c4d;fill-opacity:1;fill-rule:nonzero;stroke:none" /><path
           d="m 153.334,134.817 -3.191,-0.759 c -0.344,-0.084 -0.639,0.194 -0.66,0.62 l -0.195,4.181 4.046,-4.042"
           id="path232"
           style="fill:#ffffff;fill-opacity:1;fill-rule:nonzero;stroke:none" /><path
           d="m 153.349,134.517 -3.192,-0.76 c -0.478,-0.115 -0.888,0.273 -0.916,0.862 l -0.197,4.182 c -0.008,0.166 0.096,0.327 0.229,0.358 0.136,0.033 0.251,-0.076 0.258,-0.242 l 0.196,-4.181 c 0.013,-0.259 0.192,-0.429 0.402,-0.38 l 3.19,0.761 c 0.136,0.034 0.25,-0.075 0.258,-0.241 0.009,-0.166 -0.094,-0.325 -0.228,-0.359"
           id="path234"
           style="fill:#4f4c4d;fill-opacity:1;fill-rule:nonzero;stroke:none" /><path
           d="m 143.32,118.955 -0.243,-0.059 -0.541,11.596 0.242,0.057 0.542,-11.594"
           id="path236"
           style="fill:#4f4c4d;fill-opacity:1;fill-rule:nonzero;stroke:none" /><path
           d="m 153.2,123.319 -11.392,-2.717 -0.014,0.302 11.392,2.713 0.014,-0.298"
           id="path238"
           style="fill:#4f4c4d;fill-opacity:1;fill-rule:nonzero;stroke:none" /><path
           d="m 143.183,121.247 -0.193,0.154 1.46,2.557 1.751,2.533 2.276,3.771 3.068,-1.389 -0.109,-0.29 -2.897,1.311 -2.157,-3.576 -1.748,-2.529 -1.451,-2.542"
           id="path240"
           style="fill:#4f4c4d;fill-opacity:1;fill-rule:nonzero;stroke:none" /><path
           d="m 147.313,127.158 c 0.017,-0.357 -0.206,-0.704 -0.494,-0.773 -0.289,-0.069 -0.538,0.165 -0.554,0.523 -0.016,0.356 0.205,0.7 0.495,0.77 0.288,0.068 0.536,-0.164 0.553,-0.52"
           id="path242"
           style="fill:#ffffff;fill-opacity:1;fill-rule:nonzero;stroke:none" /><path
           d="m 146.767,127.525 c -0.223,-0.052 -0.393,-0.317 -0.38,-0.587 0.011,-0.275 0.204,-0.455 0.425,-0.403 0.222,0.053 0.393,0.32 0.38,0.593 -0.012,0.273 -0.204,0.452 -0.425,0.397 m 0.06,-1.29 c -0.357,-0.084 -0.664,0.203 -0.683,0.642 -0.021,0.44 0.251,0.865 0.608,0.951 0.354,0.084 0.661,-0.204 0.683,-0.642 0.021,-0.44 -0.252,-0.866 -0.608,-0.951"
           id="path244"
           style="fill:#4f4c4d;fill-opacity:1;fill-rule:nonzero;stroke:none" /><path
           d="m 145.069,124.006 c 0.018,-0.358 -0.203,-0.703 -0.494,-0.771 -0.288,-0.069 -0.536,0.165 -0.553,0.521 -0.017,0.357 0.206,0.703 0.494,0.77 0.29,0.07 0.538,-0.163 0.553,-0.52"
           id="path246"
           style="fill:#ffffff;fill-opacity:1;fill-rule:nonzero;stroke:none" /><path
           d="m 144.522,124.375 c -0.221,-0.052 -0.39,-0.316 -0.377,-0.589 0.012,-0.275 0.202,-0.455 0.424,-0.402 0.222,0.053 0.392,0.317 0.378,0.592 -0.011,0.273 -0.203,0.454 -0.425,0.399 m 0.062,-1.292 c -0.355,-0.084 -0.663,0.203 -0.683,0.644 -0.019,0.439 0.252,0.865 0.608,0.949 0.356,0.086 0.662,-0.201 0.681,-0.64 0.021,-0.442 -0.251,-0.867 -0.606,-0.953"
           id="path248"
           style="fill:#4f4c4d;fill-opacity:1;fill-rule:nonzero;stroke:none" /><path
           d="m 149.032,130.205 c 0.016,-0.357 -0.205,-0.704 -0.493,-0.774 -0.291,-0.068 -0.538,0.167 -0.556,0.522 -0.015,0.359 0.204,0.702 0.495,0.772 0.288,0.068 0.538,-0.165 0.554,-0.52"
           id="path250"
           style="fill:#ffffff;fill-opacity:1;fill-rule:nonzero;stroke:none" /><path
           d="m 148.484,130.575 c -0.222,-0.053 -0.391,-0.317 -0.38,-0.593 0.014,-0.272 0.206,-0.453 0.425,-0.4 0.223,0.054 0.394,0.32 0.381,0.593 -0.014,0.274 -0.204,0.453 -0.426,0.4 m 0.06,-1.292 c -0.355,-0.087 -0.662,0.201 -0.683,0.642 -0.019,0.439 0.253,0.865 0.609,0.951 0.356,0.086 0.663,-0.205 0.684,-0.645 0.019,-0.438 -0.253,-0.866 -0.61,-0.948"
           id="path252"
           style="fill:#4f4c4d;fill-opacity:1;fill-rule:nonzero;stroke:none" /><path
           d="m 152.015,128.853 c 0.016,-0.355 -0.205,-0.703 -0.494,-0.77 -0.291,-0.071 -0.539,0.164 -0.554,0.52 -0.017,0.357 0.204,0.704 0.495,0.772 0.287,0.068 0.536,-0.164 0.553,-0.522"
           id="path254"
           style="fill:#ffffff;fill-opacity:1;fill-rule:nonzero;stroke:none" /><path
           d="m 151.468,129.224 c -0.223,-0.053 -0.392,-0.319 -0.379,-0.59 0.012,-0.276 0.204,-0.456 0.425,-0.403 0.222,0.053 0.391,0.322 0.378,0.593 -0.011,0.274 -0.204,0.451 -0.424,0.4 m 0.06,-1.293 c -0.357,-0.085 -0.663,0.203 -0.683,0.643 -0.02,0.441 0.252,0.865 0.609,0.95 0.356,0.085 0.661,-0.203 0.682,-0.642 0.019,-0.439 -0.253,-0.866 -0.608,-0.951"
           id="path256"
           style="fill:#4f4c4d;fill-opacity:1;fill-rule:nonzero;stroke:none" /><path
           d="m 153.782,139.316 -9.343,-2.227 c -1.031,-0.245 -1.819,-1.478 -1.76,-2.751 l 0.826,-17.687 c 0.06,-1.272 0.945,-2.106 1.977,-1.86 l 11.832,2.819 c 1.033,0.247 1.822,1.481 1.761,2.752 l -0.682,14.611 -4.611,4.343"
           id="path258"
           style="fill:#ffffff;fill-opacity:1;fill-rule:nonzero;stroke:none" /><path
           d="m 144.454,136.789 c -0.896,-0.213 -1.584,-1.287 -1.531,-2.395 l 0.825,-17.683 c 0.052,-1.108 0.824,-1.835 1.721,-1.621 l 11.832,2.822 c 0.896,0.213 1.584,1.286 1.531,2.394 l -0.679,14.483 -4.458,4.203 -9.241,-2.203 m 12.874,-19.48 -11.831,-2.818 c -1.165,-0.278 -2.168,0.665 -2.233,2.104 l -0.828,17.683 c -0.068,1.44 0.825,2.833 1.989,3.111 l 9.343,2.226 0.174,-0.045 4.612,-4.346 0.081,-0.194 0.683,-14.609 c 0.068,-1.438 -0.825,-2.831 -1.99,-3.112"
           id="path260"
           style="fill:#4f4c4d;fill-opacity:1;fill-rule:nonzero;stroke:none" /><path
           d="m 157.261,133.923 -3.192,-0.759 c -0.343,-0.083 -0.639,0.194 -0.659,0.62 l -0.195,4.181 4.046,-4.042"
           id="path262"
           style="fill:#ffffff;fill-opacity:1;fill-rule:nonzero;stroke:none" /><path
           d="m 157.274,133.624 -3.191,-0.76 c -0.478,-0.114 -0.89,0.272 -0.916,0.861 l -0.195,4.182 c -0.009,0.167 0.094,0.326 0.229,0.359 0.133,0.031 0.249,-0.078 0.256,-0.244 l 0.195,-4.18 c 0.014,-0.258 0.194,-0.429 0.403,-0.379 l 3.191,0.76 c 0.135,0.034 0.251,-0.076 0.257,-0.241 0.009,-0.166 -0.094,-0.327 -0.229,-0.358"
           id="path264"
           style="fill:#4f4c4d;fill-opacity:1;fill-rule:nonzero;stroke:none" /><path
           d="m 149.395,134.598 -4.683,-1.114 c -0.135,-0.032 -0.247,0.076 -0.256,0.239 -0.009,0.168 0.095,0.329 0.229,0.36 l 4.681,1.115 c 0.133,0.032 0.248,-0.076 0.256,-0.242 0.008,-0.165 -0.094,-0.324 -0.227,-0.358"
           id="path266"
           style="fill:#918f90;fill-opacity:1;fill-rule:nonzero;stroke:none" /><path
           d="m 149.826,125.371 -4.681,-1.116 c -0.135,-0.032 -0.25,0.078 -0.257,0.243 -0.008,0.165 0.093,0.325 0.229,0.357 l 4.681,1.116 c 0.134,0.031 0.249,-0.077 0.256,-0.243 0.009,-0.165 -0.095,-0.326 -0.228,-0.357"
           id="path268"
           style="fill:#918f90;fill-opacity:1;fill-rule:nonzero;stroke:none" /><path
           d="m 149.933,123.063 -4.681,-1.116 c -0.133,-0.033 -0.249,0.075 -0.257,0.243 -0.008,0.165 0.094,0.326 0.229,0.358 l 4.681,1.114 c 0.134,0.034 0.249,-0.074 0.258,-0.24 0.007,-0.167 -0.097,-0.327 -0.23,-0.359"
           id="path270"
           style="fill:#918f90;fill-opacity:1;fill-rule:nonzero;stroke:none" /><path
           d="m 150.041,120.755 -4.681,-1.115 c -0.135,-0.034 -0.25,0.077 -0.256,0.242 -0.009,0.168 0.094,0.327 0.228,0.358 l 4.682,1.116 c 0.133,0.032 0.249,-0.075 0.256,-0.243 0.008,-0.166 -0.093,-0.326 -0.229,-0.358"
           id="path272"
           style="fill:#918f90;fill-opacity:1;fill-rule:nonzero;stroke:none" /><path
           d="m 150.148,118.449 -4.679,-1.115 c -0.135,-0.034 -0.25,0.075 -0.258,0.242 -0.008,0.166 0.095,0.325 0.229,0.356 l 4.68,1.118 c 0.135,0.032 0.249,-0.078 0.259,-0.244 0.007,-0.166 -0.097,-0.326 -0.231,-0.357"
           id="path274"
           style="fill:#918f90;fill-opacity:1;fill-rule:nonzero;stroke:none" /><path
           d="m 149.709,127.847 c 0.02,-0.424 -0.242,-0.833 -0.587,-0.915 l -3.436,-0.819 c -0.343,-0.082 -0.636,0.195 -0.658,0.621 l -0.235,5.03 c -0.02,0.425 0.242,0.835 0.588,0.917 l 3.435,0.82 c 0.342,0.083 0.638,-0.196 0.658,-0.621 l 0.235,-5.033"
           id="path276"
           style="fill:#3ca3b1;fill-opacity:1;fill-rule:nonzero;stroke:none" /><path
           d="m 156.844,129.375 -4.682,-1.115 c -0.134,-0.032 -0.248,0.076 -0.257,0.241 -0.007,0.168 0.096,0.326 0.229,0.358 l 4.681,1.117 c 0.135,0.032 0.249,-0.076 0.258,-0.243 0.008,-0.167 -0.095,-0.327 -0.229,-0.358"
           id="path278"
           style="fill:#918f90;fill-opacity:1;fill-rule:nonzero;stroke:none" /><path
           d="m 156.95,127.069 -4.679,-1.115 c -0.135,-0.033 -0.249,0.076 -0.258,0.241 -0.008,0.166 0.094,0.326 0.229,0.359 l 4.681,1.115 c 0.135,0.033 0.25,-0.077 0.258,-0.243 0.006,-0.165 -0.095,-0.326 -0.231,-0.357"
           id="path280"
           style="fill:#918f90;fill-opacity:1;fill-rule:nonzero;stroke:none" /><path
           d="m 157.06,124.762 -4.682,-1.117 c -0.133,-0.031 -0.248,0.077 -0.256,0.244 -0.008,0.165 0.094,0.325 0.228,0.357 l 4.681,1.117 c 0.135,0.031 0.249,-0.078 0.258,-0.244 0.008,-0.166 -0.095,-0.324 -0.229,-0.357"
           id="path282"
           style="fill:#918f90;fill-opacity:1;fill-rule:nonzero;stroke:none" /><path
           d="m 157.167,122.454 -4.682,-1.117 c -0.132,-0.03 -0.248,0.078 -0.256,0.245 -0.007,0.166 0.095,0.325 0.229,0.356 l 4.682,1.117 c 0.132,0.031 0.248,-0.077 0.256,-0.242 0.007,-0.167 -0.094,-0.329 -0.229,-0.359"
           id="path284"
           style="fill:#918f90;fill-opacity:1;fill-rule:nonzero;stroke:none" /><path
           d="m 157.275,120.147 -4.68,-1.114 c -0.136,-0.033 -0.25,0.073 -0.258,0.239 -0.008,0.167 0.095,0.329 0.229,0.361 l 4.681,1.114 c 0.134,0.033 0.25,-0.075 0.256,-0.242 0.01,-0.165 -0.094,-0.326 -0.228,-0.358"
           id="path286"
           style="fill:#918f90;fill-opacity:1;fill-rule:nonzero;stroke:none" /><path
           d="m 143.28,141.689 0,0 -0.229,0.054 -0.887,0.836 -0.177,0.048 -1.343,-0.32 -1.457,0.341 -0.951,0.895 -0.175,0.047 -1.436,-0.343 -23.449,5.491 -0.001,-0.151 -0.657,0.151 30.762,8.739 31.369,-8.739 -31.369,-7.049"
           id="path288"
           style="fill:#ffffff;fill-opacity:1;fill-rule:nonzero;stroke:none" /><path
           d="m 138.04,142.916 -0.129,0.03 0.077,0.019 0.052,-0.049"
           id="path290"
           style="fill:#ffffff;fill-opacity:1;fill-rule:nonzero;stroke:none" /><path
           d="m 139.187,142.648 -1.147,0.268 -0.052,0.049 -0.077,-0.019 -1.286,0.301 1.436,0.343 0.175,-0.047 0.951,-0.895"
           id="path292"
           style="fill:#eeeeee;fill-opacity:1;fill-rule:nonzero;stroke:none" /><path
           d="m 143.051,141.743 -2.407,0.564 1.343,0.32 0.177,-0.048 0.887,-0.836"
           id="path294"
           style="fill:#eeeeee;fill-opacity:1;fill-rule:nonzero;stroke:none" /><path
           d="m 143.646,105.004 -13.567,3.781 0,1.066 c 0,0.277 -0.224,0.5 -0.5,0.5 -0.276,0 -0.5,-0.223 -0.5,-0.5 l 0,-0.788 -16.159,4.503 0.255,35.021 23.379,-5.357 -7.835,-1.868 c -1.164,-0.276 -2.057,-1.672 -1.99,-3.109 l 0.829,-17.686 c 0.058,-1.268 0.845,-2.151 1.829,-2.151 0.131,0 0.266,0.015 0.403,0.048 l 1.809,0.431 c 0.264,-0.876 0.926,-1.442 1.714,-1.442 0.132,0 0.266,0.015 0.403,0.048 l 1.772,0.423 c 0.231,-0.959 0.92,-1.588 1.75,-1.588 0.132,0 0.267,0.016 0.404,0.049 l 1.802,0.429 c 0.256,-0.896 0.924,-1.478 1.721,-1.478 0.132,0 0.267,0.016 0.404,0.049 l 1.832,0.436 c 0.063,-0.192 0.145,-0.368 0.244,-0.525 l 0.112,-8.18 c -0.055,-0.08 -0.089,-0.177 -0.09,-0.281 l -0.021,-1.831 m -0.363,36.521 -0.23,0.216 0.227,-0.052 0.003,-0.164 m -3.513,0.573 -0.554,0.523 1.4,-0.321 -0.846,-0.202"
           id="path296"
           style="fill:#c4c3c3;fill-opacity:1;fill-rule:nonzero;stroke:none" /><path
           d="m 143.787,104.965 -0.141,0.039 0.021,1.831 c 0.001,0.104 0.035,0.201 0.09,0.281 l 0.03,-2.151"
           id="path298"
           style="fill:#bdbcbd;fill-opacity:1;fill-rule:nonzero;stroke:none" /><path
           d="m 130.079,108.785 -1,0.278 0,0.788 c 0,0.277 0.224,0.5 0.5,0.5 0.276,0 0.5,-0.223 0.5,-0.5 l 0,-1.066"
           id="path300"
           style="fill:#bdbcbd;fill-opacity:1;fill-rule:nonzero;stroke:none" /><path
           d="m 129.451,119.029 c -0.757,0 -1.364,0.68 -1.41,1.654 l -0.825,17.685 c -0.052,1.107 0.635,2.179 1.531,2.394 l 9.107,2.171 0.222,-0.051 1.006,-0.948 -1.266,-0.301 -0.049,0.049 -0.015,0.316 c -0.007,0.147 -0.098,0.247 -0.212,0.247 -0.015,0 -0.031,-0.001 -0.047,-0.005 -0.133,-0.034 -0.236,-0.193 -0.228,-0.358 l 0.017,-0.377 -4.636,-1.105 c -1.166,-0.278 -2.058,-1.672 -1.991,-3.11 l 0.826,-17.686 c 0.002,-0.042 0.005,-0.084 0.009,-0.126 l -1.727,-0.412 c -0.106,-0.025 -0.211,-0.037 -0.312,-0.037"
           id="path302"
           style="fill:#c3c2c3;fill-opacity:1;fill-rule:nonzero;stroke:none" /><path
           d="m 129.387,118.416 c -0.984,0 -1.771,0.883 -1.829,2.151 l -0.829,17.686 c -0.067,1.437 0.826,2.833 1.99,3.109 l 7.835,1.868 1.3,-0.297 -9.107,-2.171 c -0.896,-0.215 -1.583,-1.287 -1.531,-2.394 l 0.825,-17.685 c 0.046,-0.974 0.653,-1.654 1.41,-1.654 0.101,0 0.206,0.012 0.312,0.037 l 1.727,0.412 c 0.018,-0.206 0.055,-0.401 0.109,-0.583 l -1.809,-0.431 c -0.137,-0.033 -0.272,-0.048 -0.403,-0.048 m 9.695,23.518 -1.006,0.948 1.14,-0.261 0.554,-0.523 -0.688,-0.164"
           id="path304"
           style="fill:#b2b1b1;fill-opacity:1;fill-rule:nonzero;stroke:none" /><path
           d="m 137.769,141.622 -0.002,0.06 0.049,-0.049 -0.047,-0.011"
           id="path306"
           style="fill:#c3c2c3;fill-opacity:1;fill-rule:nonzero;stroke:none" /><path
           d="m 137.282,141.505 -0.017,0.377 c -0.008,0.165 0.095,0.324 0.228,0.358 0.016,0.004 0.032,0.005 0.047,0.005 0.114,0 0.205,-0.1 0.212,-0.247 l 0.015,-0.316 0.002,-0.06 -0.487,-0.117"
           id="path308"
           style="fill:#b2b1b1;fill-opacity:1;fill-rule:nonzero;stroke:none" /><path
           d="m 133.376,118.065 c -0.756,0 -1.362,0.682 -1.406,1.656 l -0.826,17.684 c -0.055,1.108 0.633,2.181 1.53,2.394 l 9.24,2.203 1.225,-1.153 -1.273,-0.304 -0.173,0.173 -0.014,0.315 c -0.009,0.148 -0.099,0.25 -0.213,0.25 -0.014,0 -0.03,-0.002 -0.045,-0.006 -0.134,-0.033 -0.236,-0.191 -0.23,-0.358 l 0.025,-0.529 -4.643,-1.107 c -0.78,-0.185 -1.438,-0.871 -1.767,-1.736 l -1.901,-0.452 c -0.135,-0.032 -0.237,-0.192 -0.228,-0.358 0.006,-0.146 0.096,-0.248 0.208,-0.248 0.016,0 0.032,0.002 0.048,0.006 l 1.695,0.403 c -0.041,-0.237 -0.057,-0.481 -0.046,-0.726 l 0.047,-0.999 -1.615,-0.385 c -0.135,-0.032 -0.239,-0.193 -0.231,-0.36 0.008,-0.146 0.099,-0.248 0.213,-0.248 0.015,0 0.03,0.002 0.046,0.005 l 1.615,0.386 0.08,-1.705 -1.617,-0.386 c -0.136,-0.033 -0.236,-0.191 -0.228,-0.358 0.006,-0.146 0.097,-0.247 0.211,-0.247 0.015,0 0.03,0.001 0.045,0.005 l 1.617,0.385 0.08,-1.707 -1.616,-0.385 c -0.135,-0.032 -0.236,-0.191 -0.23,-0.359 0.007,-0.145 0.099,-0.248 0.214,-0.248 0.014,0 0.029,0.002 0.044,0.005 l 1.616,0.386 0.079,-1.706 -1.615,-0.385 c -0.136,-0.031 -0.238,-0.193 -0.23,-0.357 0.008,-0.149 0.097,-0.249 0.211,-0.249 0.015,0 0.03,0.002 0.046,0.005 l 1.617,0.386 0.079,-1.707 -1.615,-0.386 c -0.135,-0.031 -0.238,-0.192 -0.229,-0.357 0.006,-0.148 0.095,-0.249 0.209,-0.249 0.015,0 0.031,0.002 0.048,0.006 l 1.616,0.384 0.079,-1.705 -1.614,-0.385 c -0.136,-0.033 -0.239,-0.193 -0.231,-0.358 0.008,-0.145 0.099,-0.248 0.212,-0.248 0.015,0 0.03,0.001 0.046,0.005 l 1.615,0.385 0.08,-1.706 -1.617,-0.385 c -0.133,-0.032 -0.236,-0.193 -0.227,-0.359 0.006,-0.147 0.097,-0.247 0.21,-0.247 0.015,0 0.03,0.002 0.045,0.006 l 1.617,0.384 0.104,-2.217 -1.721,-0.41 c -0.105,-0.025 -0.209,-0.037 -0.311,-0.037"
           id="path310"
           style="fill:#c3c2c3;fill-opacity:1;fill-rule:nonzero;stroke:none" /><path
           d="m 133.313,117.453 c -0.788,0 -1.45,0.566 -1.714,1.442 -0.054,0.182 -0.091,0.377 -0.109,0.583 -0.004,0.042 -0.007,0.084 -0.009,0.126 l -0.826,17.686 c -0.067,1.438 0.825,2.832 1.991,3.11 l 5.17,1.233 1.266,0.301 0.688,0.164 0.846,0.202 2.437,-0.559 0.23,-0.216 0.008,-0.64 -0.152,-0.036 -1.225,1.153 -9.24,-2.203 c -0.897,-0.213 -1.585,-1.286 -1.53,-2.394 l 0.826,-17.684 c 0.044,-0.974 0.65,-1.656 1.406,-1.656 0.102,0 0.206,0.012 0.311,0.037 l 1.721,0.41 0.001,-0.024 c 0.009,-0.198 0.036,-0.387 0.079,-0.564 l -1.772,-0.423 c -0.137,-0.033 -0.271,-0.048 -0.403,-0.048"
           id="path312"
           style="fill:#b2b1b1;fill-opacity:1;fill-rule:nonzero;stroke:none" /><path
           d="m 141.703,140.506 -0.01,0.212 0.173,-0.173 -0.163,-0.039"
           id="path314"
           style="fill:#c3c2c3;fill-opacity:1;fill-rule:nonzero;stroke:none" /><path
           d="m 141.216,140.39 -0.025,0.529 c -0.006,0.167 0.096,0.325 0.23,0.358 0.015,0.004 0.031,0.006 0.045,0.006 0.114,0 0.204,-0.102 0.213,-0.25 l 0.014,-0.315 0.01,-0.212 -0.487,-0.116"
           id="path316"
           style="fill:#b2b1b1;fill-opacity:1;fill-rule:nonzero;stroke:none" /><path
           d="m 132.885,136.489 c -0.112,0 -0.202,0.102 -0.208,0.248 -0.009,0.166 0.093,0.326 0.228,0.358 l 1.901,0.452 c -0.08,-0.207 -0.14,-0.425 -0.178,-0.649 l -1.695,-0.403 c -0.016,-0.004 -0.032,-0.006 -0.048,-0.006"
           id="path318"
           style="fill:#b9b8b8;fill-opacity:1;fill-rule:nonzero;stroke:none" /><path
           d="m 132.996,134.18 c -0.114,0 -0.205,0.102 -0.213,0.248 -0.008,0.167 0.096,0.328 0.231,0.36 l 1.615,0.385 0.028,-0.602 -1.615,-0.386 c -0.016,-0.003 -0.031,-0.005 -0.046,-0.005"
           id="path320"
           style="fill:#b9b8b8;fill-opacity:1;fill-rule:nonzero;stroke:none" /><path
           d="m 133.103,131.875 c -0.114,0 -0.205,0.101 -0.211,0.247 -0.008,0.167 0.092,0.325 0.228,0.358 l 1.617,0.386 0.028,-0.601 -1.617,-0.385 c -0.015,-0.004 -0.03,-0.005 -0.045,-0.005"
           id="path322"
           style="fill:#b9b8b8;fill-opacity:1;fill-rule:nonzero;stroke:none" /><path
           d="m 133.213,129.566 c -0.115,0 -0.207,0.103 -0.214,0.248 -0.006,0.168 0.095,0.327 0.23,0.359 l 1.616,0.385 0.028,-0.601 -1.616,-0.386 c -0.015,-0.003 -0.03,-0.005 -0.044,-0.005"
           id="path324"
           style="fill:#b9b8b8;fill-opacity:1;fill-rule:nonzero;stroke:none" /><path
           d="m 133.318,127.26 c -0.114,0 -0.203,0.1 -0.211,0.249 -0.008,0.164 0.094,0.326 0.23,0.357 l 1.615,0.385 0.029,-0.6 -1.617,-0.386 c -0.016,-0.003 -0.031,-0.005 -0.046,-0.005"
           id="path326"
           style="fill:#b9b8b8;fill-opacity:1;fill-rule:nonzero;stroke:none" /><path
           d="m 133.425,124.952 c -0.114,0 -0.203,0.101 -0.209,0.249 -0.009,0.165 0.094,0.326 0.229,0.357 l 1.615,0.386 0.029,-0.602 -1.616,-0.384 c -0.017,-0.004 -0.033,-0.006 -0.048,-0.006"
           id="path328"
           style="fill:#b9b8b8;fill-opacity:1;fill-rule:nonzero;stroke:none" /><path
           d="m 133.535,122.646 c -0.113,0 -0.204,0.103 -0.212,0.248 -0.008,0.165 0.095,0.325 0.231,0.358 l 1.614,0.385 0.028,-0.601 -1.615,-0.385 c -0.016,-0.004 -0.031,-0.005 -0.046,-0.005"
           id="path330"
           style="fill:#b9b8b8;fill-opacity:1;fill-rule:nonzero;stroke:none" /><path
           d="m 133.642,120.339 c -0.113,0 -0.204,0.1 -0.21,0.247 -0.009,0.166 0.094,0.327 0.227,0.359 l 1.617,0.385 0.028,-0.601 -1.617,-0.384 c -0.015,-0.004 -0.03,-0.006 -0.045,-0.006"
           id="path332"
           style="fill:#b9b8b8;fill-opacity:1;fill-rule:nonzero;stroke:none" /><path
           d="m 137.305,116.947 c -0.758,0 -1.363,0.682 -1.41,1.657 l -0.826,17.685 c -0.052,1.107 0.635,2.182 1.531,2.395 l 6.7,1.595 0.018,-1.325 -2.819,-0.672 c -1.164,-0.276 -2.057,-1.671 -1.99,-3.11 l 0.327,-6.99 -0.294,-0.07 c -0.189,-0.044 -0.334,-0.271 -0.324,-0.507 l 0.064,-1.345 c 0.009,-0.207 0.137,-0.352 0.297,-0.352 0.022,0 0.044,0.002 0.066,0.008 l 0.294,0.07 0.12,-2.566 c -0.205,-0.32 -0.323,-0.723 -0.304,-1.133 0.019,-0.41 0.172,-0.749 0.402,-0.964 l 0.18,-3.835 c 0.001,-0.031 0.003,-0.061 0.005,-0.092 l -1.728,-0.412 c -0.105,-0.025 -0.208,-0.037 -0.309,-0.037"
           id="path334"
           style="fill:#c3c2c3;fill-opacity:1;fill-rule:nonzero;stroke:none" /><path
           d="m 137.238,116.336 c -0.83,0 -1.519,0.629 -1.75,1.588 -0.043,0.177 -0.07,0.366 -0.079,0.564 l -0.001,0.024 -0.24,5.125 -0.079,1.705 -0.029,0.602 -0.079,1.707 -0.029,0.6 -0.37,7.921 c -0.011,0.245 0.005,0.489 0.046,0.726 0.038,0.224 0.098,0.442 0.178,0.649 0.329,0.865 0.987,1.551 1.767,1.736 l 4.643,1.107 0.487,0.116 0.163,0.039 1.273,0.304 0.152,0.036 0.009,-0.606 -6.7,-1.595 c -0.896,-0.213 -1.583,-1.288 -1.531,-2.395 l 0.826,-17.685 c 0.047,-0.975 0.652,-1.657 1.41,-1.657 0.101,0 0.204,0.012 0.309,0.037 l 1.728,0.412 c 0.016,-0.205 0.051,-0.4 0.102,-0.582 l -1.802,-0.429 c -0.137,-0.033 -0.272,-0.049 -0.404,-0.049"
           id="path336"
           style="fill:#b2b1b1;fill-opacity:1;fill-rule:nonzero;stroke:none" /><path
           d="m 139.157,121.323 c -0.23,0.215 -0.383,0.554 -0.402,0.964 -0.019,0.41 0.099,0.813 0.304,1.133 l 0.098,-2.097"
           id="path338"
           style="fill:#bdbcbd;fill-opacity:1;fill-rule:nonzero;stroke:none" /><path
           d="m 138.579,125.908 c -0.16,0 -0.288,0.145 -0.297,0.352 l -0.064,1.345 c -0.01,0.236 0.135,0.463 0.324,0.507 l 0.294,0.07 0.103,-2.196 -0.294,-0.07 c -0.022,-0.006 -0.044,-0.008 -0.066,-0.008"
           id="path340"
           style="fill:#bdbcbd;fill-opacity:1;fill-rule:nonzero;stroke:none" /><path
           d="m 141.231,115.947 c -0.757,0 -1.363,0.68 -1.408,1.656 l -0.828,17.686 c -0.051,1.106 0.637,2.178 1.531,2.394 l 2.8,0.668 0.022,-1.601 c -0.587,-0.603 -0.957,-1.527 -0.912,-2.472 l 0.176,-3.768 -0.076,-0.018 0.434,-9.308 -1.176,-0.28 0.014,-0.302 1.176,0.281 0.093,-1.987 0.078,0.019 0.109,-2.32 c 0.003,-0.067 0.008,-0.132 0.015,-0.197 l -1.738,-0.414 c -0.106,-0.025 -0.209,-0.037 -0.31,-0.037"
           id="path342"
           style="fill:#c3c2c3;fill-opacity:1;fill-rule:nonzero;stroke:none" /><path
           d="m 141.165,115.336 c -0.797,0 -1.465,0.582 -1.721,1.478 -0.051,0.182 -0.086,0.377 -0.102,0.582 -0.002,0.031 -0.004,0.061 -0.005,0.092 l -0.828,17.684 c -0.067,1.439 0.826,2.834 1.99,3.11 l 2.819,0.672 0.008,-0.603 -2.8,-0.668 c -0.894,-0.216 -1.582,-1.288 -1.531,-2.394 l 0.828,-17.686 c 0.045,-0.976 0.651,-1.656 1.408,-1.656 0.101,0 0.204,0.012 0.31,0.037 l 1.738,0.414 c 0.022,-0.204 0.063,-0.397 0.122,-0.577 l -1.832,-0.436 c -0.137,-0.033 -0.272,-0.049 -0.404,-0.049"
           id="path344"
           style="fill:#b2b1b1;fill-opacity:1;fill-rule:nonzero;stroke:none" /><path
           d="m 143.077,118.896 -0.093,1.987 0.078,0.019 0.093,-1.987 -0.078,-0.019 m -0.107,2.288 -0.434,9.308 0.076,0.018 0.423,-9.031 -0.045,-0.078 0.05,-0.04 0.008,-0.158 -0.078,-0.019"
           id="path346"
           style="fill:#b2b1b1;fill-opacity:1;fill-rule:nonzero;stroke:none" /><path
           d="m 141.808,120.602 -0.014,0.302 1.176,0.28 0.078,0.019 0.014,-0.301 -0.078,-0.019 -1.176,-0.281"
           id="path348"
           style="fill:#b2b1b1;fill-opacity:1;fill-rule:nonzero;stroke:none" /><path
           d="m 143.04,121.361 -0.05,0.04 0.045,0.078 0.005,-0.118"
           id="path350"
           style="fill:#b2b1b1;fill-opacity:1;fill-rule:nonzero;stroke:none" /><path
           d="m 143.573,120.455 -0.65,13.939 c -0.027,0.572 0.142,1.134 0.436,1.574 l 0.214,-15.513"
           id="path352"
           style="fill:#c3c2c3;fill-opacity:1;fill-rule:nonzero;stroke:none" /><path
           d="m 143.645,115.296 c -0.099,0.157 -0.181,0.333 -0.244,0.525 -0.059,0.18 -0.1,0.373 -0.122,0.577 -0.007,0.065 -0.012,0.13 -0.015,0.197 l -0.202,4.307 -0.014,0.301 -0.008,0.158 -0.005,0.118 -0.599,12.799 c -0.045,0.945 0.325,1.869 0.912,2.472 l 0.011,-0.782 c -0.294,-0.44 -0.463,-1.002 -0.436,-1.574 l 0.65,-13.939 0.072,-5.159"
           id="path354"
           style="fill:#b2b1b1;fill-opacity:1;fill-rule:nonzero;stroke:none" /><path
           d="m 143.28,141.689 -0.227,0.052 -0.002,0.002 0.229,-0.054 m -2.664,0.611 -1.4,0.321 -0.029,0.027 1.457,-0.341 -0.028,-0.007 m -4.062,0.93 -23.379,5.357 0.001,0.151 23.449,-5.491 -0.071,-0.017"
           id="path356"
           style="fill:#c4c3c3;fill-opacity:1;fill-rule:nonzero;stroke:none" /><path
           d="m 138.076,142.882 -0.222,0.051 0.057,0.013 0.129,-0.03 0.036,-0.034"
           id="path358"
           style="fill:#c3c2c3;fill-opacity:1;fill-rule:nonzero;stroke:none" /><path
           d="m 139.216,142.621 -1.14,0.261 -0.036,0.034 1.147,-0.268 0.029,-0.027 m -1.362,0.312 -1.3,0.297 0.071,0.017 1.286,-0.301 -0.057,-0.013"
           id="path360"
           style="fill:#c2c1c1;fill-opacity:1;fill-rule:nonzero;stroke:none" /><path
           d="m 143.053,141.741 -2.437,0.559 0.028,0.007 2.407,-0.564 0.002,-0.002"
           id="path362"
           style="fill:#c2c1c1;fill-opacity:1;fill-rule:nonzero;stroke:none" /><path
           d="m 144.657,105.994 0.01,0.829 c 0.003,0.276 -0.219,0.503 -0.494,0.506 -0.002,0 -0.004,0 -0.006,0 -0.163,0 -0.308,-0.078 -0.399,-0.199 l -0.115,8.153 c 0.334,-0.525 0.851,-0.841 1.439,-0.841 0.132,0 0.268,0.016 0.405,0.049 l 11.831,2.818 c 1.165,0.281 2.058,1.674 1.99,3.112 l -0.683,14.609 -0.081,0.194 -4.612,4.346 -0.174,0.045 -2.276,-0.542 -1.475,1.39 -0.175,0.046 -2.184,-0.521 -1.566,1.477 -0.177,0.046 -2.089,-0.499 -0.543,0.513 -0.003,0.164 31.369,7.049 0,-34.876 -29.992,-7.868"
           id="path364"
           style="fill:#ececec;fill-opacity:1;fill-rule:nonzero;stroke:none" /><path
           d="m 143.787,105.766 -0.019,1.364 c 0.091,0.121 0.236,0.199 0.399,0.199 0.002,0 0.004,0 0.006,0 0.275,-0.003 0.497,-0.23 0.494,-0.506 l -0.01,-0.829 -0.87,-0.228"
           id="path366"
           style="fill:#e6e5e6;fill-opacity:1;fill-rule:nonzero;stroke:none" /><path
           d="m 143.292,140.885 -0.009,0.64 0.543,-0.513 -0.534,-0.127"
           id="path368"
           style="fill:#dcdbdb;fill-opacity:1;fill-rule:nonzero;stroke:none" /><path
           d="m 143.319,138.954 -0.019,1.326 2.542,0.605 1.126,-1.061 -1.268,-0.303 -0.081,0.081 -0.015,0.316 c -0.006,0.147 -0.096,0.248 -0.21,0.248 -0.015,0 -0.031,-0.001 -0.046,-0.005 -0.136,-0.033 -0.238,-0.192 -0.229,-0.358 l 0.02,-0.415 -1.82,-0.434"
           id="path370"
           style="fill:#ecebeb;fill-opacity:1;fill-rule:nonzero;stroke:none" /><path
           d="m 146.968,139.824 -1.126,1.061 -2.542,-0.605 -0.008,0.605 0.534,0.127 2.089,0.499 0.177,-0.046 1.566,-1.477 -0.69,-0.164"
           id="path372"
           style="fill:#dcdbdb;fill-opacity:1;fill-rule:nonzero;stroke:none" /><path
           d="m 145.624,139.503 -0.005,0.099 0.081,-0.081 -0.076,-0.018"
           id="path374"
           style="fill:#ecebeb;fill-opacity:1;fill-rule:nonzero;stroke:none" /><path
           d="m 145.139,139.388 -0.02,0.415 c -0.009,0.166 0.093,0.325 0.229,0.358 0.015,0.004 0.031,0.005 0.046,0.005 0.114,0 0.204,-0.101 0.21,-0.248 l 0.015,-0.316 0.005,-0.099 -0.485,-0.115"
           id="path376"
           style="fill:#dcdbdb;fill-opacity:1;fill-rule:nonzero;stroke:none" /><path
           d="m 143.35,136.752 -0.023,1.599 6.442,1.536 1.036,-0.978 -1.259,-0.3 -0.015,0.308 c -0.006,0.146 -0.096,0.248 -0.209,0.248 -0.016,0 -0.032,-0.002 -0.049,-0.006 -0.133,-0.031 -0.237,-0.192 -0.229,-0.358 l 0.014,-0.308 -4.633,-1.104 c -0.4,-0.095 -0.767,-0.322 -1.075,-0.637"
           id="path378"
           style="fill:#ecebeb;fill-opacity:1;fill-rule:nonzero;stroke:none" /><path
           d="m 143.327,138.351 -0.008,0.603 1.82,0.434 0.485,0.115 0.076,0.018 1.958,0.467 2.184,0.521 0.175,-0.046 1.475,-1.39 -0.687,-0.164 -1.036,0.978 -6.442,-1.536"
           id="path380"
           style="fill:#dcdbdb;fill-opacity:1;fill-rule:nonzero;stroke:none" /><path
           d="m 149.058,138.493 -0.014,0.308 c -0.008,0.166 0.096,0.327 0.229,0.358 0.017,0.004 0.033,0.006 0.049,0.006 0.113,0 0.203,-0.102 0.209,-0.248 l 0.015,-0.308 -0.488,-0.116"
           id="path382"
           style="fill:#dcdbdb;fill-opacity:1;fill-rule:nonzero;stroke:none" /><path
           d="m 145.158,115.052 c -0.758,0 -1.364,0.682 -1.41,1.659 l -0.165,3.543 -0.222,15.717 c 0.276,0.411 0.66,0.715 1.093,0.818 l 9.241,2.203 4.458,-4.203 0.679,-14.483 c 0.053,-1.108 -0.635,-2.181 -1.531,-2.394 l -11.832,-2.822 c -0.106,-0.026 -0.21,-0.038 -0.311,-0.038 m 5.009,4.003 c -0.016,0 -0.031,-0.002 -0.047,-0.005 l -4.68,-1.118 c -0.134,-0.031 -0.237,-0.19 -0.229,-0.356 0.007,-0.146 0.096,-0.249 0.209,-0.249 0.016,0 0.032,0.003 0.049,0.007 l 4.679,1.115 c 0.134,0.031 0.238,0.191 0.231,0.357 -0.009,0.146 -0.099,0.249 -0.212,0.249 m 7.128,1.698 c -0.016,0 -0.032,-0.002 -0.048,-0.006 l -4.681,-1.114 c -0.134,-0.032 -0.237,-0.194 -0.229,-0.361 0.007,-0.145 0.095,-0.245 0.209,-0.245 0.016,0 0.032,0.002 0.049,0.006 l 4.68,1.114 c 0.134,0.032 0.238,0.193 0.228,0.358 -0.005,0.146 -0.095,0.248 -0.208,0.248 m -7.235,0.609 c -0.015,0 -0.031,-0.002 -0.046,-0.006 l -4.682,-1.116 c -0.134,-0.031 -0.237,-0.19 -0.228,-0.358 0.006,-0.146 0.095,-0.248 0.209,-0.248 0.015,0 0.031,0.002 0.047,0.006 l 4.681,1.115 c 0.136,0.032 0.237,0.192 0.229,0.358 -0.006,0.148 -0.097,0.249 -0.21,0.249 m 7.125,1.698 c -0.015,0 -0.03,-0.002 -0.045,-0.005 l -4.682,-1.117 c -0.134,-0.031 -0.236,-0.19 -0.229,-0.356 0.007,-0.148 0.099,-0.25 0.212,-0.25 0.015,0 0.029,0.001 0.044,0.005 l 4.682,1.117 c 0.135,0.03 0.236,0.192 0.229,0.359 -0.007,0.146 -0.098,0.247 -0.211,0.247 m -7.231,0.608 c -0.016,0 -0.032,-0.002 -0.049,-0.006 l -4.681,-1.114 c -0.135,-0.032 -0.237,-0.193 -0.229,-0.358 0.007,-0.147 0.098,-0.249 0.209,-0.249 0.016,0 0.032,0.002 0.048,0.006 l 4.681,1.116 c 0.133,0.032 0.237,0.192 0.23,0.359 -0.008,0.145 -0.097,0.246 -0.209,0.246 m 7.123,1.7 c -0.015,0 -0.03,-10e-4 -0.046,-0.005 l -4.681,-1.117 c -0.134,-0.032 -0.236,-0.192 -0.228,-0.357 0.007,-0.147 0.098,-0.249 0.211,-0.249 0.014,0 0.03,0.002 0.045,0.005 l 4.682,1.117 c 0.134,0.033 0.237,0.191 0.229,0.357 -0.008,0.147 -0.098,0.249 -0.212,0.249 m -7.233,0.608 c -0.015,0 -0.031,-0.002 -0.046,-0.005 l -4.681,-1.116 c -0.136,-0.032 -0.237,-0.192 -0.229,-0.357 0.006,-0.146 0.096,-0.249 0.21,-0.249 0.015,0 0.031,0.002 0.047,0.006 l 4.681,1.116 c 0.133,0.031 0.237,0.192 0.228,0.357 -0.006,0.147 -0.097,0.248 -0.21,0.248 m 7.126,1.699 c -0.015,0 -0.031,-0.002 -0.047,-0.006 l -4.681,-1.115 c -0.135,-0.033 -0.237,-0.193 -0.229,-0.359 0.007,-0.145 0.097,-0.247 0.21,-0.247 0.015,0 0.031,0.002 0.048,0.006 l 4.679,1.115 c 0.136,0.031 0.237,0.192 0.231,0.357 -0.007,0.146 -0.097,0.249 -0.211,0.249 m -8.034,5.84 c -0.039,0 -0.079,-0.004 -0.12,-0.014 l -3.435,-0.82 c -0.346,-0.082 -0.608,-0.492 -0.588,-0.917 l 0.235,-5.03 c 0.019,-0.375 0.249,-0.635 0.539,-0.635 0.039,0 0.079,0.004 0.119,0.014 l 3.436,0.819 c 0.345,0.082 0.607,0.491 0.587,0.915 l -0.235,5.033 c -0.018,0.374 -0.249,0.635 -0.538,0.635 m 7.926,-3.533 c -0.015,0 -0.031,-0.002 -0.047,-0.006 l -4.681,-1.117 c -0.133,-0.032 -0.236,-0.19 -0.229,-0.358 0.008,-0.146 0.098,-0.247 0.211,-0.247 0.015,0 0.03,0.002 0.046,0.006 l 4.682,1.115 c 0.134,0.031 0.237,0.191 0.229,0.358 -0.008,0.148 -0.098,0.249 -0.211,0.249 m -3.617,8.289 c -0.014,0 -0.029,-10e-4 -0.044,-0.005 -0.135,-0.033 -0.238,-0.192 -0.229,-0.359 l 0.195,-4.182 c 0.023,-0.52 0.346,-0.881 0.75,-0.881 0.054,0 0.109,0.006 0.166,0.02 l 3.191,0.76 c 0.135,0.031 0.238,0.192 0.229,0.358 -0.005,0.145 -0.096,0.247 -0.209,0.247 -0.016,0 -0.032,-0.001 -0.048,-0.006 l -0.231,-0.055 -3.543,3.54 -0.015,0.314 c -0.006,0.148 -0.098,0.249 -0.212,0.249 m -3.832,-3.067 c -0.015,0 -0.031,-0.002 -0.047,-0.006 l -4.681,-1.115 c -0.134,-0.031 -0.238,-0.192 -0.229,-0.36 0.008,-0.143 0.096,-0.244 0.209,-0.244 0.015,0 0.031,10e-4 0.047,0.005 l 4.683,1.114 c 0.133,0.034 0.235,0.193 0.227,0.358 -0.007,0.146 -0.097,0.248 -0.209,0.248"
           id="path384"
           style="fill:#ecebeb;fill-opacity:1;fill-rule:nonzero;stroke:none" /><path
           d="m 145.092,114.442 c -0.588,0 -1.105,0.316 -1.439,0.841 l -0.07,4.971 0.165,-3.543 c 0.046,-0.977 0.652,-1.659 1.41,-1.659 0.101,0 0.205,0.012 0.311,0.038 l 11.832,2.822 c 0.896,0.213 1.584,1.286 1.531,2.394 l -0.679,14.483 -4.458,4.203 -9.241,-2.203 c -0.433,-0.103 -0.817,-0.407 -1.093,-0.818 l -0.011,0.781 c 0.308,0.315 0.675,0.542 1.075,0.637 l 4.633,1.104 0.488,0.116 1.259,0.3 0.687,0.164 2.276,0.542 0.174,-0.045 4.612,-4.346 0.081,-0.194 0.683,-14.609 c 0.068,-1.438 -0.825,-2.831 -1.99,-3.112 l -11.831,-2.818 c -0.137,-0.033 -0.273,-0.049 -0.405,-0.049"
           id="path386"
           style="fill:#dcdbdb;fill-opacity:1;fill-rule:nonzero;stroke:none" /><path
           d="m 153.983,133.454 c -0.177,0 -0.319,0.16 -0.331,0.388 l -0.18,3.866 3.543,-3.54 -2.96,-0.705 c -0.025,-0.006 -0.049,-0.009 -0.072,-0.009"
           id="path388"
           style="fill:#ecebeb;fill-opacity:1;fill-rule:nonzero;stroke:none" /><path
           d="m 153.917,132.844 c -0.404,0 -0.727,0.361 -0.75,0.881 l -0.195,4.182 c -0.009,0.167 0.094,0.326 0.229,0.359 0.015,0.004 0.03,0.005 0.044,0.005 0.114,0 0.206,-0.101 0.212,-0.249 l 0.015,-0.314 0.18,-3.866 c 0.012,-0.228 0.154,-0.388 0.331,-0.388 0.023,0 0.047,0.003 0.072,0.009 l 2.96,0.705 0.231,0.055 c 0.016,0.005 0.032,0.006 0.048,0.006 0.113,0 0.204,-0.102 0.209,-0.247 0.009,-0.166 -0.094,-0.327 -0.229,-0.358 l -3.191,-0.76 c -0.057,-0.014 -0.112,-0.02 -0.166,-0.02"
           id="path390"
           style="fill:#dcdbdb;fill-opacity:1;fill-rule:nonzero;stroke:none" /><path
           d="m 144.665,133.479 c -0.113,0 -0.201,0.101 -0.209,0.244 -0.009,0.168 0.095,0.329 0.229,0.36 l 4.681,1.115 c 0.016,0.004 0.032,0.006 0.047,0.006 0.112,0 0.202,-0.102 0.209,-0.248 0.008,-0.165 -0.094,-0.324 -0.227,-0.358 l -4.683,-1.114 c -0.016,-0.004 -0.032,-0.005 -0.047,-0.005"
           id="path392"
           style="fill:#e2e1e1;fill-opacity:1;fill-rule:nonzero;stroke:none" /><path
           d="m 145.098,124.249 c -0.114,0 -0.204,0.103 -0.21,0.249 -0.008,0.165 0.093,0.325 0.229,0.357 l 4.681,1.116 c 0.015,0.003 0.031,0.005 0.046,0.005 0.113,0 0.204,-0.101 0.21,-0.248 0.009,-0.165 -0.095,-0.326 -0.228,-0.357 l -4.681,-1.116 c -0.016,-0.004 -0.032,-0.006 -0.047,-0.006"
           id="path394"
           style="fill:#e2e1e1;fill-opacity:1;fill-rule:nonzero;stroke:none" /><path
           d="m 145.204,121.941 c -0.111,0 -0.202,0.102 -0.209,0.249 -0.008,0.165 0.094,0.326 0.229,0.358 l 4.681,1.114 c 0.017,0.004 0.033,0.006 0.049,0.006 0.112,0 0.201,-0.101 0.209,-0.246 0.007,-0.167 -0.097,-0.327 -0.23,-0.359 l -4.681,-1.116 c -0.016,-0.004 -0.032,-0.006 -0.048,-0.006"
           id="path396"
           style="fill:#e2e1e1;fill-opacity:1;fill-rule:nonzero;stroke:none" /><path
           d="m 145.313,119.634 c -0.114,0 -0.203,0.102 -0.209,0.248 -0.009,0.168 0.094,0.327 0.228,0.358 l 4.682,1.116 c 0.015,0.004 0.031,0.006 0.046,0.006 0.113,0 0.204,-0.101 0.21,-0.249 0.008,-0.166 -0.093,-0.326 -0.229,-0.358 l -4.681,-1.115 c -0.016,-0.004 -0.032,-0.006 -0.047,-0.006"
           id="path398"
           style="fill:#e2e1e1;fill-opacity:1;fill-rule:nonzero;stroke:none" /><path
           d="m 145.42,117.327 c -0.113,0 -0.202,0.103 -0.209,0.249 -0.008,0.166 0.095,0.325 0.229,0.356 l 4.68,1.118 c 0.016,0.003 0.031,0.005 0.047,0.005 0.113,0 0.203,-0.103 0.212,-0.249 0.007,-0.166 -0.097,-0.326 -0.231,-0.357 l -4.679,-1.115 c -0.017,-0.004 -0.033,-0.007 -0.049,-0.007"
           id="path400"
           style="fill:#e2e1e1;fill-opacity:1;fill-rule:nonzero;stroke:none" /><path
           d="m 145.567,126.099 c -0.29,0 -0.52,0.26 -0.539,0.635 l -0.235,5.03 c -0.02,0.425 0.242,0.835 0.588,0.917 l 3.435,0.82 c 0.041,0.01 0.081,0.014 0.12,0.014 0.289,0 0.52,-0.261 0.538,-0.635 l 0.235,-5.033 c 0.02,-0.424 -0.242,-0.833 -0.587,-0.915 l -3.436,-0.819 c -0.04,-0.01 -0.08,-0.014 -0.119,-0.014"
           id="path402"
           style="fill:#d8e1e3;fill-opacity:1;fill-rule:nonzero;stroke:none" /><path
           d="m 152.116,128.254 c -0.113,0 -0.203,0.101 -0.211,0.247 -0.007,0.168 0.096,0.326 0.229,0.358 l 4.681,1.117 c 0.016,0.004 0.032,0.006 0.047,0.006 0.113,0 0.203,-0.101 0.211,-0.249 0.008,-0.167 -0.095,-0.327 -0.229,-0.358 l -4.682,-1.115 c -0.016,-0.004 -0.031,-0.006 -0.046,-0.006"
           id="path404"
           style="fill:#e2e1e1;fill-opacity:1;fill-rule:nonzero;stroke:none" /><path
           d="m 152.223,125.948 c -0.113,0 -0.203,0.102 -0.21,0.247 -0.008,0.166 0.094,0.326 0.229,0.359 l 4.681,1.115 c 0.016,0.004 0.032,0.006 0.047,0.006 0.114,0 0.204,-0.103 0.211,-0.249 0.006,-0.165 -0.095,-0.326 -0.231,-0.357 l -4.679,-1.115 c -0.017,-0.004 -0.033,-0.006 -0.048,-0.006"
           id="path406"
           style="fill:#e2e1e1;fill-opacity:1;fill-rule:nonzero;stroke:none" /><path
           d="m 152.333,123.64 c -0.113,0 -0.204,0.102 -0.211,0.249 -0.008,0.165 0.094,0.325 0.228,0.357 l 4.681,1.117 c 0.016,0.004 0.031,0.005 0.046,0.005 0.114,0 0.204,-0.102 0.212,-0.249 0.008,-0.166 -0.095,-0.324 -0.229,-0.357 l -4.682,-1.117 c -0.015,-0.003 -0.031,-0.005 -0.045,-0.005"
           id="path408"
           style="fill:#e2e1e1;fill-opacity:1;fill-rule:nonzero;stroke:none" /><path
           d="m 152.441,121.332 c -0.113,0 -0.205,0.102 -0.212,0.25 -0.007,0.166 0.095,0.325 0.229,0.356 l 4.682,1.117 c 0.015,0.003 0.03,0.005 0.045,0.005 0.113,0 0.204,-0.101 0.211,-0.247 0.007,-0.167 -0.094,-0.329 -0.229,-0.359 l -4.682,-1.117 c -0.015,-0.004 -0.029,-0.005 -0.044,-0.005"
           id="path410"
           style="fill:#e2e1e1;fill-opacity:1;fill-rule:nonzero;stroke:none" /><path
           d="m 152.546,119.027 c -0.114,0 -0.202,0.1 -0.209,0.245 -0.008,0.167 0.095,0.329 0.229,0.361 l 4.681,1.114 c 0.016,0.004 0.032,0.006 0.048,0.006 0.113,0 0.203,-0.102 0.208,-0.248 0.01,-0.165 -0.094,-0.326 -0.228,-0.358 l -4.68,-1.114 c -0.017,-0.004 -0.033,-0.006 -0.049,-0.006"
           id="path412"
           style="fill:#e2e1e1;fill-opacity:1;fill-rule:nonzero;stroke:none" /><path
           d="m 129.497,144.47 29.608,8.668 c 0.265,0.078 0.417,0.355 0.34,0.621 -0.078,0.264 -0.356,0.417 -0.621,0.339 l -29.608,-8.668 c -0.265,-0.078 -0.417,-0.355 -0.34,-0.62 0.078,-0.265 0.356,-0.417 0.621,-0.34"
           id="path414"
           style="fill:#bdbcbc;fill-opacity:1;fill-rule:nonzero;stroke:none" /><path
           d="m 128.858,122.357 c -2.395,0.735 -5.273,2.196 -5.507,3.905 -0.179,1.301 0.848,2.383 1.84,3.43 0.639,0.672 1.3,1.368 1.453,1.969 0.186,0.742 0.158,1.103 0.096,1.825 -0.012,0.129 -0.023,0.263 -0.036,0.412 -0.02,0.297 0.197,0.483 0.489,0.411 0.292,-0.074 0.548,-0.368 0.572,-0.664 0.011,-0.144 0.023,-0.278 0.035,-0.403 0.064,-0.757 0.107,-1.254 -0.121,-2.148 -0.201,-0.791 -0.892,-1.525 -1.623,-2.292 -0.828,-0.876 -1.77,-1.864 -1.654,-2.727 0.089,-0.653 1.812,-1.852 4.442,-2.658 2.631,-0.804 4.337,-0.65 4.415,-0.05 0.094,0.797 -0.878,2.371 -1.735,3.758 -0.753,1.228 -1.467,2.388 -1.69,3.309 -0.258,1.068 -0.146,3.579 -0.04,5.369 l 0.009,0.111 c 0.017,0.287 0.263,0.434 0.56,0.32 0.292,-0.11 0.519,-0.431 0.5,-0.716 l -0.007,-0.114 c -0.159,-2.665 -0.157,-4.357 0.007,-5.033 0.168,-0.699 0.852,-1.804 1.511,-2.874 1.024,-1.664 2.084,-3.384 1.937,-4.59 -0.195,-1.579 -3.058,-1.28 -5.453,-0.55"
           id="path416"
           style="fill:#4f4c4d;fill-opacity:1;fill-rule:nonzero;stroke:none" /><path
           d="m 131.743,124.655 c 0.017,-1.343 -5.968,0.373 -5.989,1.923 -0.028,2.6 5.966,0.239 5.989,-1.923"
           id="path418"
           style="fill:#3ca3b1;fill-opacity:1;fill-rule:evenodd;stroke:none" /><path
           d="m 129.031,118.62 c -5.015,1.534 -9.135,6.838 -9.2,11.834 -0.043,3.559 2.027,6.159 5.275,6.617 0.264,0.04 0.58,-0.173 0.706,-0.481 0.12,-0.304 0.006,-0.578 -0.262,-0.616 -2.863,-0.409 -4.693,-2.701 -4.656,-5.847 0.056,-4.407 3.699,-9.095 8.123,-10.446 4.422,-1.355 7.982,1.127 7.93,5.54 -0.045,3.785 -2.93,8.087 -6.717,10.01 -0.284,0.147 -0.476,0.482 -0.419,0.749 0.054,0.271 0.334,0.37 0.621,0.223 4.272,-2.171 7.527,-7.034 7.58,-11.309 0.059,-4.993 -3.969,-7.805 -8.981,-6.274"
           id="path420"
           style="fill:#4f4c4d;fill-opacity:1;fill-rule:nonzero;stroke:none" /><path
           d="m 125.515,136.965 1.041,-1.324 -1.388,0.041 0.347,1.283"
           id="path422"
           style="fill:#4f4c4d;fill-opacity:1;fill-rule:evenodd;stroke:none" /><path
           d="m 125.178,135.153 c -0.14,0.043 -0.275,0.138 -0.38,0.268 -0.135,0.173 -0.193,0.382 -0.145,0.553 l 0.347,1.278 c 0.045,0.17 0.185,0.269 0.368,0.264 0.182,-0.004 0.379,-0.113 0.516,-0.291 l 1.039,-1.321 c 0.135,-0.175 0.191,-0.386 0.149,-0.555 -0.045,-0.166 -0.187,-0.267 -0.372,-0.262 l -1.383,0.042 -0.139,0.024"
           id="path424"
           style="fill:#4f4c4d;fill-opacity:1;fill-rule:nonzero;stroke:none" /><path
           d="m 113.176,113.983 30.419,-8.479 30.409,7.976 0,35.252 -30.92,8.4 -29.908,-8.394 0,-34.755 z m 30.415,-9.721 -0.163,0.023 -31.027,8.647 c -0.264,0.072 -0.446,0.313 -0.446,0.586 l 0,35.684 c 0,0.272 0.182,0.514 0.446,0.585 l 30.517,8.562 c 0.105,0.032 0.217,0.032 0.323,0 l 31.531,-8.56 c 0.269,-0.071 0.452,-0.312 0.452,-0.587 l 0,-36.192 c 0,-0.276 -0.188,-0.521 -0.456,-0.59 l -31.023,-8.14 -0.154,-0.018"
           id="path426"
           style="fill:#4f4c4d;fill-opacity:1;fill-rule:nonzero;stroke:none" /><path
           d="m 37.958,71.885 c 0,-1.09 -0.883,-1.973 -1.973,-1.973 -1.089,0 -1.972,0.883 -1.972,1.973 0,1.089 0.883,1.972 1.972,1.972 1.09,0 1.973,-0.883 1.973,-1.972"
           id="path428"
           style="fill:#bdbcbc;fill-opacity:1;fill-rule:nonzero;stroke:none" /><path
           d="m 92.148,71.885 c 0,-1.09 -0.882,-1.973 -1.972,-1.973 -1.09,0 -1.973,0.883 -1.973,1.973 0,1.089 0.883,1.972 1.973,1.972 1.09,0 1.972,-0.883 1.972,-1.972"
           id="path430"
           style="fill:#bdbcbc;fill-opacity:1;fill-rule:nonzero;stroke:none" /><path
           d="m 157.221,71.885 c 0,-1.09 -0.883,-1.973 -1.973,-1.973 -1.09,0 -1.973,0.883 -1.973,1.973 0,1.089 0.883,1.972 1.973,1.972 1.09,0 1.973,-0.883 1.973,-1.972"
           id="path432"
           style="fill:#bdbcbc;fill-opacity:1;fill-rule:nonzero;stroke:none" /><path
           d="m 226.443,71.885 c 0,-1.09 -0.882,-1.973 -1.972,-1.973 -1.09,0 -1.973,0.883 -1.973,1.973 0,1.089 0.883,1.972 1.973,1.972 1.09,0 1.972,-0.883 1.972,-1.972"
           id="path434"
           style="fill:#bdbcbc;fill-opacity:1;fill-rule:nonzero;stroke:none" /></g></g></g></svg>