<?xml version="1.0" encoding="UTF-8" standalone="no"?>
<!-- Created with Inkscape (http://www.inkscape.org/) -->

<svg
   xmlns:dc="http://purl.org/dc/elements/1.1/"
   xmlns:cc="http://creativecommons.org/ns#"
   xmlns:rdf="http://www.w3.org/1999/02/22-rdf-syntax-ns#"
   xmlns:svg="http://www.w3.org/2000/svg"
   xmlns="http://www.w3.org/2000/svg"
   version="1.1"
   width="300"
   height="60"
   id="svg2"
   xml:space="preserve"><metadata
     id="metadata8"><rdf:RDF><cc:Work
         rdf:about=""><dc:format>image/svg+xml</dc:format><dc:type
           rdf:resource="http://purl.org/dc/dcmitype/StillImage" /><dc:title></dc:title></cc:Work></rdf:RDF></metadata><defs
     id="defs6"><clipPath
       id="clipPath18"><path
         d="M 0,0 240,0 240,48 0,48 0,0 z"
         id="path20" /></clipPath></defs><g
     transform="matrix(1.25,0,0,-1.25,0,60)"
     id="g10"><g
       id="g12" /><g
       id="g14"><g
         clip-path="url(#clipPath18)"
         id="g16"><path
           d="M 28.366,43.085 6.713,35.928 28.366,30.096 50.742,35.928 28.366,43.085"
           id="path22"
           style="fill:#ffffff;fill-opacity:1;fill-rule:nonzero;stroke:none" /><path
           d="m 6.713,10.607 22.015,-6.135 -0.362,25.624 -21.653,5.832 0,-25.321"
           id="path24"
           style="fill:#bdbcbc;fill-opacity:1;fill-rule:nonzero;stroke:none" /><path
           d="m 50.742,35.928 -22.376,-5.832 0.362,-25.624 22.014,5.774 0,25.682"
           id="path26"
           style="fill:#eaeaea;fill-opacity:1;fill-rule:nonzero;stroke:none" /><path
           d="M 19.028,32.173 39.7,38.487 c 0.264,0.081 0.413,0.36 0.332,0.624 -0.081,0.265 -0.36,0.413 -0.624,0.333 L 18.736,33.129 c -0.264,-0.081 -0.413,-0.36 -0.332,-0.624 0.08,-0.264 0.36,-0.413 0.624,-0.332"
           id="path28"
           style="fill:#bdbcbc;fill-opacity:1;fill-rule:nonzero;stroke:none" /><path
           d="M 28.366,42.002 28.231,42.483 6.579,36.409 C 6.364,36.349 6.214,36.151 6.214,35.928 l 0,-25.321 c 0,-0.224 0.149,-0.421 0.366,-0.481 L 28.593,3.991 28.854,3.989 50.869,9.763 c 0.221,0.057 0.373,0.255 0.373,0.483 l 0,25.682 c 0,0.225 -0.152,0.423 -0.369,0.482 l -22.376,6.075 -0.266,-0.002 0.135,-0.481 -0.131,-0.483 22.007,-5.973 0,-24.914 -21.511,-5.642 -21.517,5.997 0,24.562 21.287,5.972 -0.135,0.481 -0.131,-0.483 0.131,0.483"
           id="path30"
           style="fill:#4f4c4d;fill-opacity:1;fill-rule:nonzero;stroke:none" /><path
           d="m 18.082,16.305 c -1.711,0.524 -3.763,1.566 -3.93,2.785 -0.126,0.928 0.606,1.7 1.314,2.446 0.455,0.481 0.927,0.977 1.035,1.405 0.134,0.528 0.113,0.787 0.067,1.302 -0.006,0.093 -0.016,0.188 -0.023,0.295 -0.017,0.21 0.141,0.343 0.349,0.292 0.207,-0.052 0.391,-0.261 0.407,-0.473 0.009,-0.104 0.016,-0.2 0.025,-0.288 0.046,-0.539 0.075,-0.893 -0.086,-1.533 -0.143,-0.564 -0.637,-1.087 -1.158,-1.634 -0.591,-0.624 -1.265,-1.33 -1.18,-1.945 0.063,-0.465 1.292,-1.322 3.168,-1.896 1.876,-0.573 3.093,-0.465 3.147,-0.036 0.069,0.569 -0.624,1.691 -1.234,2.682 -0.538,0.876 -1.046,1.701 -1.206,2.359 -0.185,0.762 -0.105,2.552 -0.029,3.831 l 0.007,0.078 c 0.012,0.203 0.188,0.31 0.4,0.228 0.206,-0.078 0.369,-0.306 0.355,-0.511 l -0.005,-0.079 c -0.111,-1.902 -0.111,-3.11 0.005,-3.592 0.121,-0.499 0.607,-1.287 1.078,-2.049 0.73,-1.188 1.488,-2.414 1.383,-3.274 -0.14,-1.126 -2.184,-0.915 -3.889,-0.393"
           id="path32"
           style="fill:#4f4c4d;fill-opacity:1;fill-rule:nonzero;stroke:none" /><path
           d="m 20.139,17.944 c 0.011,-0.958 -4.258,0.267 -4.273,1.372 -0.02,1.854 4.255,0.172 4.273,-1.372"
           id="path34"
           style="fill:#3ca3b1;fill-opacity:1;fill-rule:evenodd;stroke:none" /><path
           d="m 18.204,13.641 c -3.577,1.093 -6.516,4.878 -6.561,8.44 -0.032,2.539 1.446,4.392 3.762,4.719 0.188,0.028 0.413,-0.124 0.502,-0.343 0.087,-0.217 0.005,-0.412 -0.186,-0.439 -2.041,-0.291 -3.347,-1.928 -3.319,-4.17 0.039,-3.146 2.635,-6.488 5.791,-7.451 3.157,-0.966 5.694,0.806 5.659,3.951 -0.035,2.698 -2.091,5.769 -4.791,7.14 -0.205,0.105 -0.341,0.344 -0.301,0.535 0.039,0.191 0.238,0.264 0.443,0.158 3.047,-1.549 5.37,-5.016 5.405,-8.066 0.042,-3.562 -2.831,-5.568 -6.404,-4.474"
           id="path36"
           style="fill:#4f4c4d;fill-opacity:1;fill-rule:nonzero;stroke:none" /><path
           d="m 15.696,26.723 0.744,-0.942 -0.991,0.029 0.247,0.913"
           id="path38"
           style="fill:#4f4c4d;fill-opacity:1;fill-rule:evenodd;stroke:none" /><path
           d="m 15.455,25.433 c -0.099,0.03 -0.194,0.095 -0.269,0.19 -0.097,0.124 -0.139,0.274 -0.104,0.395 l 0.245,0.911 c 0.034,0.12 0.134,0.193 0.265,0.188 0.129,-0.002 0.269,-0.08 0.368,-0.206 l 0.74,-0.943 c 0.097,-0.125 0.138,-0.276 0.107,-0.395 -0.033,-0.119 -0.133,-0.192 -0.265,-0.188 l -0.987,0.03 -0.1,0.018"
           id="path40"
           style="fill:#4f4c4d;fill-opacity:1;fill-rule:nonzero;stroke:none" /><path
           d="m 66.569,29.162 c -0.392,0.301 -0.956,0.448 -1.694,0.448 -0.955,0 -1.755,-0.448 -2.397,-1.351 -0.643,-0.902 -0.962,-2.131 -0.962,-3.69 l 0,-7.128 -2.243,0 0,13.987 2.243,0 0,-2.881 0.054,0 c 0.318,0.983 0.806,1.751 1.461,2.301 0.656,0.552 1.388,0.826 2.199,0.826 0.584,0 1.029,-0.063 1.339,-0.192 l 0,-2.32"
           id="path42"
           style="fill:#3ca3b1;fill-opacity:1;fill-rule:nonzero;stroke:none" /><path
           d="m 77.949,25.773 c -0.01,1.293 -0.322,2.299 -0.935,3.018 -0.618,0.718 -1.47,1.081 -2.563,1.081 -1.055,0 -1.953,-0.379 -2.691,-1.137 -0.736,-0.753 -1.193,-1.742 -1.365,-2.962 l 7.554,0 z m 2.295,-1.899 -9.878,0 c 0.036,-1.556 0.455,-2.76 1.257,-3.608 0.802,-0.845 1.903,-1.27 3.308,-1.27 1.576,0 3.021,0.521 4.342,1.558 l 0,-2.104 c -1.228,-0.891 -2.854,-1.339 -4.876,-1.339 -1.976,0 -3.53,0.639 -4.659,1.906 -1.13,1.271 -1.693,3.057 -1.693,5.361 0,2.179 0.616,3.952 1.851,5.321 1.234,1.374 2.765,2.057 4.598,2.057 1.828,0 3.245,-0.591 4.246,-1.776 1.002,-1.185 1.504,-2.829 1.504,-4.929 l 0,-1.177"
           id="path44"
           style="fill:#3ca3b1;fill-opacity:1;fill-rule:nonzero;stroke:none" /><path
           d="m 82.785,17.947 0,2.402 c 1.22,-0.903 2.563,-1.353 4.029,-1.353 1.968,0 2.952,0.656 2.952,1.969 0,0.373 -0.084,0.69 -0.252,0.948 -0.169,0.26 -0.398,0.49 -0.684,0.691 -0.287,0.199 -0.625,0.38 -1.011,0.539 -0.387,0.16 -0.803,0.326 -1.249,0.498 -0.62,0.247 -1.166,0.494 -1.634,0.747 -0.469,0.249 -0.859,0.53 -1.174,0.846 -0.315,0.313 -0.551,0.671 -0.71,1.073 -0.16,0.398 -0.24,0.869 -0.24,1.406 0,0.656 0.15,1.236 0.452,1.741 0.3,0.507 0.699,0.928 1.203,1.272 0.498,0.34 1.069,0.596 1.713,0.773 0.64,0.17 1.304,0.257 1.986,0.257 1.213,0 2.297,-0.207 3.253,-0.629 l 0,-2.267 c -1.028,0.674 -2.214,1.012 -3.551,1.012 -0.421,0 -0.797,-0.048 -1.135,-0.144 -0.337,-0.095 -0.627,-0.229 -0.868,-0.404 -0.242,-0.172 -0.428,-0.38 -0.559,-0.621 -0.133,-0.242 -0.199,-0.508 -0.199,-0.798 0,-0.366 0.066,-0.67 0.199,-0.917 0.131,-0.245 0.325,-0.462 0.58,-0.656 0.254,-0.189 0.564,-0.363 0.928,-0.516 0.365,-0.159 0.781,-0.326 1.245,-0.507 0.619,-0.239 1.173,-0.482 1.666,-0.73 0.493,-0.254 0.911,-0.534 1.257,-0.847 0.345,-0.315 0.612,-0.678 0.799,-1.087 0.186,-0.411 0.28,-0.898 0.28,-1.462 0,-0.692 -0.154,-1.293 -0.459,-1.803 -0.304,-0.51 -0.711,-0.935 -1.221,-1.27 -0.51,-0.339 -1.098,-0.59 -1.764,-0.753 -0.663,-0.164 -1.36,-0.246 -2.09,-0.246 -1.438,0 -2.686,0.279 -3.742,0.836"
           id="path46"
           style="fill:#3ca3b1;fill-opacity:1;fill-rule:nonzero;stroke:none" /><path
           d="m 104.453,25.773 c -0.01,1.293 -0.322,2.299 -0.937,3.018 -0.615,0.718 -1.469,1.081 -2.561,1.081 -1.057,0 -1.956,-0.379 -2.692,-1.137 -0.738,-0.753 -1.195,-1.742 -1.367,-2.962 l 7.557,0 z m 2.295,-1.899 -9.878,0 c 0.036,-1.556 0.455,-2.76 1.256,-3.608 0.802,-0.845 1.905,-1.27 3.307,-1.27 1.575,0 3.022,0.521 4.344,1.558 l 0,-2.104 c -1.23,-0.891 -2.856,-1.339 -4.878,-1.339 -1.976,0 -3.53,0.639 -4.658,1.906 -1.129,1.271 -1.694,3.057 -1.694,5.361 0,2.179 0.615,3.952 1.851,5.321 1.233,1.374 2.767,2.057 4.598,2.057 1.829,0 3.245,-0.591 4.247,-1.776 1.002,-1.185 1.505,-2.829 1.505,-4.929 l 0,-1.177"
           id="path48"
           style="fill:#3ca3b1;fill-opacity:1;fill-rule:nonzero;stroke:none" /><path
           d="m 117.907,24.516 -3.374,-0.464 c -1.039,-0.146 -1.822,-0.402 -2.349,-0.773 -0.53,-0.367 -0.793,-1.022 -0.793,-1.959 0,-0.682 0.244,-1.243 0.73,-1.675 0.487,-0.433 1.137,-0.649 1.948,-0.649 1.111,0 2.03,0.391 2.752,1.17 0.725,0.779 1.086,1.763 1.086,2.956 l 0,1.394 z m 2.24,-7.075 -2.24,0 0,2.185 -0.053,0 c -0.976,-1.675 -2.41,-2.515 -4.305,-2.515 -1.394,0 -2.483,0.37 -3.272,1.11 -0.788,0.734 -1.18,1.714 -1.18,2.933 0,2.615 1.538,4.137 4.618,4.564 l 4.192,0.589 c 0,2.375 -0.961,3.565 -2.881,3.565 -1.686,0 -3.206,-0.575 -4.563,-1.722 l 0,2.294 c 1.374,0.875 2.959,1.312 4.752,1.312 3.288,0 4.932,-1.738 4.932,-5.219 l 0,-9.096"
           id="path50"
           style="fill:#3ca3b1;fill-opacity:1;fill-rule:nonzero;stroke:none" /><path
           d="m 131.664,29.162 c -0.391,0.301 -0.956,0.448 -1.694,0.448 -0.956,0 -1.755,-0.448 -2.396,-1.351 -0.643,-0.902 -0.965,-2.131 -0.965,-3.69 l 0,-7.128 -2.239,0 0,13.987 2.239,0 0,-2.881 0.055,0 c 0.319,0.983 0.806,1.751 1.462,2.301 0.656,0.552 1.39,0.826 2.199,0.826 0.583,0 1.03,-0.063 1.339,-0.192 l 0,-2.32"
           id="path52"
           style="fill:#3ca3b1;fill-opacity:1;fill-rule:nonzero;stroke:none" /><path
           d="m 143.632,18.08 c -1.075,-0.643 -2.351,-0.969 -3.824,-0.969 -1.997,0 -3.606,0.649 -4.829,1.947 -1.227,1.299 -1.838,2.981 -1.838,5.049 0,2.305 0.659,4.155 1.98,5.553 1.32,1.398 3.082,2.096 5.287,2.096 1.228,0 2.313,-0.227 3.252,-0.683 l 0,-2.295 c -1.039,0.729 -2.15,1.094 -3.335,1.094 -1.428,0 -2.602,-0.513 -3.517,-1.538 -0.915,-1.025 -1.371,-2.369 -1.371,-4.037 0,-1.64 0.428,-2.932 1.29,-3.878 0.859,-0.948 2.014,-1.423 3.463,-1.423 1.219,0 2.367,0.405 3.442,1.214 l 0,-2.13"
           id="path54"
           style="fill:#3ca3b1;fill-opacity:1;fill-rule:nonzero;stroke:none" /><path
           d="m 158.633,17.441 -2.242,0 0,8.058 c 0,2.915 -1.082,4.373 -3.25,4.373 -1.094,0 -2.014,-0.422 -2.76,-1.266 -0.747,-0.839 -1.121,-1.923 -1.121,-3.242 l 0,-7.923 -2.24,0 0,20.708 2.24,0 0,-9.042 0.054,0 c 1.076,1.766 2.606,2.649 4.591,2.649 3.151,0 4.728,-1.899 4.728,-5.697 l 0,-8.618"
           id="path56"
           style="fill:#3ca3b1;fill-opacity:1;fill-rule:nonzero;stroke:none" /><path
           d="m 168.536,30.624 c -1.648,0 -2.963,-0.558 -3.94,-1.67 -0.982,-1.109 -1.468,-2.653 -1.468,-4.629 0,-1.831 0.476,-3.302 1.433,-4.411 0.957,-1.114 2.261,-1.668 3.919,-1.668 1.687,0 2.984,0.545 3.895,1.637 0.91,1.094 1.366,2.611 1.366,4.551 0,1.995 -0.453,3.526 -1.36,4.591 -0.905,1.066 -2.188,1.599 -3.845,1.599 z M 168.44,17.098 c -2.04,0 -3.655,0.671 -4.842,2.015 -1.19,1.343 -1.785,3.09 -1.785,5.238 0,2.323 0.624,4.141 1.868,5.453 1.241,1.312 2.879,1.967 4.911,1.967 1.992,0 3.567,-0.652 4.725,-1.954 1.157,-1.302 1.735,-3.107 1.735,-5.411 0,-2.175 -0.589,-3.938 -1.769,-5.287 -1.18,-1.348 -2.793,-2.021 -4.843,-2.021"
           id="path58"
           style="fill:#4f4c4d;fill-opacity:1;fill-rule:nonzero;stroke:none" /><path
           d="m 179.779,25.131 0,-1.762 c 0,-1.403 0.443,-2.607 1.325,-3.614 0.883,-1.006 2.043,-1.509 3.484,-1.509 1.43,0 2.591,0.612 3.483,1.836 0.894,1.226 1.339,2.837 1.339,4.831 0,1.746 -0.408,3.136 -1.229,4.164 -0.82,1.031 -1.912,1.547 -3.279,1.547 -1.631,0 -2.892,-0.548 -3.784,-1.641 -0.893,-1.092 -1.339,-2.377 -1.339,-3.852 z m 0.055,-5.205 -0.055,0 0,-2.485 -1.257,0 0,20.708 1.257,0 0,-9.602 0.055,0 c 0.5,1.027 1.217,1.824 2.15,2.383 0.935,0.56 1.961,0.841 3.081,0.841 1.778,0 3.165,-0.614 4.159,-1.837 1,-1.227 1.497,-2.892 1.497,-4.993 0,-2.343 -0.578,-4.234 -1.736,-5.678 -1.154,-1.443 -2.657,-2.165 -4.506,-2.165 -2.094,0 -3.643,0.943 -4.645,2.828"
           id="path60"
           style="fill:#4f4c4d;fill-opacity:1;fill-rule:nonzero;stroke:none" /><path
           d="m 194.808,34.954 c -0.276,0 -0.516,0.1 -0.726,0.3 -0.209,0.2 -0.314,0.456 -0.314,0.766 0,0.298 0.105,0.543 0.321,0.729 0.214,0.188 0.453,0.28 0.719,0.28 0.281,0 0.528,-0.09 0.742,-0.274 0.214,-0.181 0.321,-0.426 0.321,-0.735 0,-0.292 -0.104,-0.545 -0.313,-0.751 -0.209,-0.214 -0.461,-0.315 -0.75,-0.315 z m 0.641,-17.116 c 0,-4.646 -1.649,-6.97 -4.945,-6.97 -0.656,0 -1.321,0.16 -1.995,0.478 l 0,1.312 c 0.728,-0.428 1.439,-0.643 2.13,-0.643 2.369,0 3.551,1.864 3.551,5.589 l 0,13.824 1.259,0 0,-13.59"
           id="path62"
           style="fill:#4f4c4d;fill-opacity:1;fill-rule:nonzero;stroke:none" /><path
           d="m 209.273,25.527 c -0.054,1.612 -0.441,2.865 -1.162,3.756 -0.716,0.891 -1.711,1.341 -2.977,1.341 -1.311,0 -2.399,-0.441 -3.257,-1.319 -0.86,-0.88 -1.393,-2.137 -1.593,-3.778 l 8.989,0 z m -9.043,-1.149 c 0,-1.92 0.445,-3.422 1.332,-4.507 0.887,-1.085 2.106,-1.625 3.654,-1.625 1.567,0 3.097,0.579 4.59,1.735 l 0,-1.339 c -1.447,-1.028 -3.065,-1.544 -4.849,-1.544 -1.803,0 -3.261,0.646 -4.373,1.942 -1.11,1.289 -1.667,3.116 -1.667,5.476 0,2.041 0.581,3.759 1.743,5.156 1.162,1.401 2.671,2.099 4.529,2.099 1.738,0 3.073,-0.614 4.004,-1.832 0.928,-1.222 1.391,-2.888 1.391,-4.998 l 0,-0.563 -10.354,0"
           id="path64"
           style="fill:#4f4c4d;fill-opacity:1;fill-rule:nonzero;stroke:none" /><path
           d="m 223.113,18.055 c -1.039,-0.638 -2.278,-0.957 -3.717,-0.957 -1.903,0 -3.437,0.653 -4.605,1.96 -1.164,1.307 -1.748,3.016 -1.748,5.129 0,2.225 0.656,4.044 1.969,5.457 1.311,1.419 2.995,2.127 5.053,2.127 1.066,0 2.1,-0.219 3.104,-0.655 l 0,-1.422 c -1.004,0.617 -2.103,0.93 -3.294,0.93 -1.641,0 -2.97,-0.591 -3.989,-1.771 -1.021,-1.179 -1.531,-2.706 -1.531,-4.583 0,-1.812 0.467,-3.27 1.402,-4.372 0.932,-1.101 2.165,-1.652 3.693,-1.652 1.404,0 2.624,0.371 3.663,1.121 l 0,-1.312"
           id="path66"
           style="fill:#4f4c4d;fill-opacity:1;fill-rule:nonzero;stroke:none" /><path
           d="m 232.006,17.63 c -0.655,-0.308 -1.271,-0.463 -1.844,-0.463 -2.067,0 -3.102,1.236 -3.102,3.715 l 0,9.399 -2.513,0 0,1.147 2.513,0 0,3.635 c 0.201,0.07 0.41,0.145 0.628,0.218 0.22,0.064 0.428,0.13 0.629,0.205 l 0,-4.058 3.689,0 0,-1.147 -3.689,0 0,-9.235 c 0,-0.964 0.153,-1.664 0.458,-2.096 0.303,-0.432 0.821,-0.649 1.549,-0.649 0.521,0 1.081,0.167 1.682,0.504 l 0,-1.175"
           id="path68"
           style="fill:#4f4c4d;fill-opacity:1;fill-rule:nonzero;stroke:none" /></g></g></g></svg>